<?xml version="1.0" encoding="utf-8" standalone="no"?>
<!DOCTYPE svg PUBLIC "-//W3C//DTD SVG 1.1//EN"
  "http://www.w3.org/Graphics/SVG/1.1/DTD/svg11.dtd">
<svg height="345.6pt" version="1.1" viewBox="0 0 460.8 345.6" width="460.8pt" xmlns="http://www.w3.org/2000/svg" xmlns:xlink="http://www.w3.org/1999/xlink">
 <metadata>
  <rdf:RDF xmlns:cc="http://creativecommons.org/ns#" xmlns:dc="http://purl.org/dc/elements/1.1/" xmlns:rdf="http://www.w3.org/1999/02/22-rdf-syntax-ns#">
   <cc:Work>
    <dc:type rdf:resource="http://purl.org/dc/dcmitype/StillImage"/>
    <dc:date>2021-07-11T11:33:09.437707</dc:date>
    <dc:format>image/svg+xml</dc:format>
    <dc:creator>
     <cc:Agent>
      <dc:title>Matplotlib v3.4.2, https://matplotlib.org/</dc:title>
     </cc:Agent>
    </dc:creator>
   </cc:Work>
  </rdf:RDF>
 </metadata>
 <defs>
  <style type="text/css">*{stroke-linecap:butt;stroke-linejoin:round;}</style>
 </defs>
 <g id="figure_1">
  <g id="patch_1">
   <path d="M 0 345.6 
L 460.8 345.6 
L 460.8 0 
L 0 0 
z
" style="fill:#ffffff;"/>
  </g>
  <g id="axes_1">
   <g id="patch_2">
    <path d="M 57.6 307.584 
L 414.72 307.584 
L 414.72 41.472 
L 57.6 41.472 
z
" style="fill:#ffffff;"/>
   </g>
   <g id="matplotlib.axis_1">
    <g id="xtick_1">
     <g id="line2d_1">
      <defs>
       <path d="M 0 0 
L 0 3.5 
" id="mfe1f955ea2" style="stroke:#000000;stroke-width:0.8;"/>
      </defs>
      <g>
       <use style="stroke:#000000;stroke-width:0.8;" x="57.757914" xlink:href="#mfe1f955ea2" y="307.584"/>
      </g>
     </g>
     <g id="text_1">
      <!-- 2010 -->
      <g transform="translate(45.032914 322.182437)scale(0.1 -0.1)">
       <defs>
        <path d="M 1228 531 
L 3431 531 
L 3431 0 
L 469 0 
L 469 531 
Q 828 903 1448 1529 
Q 2069 2156 2228 2338 
Q 2531 2678 2651 2914 
Q 2772 3150 2772 3378 
Q 2772 3750 2511 3984 
Q 2250 4219 1831 4219 
Q 1534 4219 1204 4116 
Q 875 4013 500 3803 
L 500 4441 
Q 881 4594 1212 4672 
Q 1544 4750 1819 4750 
Q 2544 4750 2975 4387 
Q 3406 4025 3406 3419 
Q 3406 3131 3298 2873 
Q 3191 2616 2906 2266 
Q 2828 2175 2409 1742 
Q 1991 1309 1228 531 
z
" id="DejaVuSans-32" transform="scale(0.015625)"/>
        <path d="M 2034 4250 
Q 1547 4250 1301 3770 
Q 1056 3291 1056 2328 
Q 1056 1369 1301 889 
Q 1547 409 2034 409 
Q 2525 409 2770 889 
Q 3016 1369 3016 2328 
Q 3016 3291 2770 3770 
Q 2525 4250 2034 4250 
z
M 2034 4750 
Q 2819 4750 3233 4129 
Q 3647 3509 3647 2328 
Q 3647 1150 3233 529 
Q 2819 -91 2034 -91 
Q 1250 -91 836 529 
Q 422 1150 422 2328 
Q 422 3509 836 4129 
Q 1250 4750 2034 4750 
z
" id="DejaVuSans-30" transform="scale(0.015625)"/>
        <path d="M 794 531 
L 1825 531 
L 1825 4091 
L 703 3866 
L 703 4441 
L 1819 4666 
L 2450 4666 
L 2450 531 
L 3481 531 
L 3481 0 
L 794 0 
L 794 531 
z
" id="DejaVuSans-31" transform="scale(0.015625)"/>
       </defs>
       <use xlink:href="#DejaVuSans-32"/>
       <use x="63.623047" xlink:href="#DejaVuSans-30"/>
       <use x="127.246094" xlink:href="#DejaVuSans-31"/>
       <use x="190.869141" xlink:href="#DejaVuSans-30"/>
      </g>
     </g>
    </g>
    <g id="xtick_2">
     <g id="line2d_2">
      <g>
       <use style="stroke:#000000;stroke-width:0.8;" x="116.874356" xlink:href="#mfe1f955ea2" y="307.584"/>
      </g>
     </g>
     <g id="text_2">
      <!-- 2012 -->
      <g transform="translate(104.149356 322.182437)scale(0.1 -0.1)">
       <use xlink:href="#DejaVuSans-32"/>
       <use x="63.623047" xlink:href="#DejaVuSans-30"/>
       <use x="127.246094" xlink:href="#DejaVuSans-31"/>
       <use x="190.869141" xlink:href="#DejaVuSans-32"/>
      </g>
     </g>
    </g>
    <g id="xtick_3">
     <g id="line2d_3">
      <g>
       <use style="stroke:#000000;stroke-width:0.8;" x="175.990799" xlink:href="#mfe1f955ea2" y="307.584"/>
      </g>
     </g>
     <g id="text_3">
      <!-- 2014 -->
      <g transform="translate(163.265799 322.182437)scale(0.1 -0.1)">
       <defs>
        <path d="M 2419 4116 
L 825 1625 
L 2419 1625 
L 2419 4116 
z
M 2253 4666 
L 3047 4666 
L 3047 1625 
L 3713 1625 
L 3713 1100 
L 3047 1100 
L 3047 0 
L 2419 0 
L 2419 1100 
L 313 1100 
L 313 1709 
L 2253 4666 
z
" id="DejaVuSans-34" transform="scale(0.015625)"/>
       </defs>
       <use xlink:href="#DejaVuSans-32"/>
       <use x="63.623047" xlink:href="#DejaVuSans-30"/>
       <use x="127.246094" xlink:href="#DejaVuSans-31"/>
       <use x="190.869141" xlink:href="#DejaVuSans-34"/>
      </g>
     </g>
    </g>
    <g id="xtick_4">
     <g id="line2d_4">
      <g>
       <use style="stroke:#000000;stroke-width:0.8;" x="235.107241" xlink:href="#mfe1f955ea2" y="307.584"/>
      </g>
     </g>
     <g id="text_4">
      <!-- 2016 -->
      <g transform="translate(222.382241 322.182437)scale(0.1 -0.1)">
       <defs>
        <path d="M 2113 2584 
Q 1688 2584 1439 2293 
Q 1191 2003 1191 1497 
Q 1191 994 1439 701 
Q 1688 409 2113 409 
Q 2538 409 2786 701 
Q 3034 994 3034 1497 
Q 3034 2003 2786 2293 
Q 2538 2584 2113 2584 
z
M 3366 4563 
L 3366 3988 
Q 3128 4100 2886 4159 
Q 2644 4219 2406 4219 
Q 1781 4219 1451 3797 
Q 1122 3375 1075 2522 
Q 1259 2794 1537 2939 
Q 1816 3084 2150 3084 
Q 2853 3084 3261 2657 
Q 3669 2231 3669 1497 
Q 3669 778 3244 343 
Q 2819 -91 2113 -91 
Q 1303 -91 875 529 
Q 447 1150 447 2328 
Q 447 3434 972 4092 
Q 1497 4750 2381 4750 
Q 2619 4750 2861 4703 
Q 3103 4656 3366 4563 
z
" id="DejaVuSans-36" transform="scale(0.015625)"/>
       </defs>
       <use xlink:href="#DejaVuSans-32"/>
       <use x="63.623047" xlink:href="#DejaVuSans-30"/>
       <use x="127.246094" xlink:href="#DejaVuSans-31"/>
       <use x="190.869141" xlink:href="#DejaVuSans-36"/>
      </g>
     </g>
    </g>
    <g id="xtick_5">
     <g id="line2d_5">
      <g>
       <use style="stroke:#000000;stroke-width:0.8;" x="294.223684" xlink:href="#mfe1f955ea2" y="307.584"/>
      </g>
     </g>
     <g id="text_5">
      <!-- 2018 -->
      <g transform="translate(281.498684 322.182437)scale(0.1 -0.1)">
       <defs>
        <path d="M 2034 2216 
Q 1584 2216 1326 1975 
Q 1069 1734 1069 1313 
Q 1069 891 1326 650 
Q 1584 409 2034 409 
Q 2484 409 2743 651 
Q 3003 894 3003 1313 
Q 3003 1734 2745 1975 
Q 2488 2216 2034 2216 
z
M 1403 2484 
Q 997 2584 770 2862 
Q 544 3141 544 3541 
Q 544 4100 942 4425 
Q 1341 4750 2034 4750 
Q 2731 4750 3128 4425 
Q 3525 4100 3525 3541 
Q 3525 3141 3298 2862 
Q 3072 2584 2669 2484 
Q 3125 2378 3379 2068 
Q 3634 1759 3634 1313 
Q 3634 634 3220 271 
Q 2806 -91 2034 -91 
Q 1263 -91 848 271 
Q 434 634 434 1313 
Q 434 1759 690 2068 
Q 947 2378 1403 2484 
z
M 1172 3481 
Q 1172 3119 1398 2916 
Q 1625 2713 2034 2713 
Q 2441 2713 2670 2916 
Q 2900 3119 2900 3481 
Q 2900 3844 2670 4047 
Q 2441 4250 2034 4250 
Q 1625 4250 1398 4047 
Q 1172 3844 1172 3481 
z
" id="DejaVuSans-38" transform="scale(0.015625)"/>
       </defs>
       <use xlink:href="#DejaVuSans-32"/>
       <use x="63.623047" xlink:href="#DejaVuSans-30"/>
       <use x="127.246094" xlink:href="#DejaVuSans-31"/>
       <use x="190.869141" xlink:href="#DejaVuSans-38"/>
      </g>
     </g>
    </g>
    <g id="xtick_6">
     <g id="line2d_6">
      <g>
       <use style="stroke:#000000;stroke-width:0.8;" x="353.340127" xlink:href="#mfe1f955ea2" y="307.584"/>
      </g>
     </g>
     <g id="text_6">
      <!-- 2020 -->
      <g transform="translate(340.615127 322.182437)scale(0.1 -0.1)">
       <use xlink:href="#DejaVuSans-32"/>
       <use x="63.623047" xlink:href="#DejaVuSans-30"/>
       <use x="127.246094" xlink:href="#DejaVuSans-32"/>
       <use x="190.869141" xlink:href="#DejaVuSans-30"/>
      </g>
     </g>
    </g>
    <g id="xtick_7">
     <g id="line2d_7">
      <g>
       <use style="stroke:#000000;stroke-width:0.8;" x="412.456569" xlink:href="#mfe1f955ea2" y="307.584"/>
      </g>
     </g>
     <g id="text_7">
      <!-- 2022 -->
      <g transform="translate(399.731569 322.182437)scale(0.1 -0.1)">
       <use xlink:href="#DejaVuSans-32"/>
       <use x="63.623047" xlink:href="#DejaVuSans-30"/>
       <use x="127.246094" xlink:href="#DejaVuSans-32"/>
       <use x="190.869141" xlink:href="#DejaVuSans-32"/>
      </g>
     </g>
    </g>
    <g id="text_8">
     <!-- year -->
     <g transform="translate(225.004531 335.860562)scale(0.1 -0.1)">
      <defs>
       <path d="M 2059 -325 
Q 1816 -950 1584 -1140 
Q 1353 -1331 966 -1331 
L 506 -1331 
L 506 -850 
L 844 -850 
Q 1081 -850 1212 -737 
Q 1344 -625 1503 -206 
L 1606 56 
L 191 3500 
L 800 3500 
L 1894 763 
L 2988 3500 
L 3597 3500 
L 2059 -325 
z
" id="DejaVuSans-79" transform="scale(0.015625)"/>
       <path d="M 3597 1894 
L 3597 1613 
L 953 1613 
Q 991 1019 1311 708 
Q 1631 397 2203 397 
Q 2534 397 2845 478 
Q 3156 559 3463 722 
L 3463 178 
Q 3153 47 2828 -22 
Q 2503 -91 2169 -91 
Q 1331 -91 842 396 
Q 353 884 353 1716 
Q 353 2575 817 3079 
Q 1281 3584 2069 3584 
Q 2775 3584 3186 3129 
Q 3597 2675 3597 1894 
z
M 3022 2063 
Q 3016 2534 2758 2815 
Q 2500 3097 2075 3097 
Q 1594 3097 1305 2825 
Q 1016 2553 972 2059 
L 3022 2063 
z
" id="DejaVuSans-65" transform="scale(0.015625)"/>
       <path d="M 2194 1759 
Q 1497 1759 1228 1600 
Q 959 1441 959 1056 
Q 959 750 1161 570 
Q 1363 391 1709 391 
Q 2188 391 2477 730 
Q 2766 1069 2766 1631 
L 2766 1759 
L 2194 1759 
z
M 3341 1997 
L 3341 0 
L 2766 0 
L 2766 531 
Q 2569 213 2275 61 
Q 1981 -91 1556 -91 
Q 1019 -91 701 211 
Q 384 513 384 1019 
Q 384 1609 779 1909 
Q 1175 2209 1959 2209 
L 2766 2209 
L 2766 2266 
Q 2766 2663 2505 2880 
Q 2244 3097 1772 3097 
Q 1472 3097 1187 3025 
Q 903 2953 641 2809 
L 641 3341 
Q 956 3463 1253 3523 
Q 1550 3584 1831 3584 
Q 2591 3584 2966 3190 
Q 3341 2797 3341 1997 
z
" id="DejaVuSans-61" transform="scale(0.015625)"/>
       <path d="M 2631 2963 
Q 2534 3019 2420 3045 
Q 2306 3072 2169 3072 
Q 1681 3072 1420 2755 
Q 1159 2438 1159 1844 
L 1159 0 
L 581 0 
L 581 3500 
L 1159 3500 
L 1159 2956 
Q 1341 3275 1631 3429 
Q 1922 3584 2338 3584 
Q 2397 3584 2469 3576 
Q 2541 3569 2628 3553 
L 2631 2963 
z
" id="DejaVuSans-72" transform="scale(0.015625)"/>
      </defs>
      <use xlink:href="#DejaVuSans-79"/>
      <use x="59.179688" xlink:href="#DejaVuSans-65"/>
      <use x="120.703125" xlink:href="#DejaVuSans-61"/>
      <use x="181.982422" xlink:href="#DejaVuSans-72"/>
     </g>
    </g>
   </g>
   <g id="matplotlib.axis_2">
    <g id="ytick_1">
     <g id="line2d_8">
      <defs>
       <path d="M 0 0 
L -3.5 0 
" id="m7eba591fa1" style="stroke:#000000;stroke-width:0.8;"/>
      </defs>
      <g>
       <use style="stroke:#000000;stroke-width:0.8;" x="57.6" xlink:href="#m7eba591fa1" y="283.557668"/>
      </g>
     </g>
     <g id="text_9">
      <!-- $100m -->
      <g transform="translate(15.409375 287.356886)scale(0.1 -0.1)">
       <defs>
        <path d="M 2163 -941 
L 1850 -941 
L 1847 0 
Q 1519 6 1191 76 
Q 863 147 531 288 
L 531 850 
Q 850 650 1176 548 
Q 1503 447 1850 444 
L 1850 1869 
Q 1159 1981 845 2250 
Q 531 2519 531 2988 
Q 531 3497 872 3790 
Q 1213 4084 1850 4128 
L 1850 4863 
L 2163 4863 
L 2163 4138 
Q 2453 4125 2725 4076 
Q 2997 4028 3256 3944 
L 3256 3397 
Q 2997 3528 2723 3600 
Q 2450 3672 2163 3684 
L 2163 2350 
Q 2872 2241 3206 1959 
Q 3541 1678 3541 1191 
Q 3541 663 3186 358 
Q 2831 53 2163 6 
L 2163 -941 
z
M 1850 2406 
L 1850 3688 
Q 1488 3647 1297 3481 
Q 1106 3316 1106 3041 
Q 1106 2772 1282 2622 
Q 1459 2472 1850 2406 
z
M 2163 1806 
L 2163 453 
Q 2559 506 2761 678 
Q 2963 850 2963 1131 
Q 2963 1406 2770 1568 
Q 2578 1731 2163 1806 
z
" id="DejaVuSans-24" transform="scale(0.015625)"/>
        <path d="M 3328 2828 
Q 3544 3216 3844 3400 
Q 4144 3584 4550 3584 
Q 5097 3584 5394 3201 
Q 5691 2819 5691 2113 
L 5691 0 
L 5113 0 
L 5113 2094 
Q 5113 2597 4934 2840 
Q 4756 3084 4391 3084 
Q 3944 3084 3684 2787 
Q 3425 2491 3425 1978 
L 3425 0 
L 2847 0 
L 2847 2094 
Q 2847 2600 2669 2842 
Q 2491 3084 2119 3084 
Q 1678 3084 1418 2786 
Q 1159 2488 1159 1978 
L 1159 0 
L 581 0 
L 581 3500 
L 1159 3500 
L 1159 2956 
Q 1356 3278 1631 3431 
Q 1906 3584 2284 3584 
Q 2666 3584 2933 3390 
Q 3200 3197 3328 2828 
z
" id="DejaVuSans-6d" transform="scale(0.015625)"/>
       </defs>
       <use xlink:href="#DejaVuSans-24"/>
       <use x="63.623047" xlink:href="#DejaVuSans-31"/>
       <use x="127.246094" xlink:href="#DejaVuSans-30"/>
       <use x="190.869141" xlink:href="#DejaVuSans-30"/>
       <use x="254.492188" xlink:href="#DejaVuSans-6d"/>
      </g>
     </g>
    </g>
    <g id="ytick_2">
     <g id="line2d_9">
      <g>
       <use style="stroke:#000000;stroke-width:0.8;" x="57.6" xlink:href="#m7eba591fa1" y="243.925961"/>
      </g>
     </g>
     <g id="text_10">
      <!-- $1 -->
      <g transform="translate(37.875 247.72518)scale(0.1 -0.1)">
       <use xlink:href="#DejaVuSans-24"/>
       <use x="63.623047" xlink:href="#DejaVuSans-31"/>
      </g>
     </g>
    </g>
    <g id="ytick_3">
     <g id="line2d_10">
      <g>
       <use style="stroke:#000000;stroke-width:0.8;" x="57.6" xlink:href="#m7eba591fa1" y="204.294255"/>
      </g>
     </g>
     <g id="text_11">
      <!-- $10 -->
      <g transform="translate(31.5125 208.093474)scale(0.1 -0.1)">
       <use xlink:href="#DejaVuSans-24"/>
       <use x="63.623047" xlink:href="#DejaVuSans-31"/>
       <use x="127.246094" xlink:href="#DejaVuSans-30"/>
      </g>
     </g>
    </g>
    <g id="ytick_4">
     <g id="line2d_11">
      <g>
       <use style="stroke:#000000;stroke-width:0.8;" x="57.6" xlink:href="#m7eba591fa1" y="164.662549"/>
      </g>
     </g>
     <g id="text_12">
      <!-- $100 -->
      <g transform="translate(25.15 168.461768)scale(0.1 -0.1)">
       <use xlink:href="#DejaVuSans-24"/>
       <use x="63.623047" xlink:href="#DejaVuSans-31"/>
       <use x="127.246094" xlink:href="#DejaVuSans-30"/>
       <use x="190.869141" xlink:href="#DejaVuSans-30"/>
      </g>
     </g>
    </g>
    <g id="ytick_5">
     <g id="line2d_12">
      <g>
       <use style="stroke:#000000;stroke-width:0.8;" x="57.6" xlink:href="#m7eba591fa1" y="125.030843"/>
      </g>
     </g>
     <g id="text_13">
      <!-- $1k -->
      <g transform="translate(32.084375 128.830061)scale(0.1 -0.1)">
       <defs>
        <path d="M 581 4863 
L 1159 4863 
L 1159 1991 
L 2875 3500 
L 3609 3500 
L 1753 1863 
L 3688 0 
L 2938 0 
L 1159 1709 
L 1159 0 
L 581 0 
L 581 4863 
z
" id="DejaVuSans-6b" transform="scale(0.015625)"/>
       </defs>
       <use xlink:href="#DejaVuSans-24"/>
       <use x="63.623047" xlink:href="#DejaVuSans-31"/>
       <use x="127.246094" xlink:href="#DejaVuSans-6b"/>
      </g>
     </g>
    </g>
    <g id="ytick_6">
     <g id="line2d_13">
      <g>
       <use style="stroke:#000000;stroke-width:0.8;" x="57.6" xlink:href="#m7eba591fa1" y="85.399136"/>
      </g>
     </g>
     <g id="text_14">
      <!-- $10k -->
      <g transform="translate(25.721875 89.198355)scale(0.1 -0.1)">
       <use xlink:href="#DejaVuSans-24"/>
       <use x="63.623047" xlink:href="#DejaVuSans-31"/>
       <use x="127.246094" xlink:href="#DejaVuSans-30"/>
       <use x="190.869141" xlink:href="#DejaVuSans-6b"/>
      </g>
     </g>
    </g>
    <g id="ytick_7">
     <g id="line2d_14">
      <g>
       <use style="stroke:#000000;stroke-width:0.8;" x="57.6" xlink:href="#m7eba591fa1" y="45.76743"/>
      </g>
     </g>
     <g id="text_15">
      <!-- $100k -->
      <g transform="translate(19.359375 49.566649)scale(0.1 -0.1)">
       <use xlink:href="#DejaVuSans-24"/>
       <use x="63.623047" xlink:href="#DejaVuSans-31"/>
       <use x="127.246094" xlink:href="#DejaVuSans-30"/>
       <use x="190.869141" xlink:href="#DejaVuSans-30"/>
       <use x="254.492188" xlink:href="#DejaVuSans-6b"/>
      </g>
     </g>
    </g>
    <g id="ytick_8">
     <g id="line2d_15">
      <defs>
       <path d="M 0 0 
L -2 0 
" id="m4bea69374c" style="stroke:#000000;stroke-width:0.6;"/>
      </defs>
      <g>
       <use style="stroke:#000000;stroke-width:0.6;" x="57.6" xlink:href="#m4bea69374c" y="304.280244"/>
      </g>
     </g>
    </g>
    <g id="ytick_9">
     <g id="line2d_16">
      <g>
       <use style="stroke:#000000;stroke-width:0.6;" x="57.6" xlink:href="#m4bea69374c" y="299.328709"/>
      </g>
     </g>
    </g>
    <g id="ytick_10">
     <g id="line2d_17">
      <g>
       <use style="stroke:#000000;stroke-width:0.6;" x="57.6" xlink:href="#m4bea69374c" y="295.488"/>
      </g>
     </g>
    </g>
    <g id="ytick_11">
     <g id="line2d_18">
      <g>
       <use style="stroke:#000000;stroke-width:0.6;" x="57.6" xlink:href="#m4bea69374c" y="292.349912"/>
      </g>
     </g>
    </g>
    <g id="ytick_12">
     <g id="line2d_19">
      <g>
       <use style="stroke:#000000;stroke-width:0.6;" x="57.6" xlink:href="#m4bea69374c" y="289.696697"/>
      </g>
     </g>
    </g>
    <g id="ytick_13">
     <g id="line2d_20">
      <g>
       <use style="stroke:#000000;stroke-width:0.6;" x="57.6" xlink:href="#m4bea69374c" y="287.398377"/>
      </g>
     </g>
    </g>
    <g id="ytick_14">
     <g id="line2d_21">
      <g>
       <use style="stroke:#000000;stroke-width:0.6;" x="57.6" xlink:href="#m4bea69374c" y="285.371115"/>
      </g>
     </g>
    </g>
    <g id="ytick_15">
     <g id="line2d_22">
      <g>
       <use style="stroke:#000000;stroke-width:0.6;" x="57.6" xlink:href="#m4bea69374c" y="271.627335"/>
      </g>
     </g>
    </g>
    <g id="ytick_16">
     <g id="line2d_23">
      <g>
       <use style="stroke:#000000;stroke-width:0.6;" x="57.6" xlink:href="#m4bea69374c" y="264.648538"/>
      </g>
     </g>
    </g>
    <g id="ytick_17">
     <g id="line2d_24">
      <g>
       <use style="stroke:#000000;stroke-width:0.6;" x="57.6" xlink:href="#m4bea69374c" y="259.697003"/>
      </g>
     </g>
    </g>
    <g id="ytick_18">
     <g id="line2d_25">
      <g>
       <use style="stroke:#000000;stroke-width:0.6;" x="57.6" xlink:href="#m4bea69374c" y="255.856294"/>
      </g>
     </g>
    </g>
    <g id="ytick_19">
     <g id="line2d_26">
      <g>
       <use style="stroke:#000000;stroke-width:0.6;" x="57.6" xlink:href="#m4bea69374c" y="252.718206"/>
      </g>
     </g>
    </g>
    <g id="ytick_20">
     <g id="line2d_27">
      <g>
       <use style="stroke:#000000;stroke-width:0.6;" x="57.6" xlink:href="#m4bea69374c" y="250.06499"/>
      </g>
     </g>
    </g>
    <g id="ytick_21">
     <g id="line2d_28">
      <g>
       <use style="stroke:#000000;stroke-width:0.6;" x="57.6" xlink:href="#m4bea69374c" y="247.766671"/>
      </g>
     </g>
    </g>
    <g id="ytick_22">
     <g id="line2d_29">
      <g>
       <use style="stroke:#000000;stroke-width:0.6;" x="57.6" xlink:href="#m4bea69374c" y="245.739409"/>
      </g>
     </g>
    </g>
    <g id="ytick_23">
     <g id="line2d_30">
      <g>
       <use style="stroke:#000000;stroke-width:0.6;" x="57.6" xlink:href="#m4bea69374c" y="231.995629"/>
      </g>
     </g>
    </g>
    <g id="ytick_24">
     <g id="line2d_31">
      <g>
       <use style="stroke:#000000;stroke-width:0.6;" x="57.6" xlink:href="#m4bea69374c" y="225.016832"/>
      </g>
     </g>
    </g>
    <g id="ytick_25">
     <g id="line2d_32">
      <g>
       <use style="stroke:#000000;stroke-width:0.6;" x="57.6" xlink:href="#m4bea69374c" y="220.065297"/>
      </g>
     </g>
    </g>
    <g id="ytick_26">
     <g id="line2d_33">
      <g>
       <use style="stroke:#000000;stroke-width:0.6;" x="57.6" xlink:href="#m4bea69374c" y="216.224587"/>
      </g>
     </g>
    </g>
    <g id="ytick_27">
     <g id="line2d_34">
      <g>
       <use style="stroke:#000000;stroke-width:0.6;" x="57.6" xlink:href="#m4bea69374c" y="213.0865"/>
      </g>
     </g>
    </g>
    <g id="ytick_28">
     <g id="line2d_35">
      <g>
       <use style="stroke:#000000;stroke-width:0.6;" x="57.6" xlink:href="#m4bea69374c" y="210.433284"/>
      </g>
     </g>
    </g>
    <g id="ytick_29">
     <g id="line2d_36">
      <g>
       <use style="stroke:#000000;stroke-width:0.6;" x="57.6" xlink:href="#m4bea69374c" y="208.134964"/>
      </g>
     </g>
    </g>
    <g id="ytick_30">
     <g id="line2d_37">
      <g>
       <use style="stroke:#000000;stroke-width:0.6;" x="57.6" xlink:href="#m4bea69374c" y="206.107703"/>
      </g>
     </g>
    </g>
    <g id="ytick_31">
     <g id="line2d_38">
      <g>
       <use style="stroke:#000000;stroke-width:0.6;" x="57.6" xlink:href="#m4bea69374c" y="192.363923"/>
      </g>
     </g>
    </g>
    <g id="ytick_32">
     <g id="line2d_39">
      <g>
       <use style="stroke:#000000;stroke-width:0.6;" x="57.6" xlink:href="#m4bea69374c" y="185.385126"/>
      </g>
     </g>
    </g>
    <g id="ytick_33">
     <g id="line2d_40">
      <g>
       <use style="stroke:#000000;stroke-width:0.6;" x="57.6" xlink:href="#m4bea69374c" y="180.43359"/>
      </g>
     </g>
    </g>
    <g id="ytick_34">
     <g id="line2d_41">
      <g>
       <use style="stroke:#000000;stroke-width:0.6;" x="57.6" xlink:href="#m4bea69374c" y="176.592881"/>
      </g>
     </g>
    </g>
    <g id="ytick_35">
     <g id="line2d_42">
      <g>
       <use style="stroke:#000000;stroke-width:0.6;" x="57.6" xlink:href="#m4bea69374c" y="173.454793"/>
      </g>
     </g>
    </g>
    <g id="ytick_36">
     <g id="line2d_43">
      <g>
       <use style="stroke:#000000;stroke-width:0.6;" x="57.6" xlink:href="#m4bea69374c" y="170.801578"/>
      </g>
     </g>
    </g>
    <g id="ytick_37">
     <g id="line2d_44">
      <g>
       <use style="stroke:#000000;stroke-width:0.6;" x="57.6" xlink:href="#m4bea69374c" y="168.503258"/>
      </g>
     </g>
    </g>
    <g id="ytick_38">
     <g id="line2d_45">
      <g>
       <use style="stroke:#000000;stroke-width:0.6;" x="57.6" xlink:href="#m4bea69374c" y="166.475996"/>
      </g>
     </g>
    </g>
    <g id="ytick_39">
     <g id="line2d_46">
      <g>
       <use style="stroke:#000000;stroke-width:0.6;" x="57.6" xlink:href="#m4bea69374c" y="152.732216"/>
      </g>
     </g>
    </g>
    <g id="ytick_40">
     <g id="line2d_47">
      <g>
       <use style="stroke:#000000;stroke-width:0.6;" x="57.6" xlink:href="#m4bea69374c" y="145.753419"/>
      </g>
     </g>
    </g>
    <g id="ytick_41">
     <g id="line2d_48">
      <g>
       <use style="stroke:#000000;stroke-width:0.6;" x="57.6" xlink:href="#m4bea69374c" y="140.801884"/>
      </g>
     </g>
    </g>
    <g id="ytick_42">
     <g id="line2d_49">
      <g>
       <use style="stroke:#000000;stroke-width:0.6;" x="57.6" xlink:href="#m4bea69374c" y="136.961175"/>
      </g>
     </g>
    </g>
    <g id="ytick_43">
     <g id="line2d_50">
      <g>
       <use style="stroke:#000000;stroke-width:0.6;" x="57.6" xlink:href="#m4bea69374c" y="133.823087"/>
      </g>
     </g>
    </g>
    <g id="ytick_44">
     <g id="line2d_51">
      <g>
       <use style="stroke:#000000;stroke-width:0.6;" x="57.6" xlink:href="#m4bea69374c" y="131.169872"/>
      </g>
     </g>
    </g>
    <g id="ytick_45">
     <g id="line2d_52">
      <g>
       <use style="stroke:#000000;stroke-width:0.6;" x="57.6" xlink:href="#m4bea69374c" y="128.871552"/>
      </g>
     </g>
    </g>
    <g id="ytick_46">
     <g id="line2d_53">
      <g>
       <use style="stroke:#000000;stroke-width:0.6;" x="57.6" xlink:href="#m4bea69374c" y="126.84429"/>
      </g>
     </g>
    </g>
    <g id="ytick_47">
     <g id="line2d_54">
      <g>
       <use style="stroke:#000000;stroke-width:0.6;" x="57.6" xlink:href="#m4bea69374c" y="113.10051"/>
      </g>
     </g>
    </g>
    <g id="ytick_48">
     <g id="line2d_55">
      <g>
       <use style="stroke:#000000;stroke-width:0.6;" x="57.6" xlink:href="#m4bea69374c" y="106.121713"/>
      </g>
     </g>
    </g>
    <g id="ytick_49">
     <g id="line2d_56">
      <g>
       <use style="stroke:#000000;stroke-width:0.6;" x="57.6" xlink:href="#m4bea69374c" y="101.170178"/>
      </g>
     </g>
    </g>
    <g id="ytick_50">
     <g id="line2d_57">
      <g>
       <use style="stroke:#000000;stroke-width:0.6;" x="57.6" xlink:href="#m4bea69374c" y="97.329469"/>
      </g>
     </g>
    </g>
    <g id="ytick_51">
     <g id="line2d_58">
      <g>
       <use style="stroke:#000000;stroke-width:0.6;" x="57.6" xlink:href="#m4bea69374c" y="94.191381"/>
      </g>
     </g>
    </g>
    <g id="ytick_52">
     <g id="line2d_59">
      <g>
       <use style="stroke:#000000;stroke-width:0.6;" x="57.6" xlink:href="#m4bea69374c" y="91.538165"/>
      </g>
     </g>
    </g>
    <g id="ytick_53">
     <g id="line2d_60">
      <g>
       <use style="stroke:#000000;stroke-width:0.6;" x="57.6" xlink:href="#m4bea69374c" y="89.239845"/>
      </g>
     </g>
    </g>
    <g id="ytick_54">
     <g id="line2d_61">
      <g>
       <use style="stroke:#000000;stroke-width:0.6;" x="57.6" xlink:href="#m4bea69374c" y="87.212584"/>
      </g>
     </g>
    </g>
    <g id="ytick_55">
     <g id="line2d_62">
      <g>
       <use style="stroke:#000000;stroke-width:0.6;" x="57.6" xlink:href="#m4bea69374c" y="73.468804"/>
      </g>
     </g>
    </g>
    <g id="ytick_56">
     <g id="line2d_63">
      <g>
       <use style="stroke:#000000;stroke-width:0.6;" x="57.6" xlink:href="#m4bea69374c" y="66.490007"/>
      </g>
     </g>
    </g>
    <g id="ytick_57">
     <g id="line2d_64">
      <g>
       <use style="stroke:#000000;stroke-width:0.6;" x="57.6" xlink:href="#m4bea69374c" y="61.538472"/>
      </g>
     </g>
    </g>
    <g id="ytick_58">
     <g id="line2d_65">
      <g>
       <use style="stroke:#000000;stroke-width:0.6;" x="57.6" xlink:href="#m4bea69374c" y="57.697762"/>
      </g>
     </g>
    </g>
    <g id="ytick_59">
     <g id="line2d_66">
      <g>
       <use style="stroke:#000000;stroke-width:0.6;" x="57.6" xlink:href="#m4bea69374c" y="54.559675"/>
      </g>
     </g>
    </g>
    <g id="ytick_60">
     <g id="line2d_67">
      <g>
       <use style="stroke:#000000;stroke-width:0.6;" x="57.6" xlink:href="#m4bea69374c" y="51.906459"/>
      </g>
     </g>
    </g>
    <g id="ytick_61">
     <g id="line2d_68">
      <g>
       <use style="stroke:#000000;stroke-width:0.6;" x="57.6" xlink:href="#m4bea69374c" y="49.608139"/>
      </g>
     </g>
    </g>
    <g id="ytick_62">
     <g id="line2d_69">
      <g>
       <use style="stroke:#000000;stroke-width:0.6;" x="57.6" xlink:href="#m4bea69374c" y="47.580877"/>
      </g>
     </g>
    </g>
    <g id="text_16">
     <!-- price -->
     <g transform="translate(9.329687 186.972531)rotate(-90)scale(0.1 -0.1)">
      <defs>
       <path d="M 1159 525 
L 1159 -1331 
L 581 -1331 
L 581 3500 
L 1159 3500 
L 1159 2969 
Q 1341 3281 1617 3432 
Q 1894 3584 2278 3584 
Q 2916 3584 3314 3078 
Q 3713 2572 3713 1747 
Q 3713 922 3314 415 
Q 2916 -91 2278 -91 
Q 1894 -91 1617 61 
Q 1341 213 1159 525 
z
M 3116 1747 
Q 3116 2381 2855 2742 
Q 2594 3103 2138 3103 
Q 1681 3103 1420 2742 
Q 1159 2381 1159 1747 
Q 1159 1113 1420 752 
Q 1681 391 2138 391 
Q 2594 391 2855 752 
Q 3116 1113 3116 1747 
z
" id="DejaVuSans-70" transform="scale(0.015625)"/>
       <path d="M 603 3500 
L 1178 3500 
L 1178 0 
L 603 0 
L 603 3500 
z
M 603 4863 
L 1178 4863 
L 1178 4134 
L 603 4134 
L 603 4863 
z
" id="DejaVuSans-69" transform="scale(0.015625)"/>
       <path d="M 3122 3366 
L 3122 2828 
Q 2878 2963 2633 3030 
Q 2388 3097 2138 3097 
Q 1578 3097 1268 2742 
Q 959 2388 959 1747 
Q 959 1106 1268 751 
Q 1578 397 2138 397 
Q 2388 397 2633 464 
Q 2878 531 3122 666 
L 3122 134 
Q 2881 22 2623 -34 
Q 2366 -91 2075 -91 
Q 1284 -91 818 406 
Q 353 903 353 1747 
Q 353 2603 823 3093 
Q 1294 3584 2113 3584 
Q 2378 3584 2631 3529 
Q 2884 3475 3122 3366 
z
" id="DejaVuSans-63" transform="scale(0.015625)"/>
      </defs>
      <use xlink:href="#DejaVuSans-70"/>
      <use x="63.476562" xlink:href="#DejaVuSans-72"/>
      <use x="104.589844" xlink:href="#DejaVuSans-69"/>
      <use x="132.373047" xlink:href="#DejaVuSans-63"/>
      <use x="187.353516" xlink:href="#DejaVuSans-65"/>
     </g>
    </g>
   </g>
   <g id="line2d_70">
    <path clip-path="url(#p2e289b5d41)" d="M 73.832727 295.488 
L 73.913709 285.371115 
L 73.99469 287.398377 
L 74.075672 289.696697 
L 74.156653 287.398377 
L 74.237634 295.488 
L 74.318616 292.349912 
L 74.480579 295.488 
L 74.642542 292.349912 
L 74.723523 292.349912 
L 74.804504 289.696697 
L 74.885486 292.349912 
L 74.966467 289.696697 
L 75.081191 292.349912 
L 75.56708 292.349912 
L 75.729042 289.696697 
L 75.891005 289.696697 
L 75.971987 292.349912 
L 76.13395 289.696697 
L 76.70082 289.696697 
L 76.781801 292.349912 
L 76.862782 289.696697 
L 77.024745 292.349912 
L 77.105727 289.696697 
L 77.26769 292.349912 
L 80.331487 292.349912 
L 80.655413 283.557668 
L 80.736394 283.557668 
L 80.817375 285.371115 
L 80.979338 283.557668 
L 81.465227 283.557668 
L 81.546208 281.917205 
L 81.62719 283.557668 
L 81.951115 276.578871 
L 82.032097 272.510187 
L 82.113078 274.424584 
L 82.275041 271.627335 
L 82.356023 272.510187 
L 82.389765 271.627335 
L 82.551728 272.510187 
L 82.794672 260.132769 
L 82.875653 262.494251 
L 83.037616 270.787567 
L 83.118598 268.489247 
L 83.199579 269.986873 
L 83.361542 265.836032 
L 83.442523 265.836032 
L 83.523505 266.461986 
L 83.604486 269.986873 
L 83.685468 269.221776 
L 83.847431 265.836032 
L 84.009393 265.836032 
L 84.090375 265.232046 
L 84.252338 265.836032 
L 84.495282 265.836032 
L 84.576263 266.461986 
L 84.738226 270.787567 
L 84.933931 267.111566 
L 85.014913 267.786626 
L 85.176876 272.510187 
L 85.257857 271.627335 
L 85.41982 268.489247 
L 85.581783 271.627335 
L 85.662764 269.221776 
L 85.743746 269.986873 
L 86.067671 267.786626 
L 86.229634 268.489247 
L 86.310616 268.489247 
L 86.391597 266.461986 
L 86.472579 268.489247 
L 86.55356 267.786626 
L 86.796504 267.786626 
L 86.958467 266.461986 
L 87.282393 264.648538 
L 87.397116 264.648538 
L 87.478098 265.232046 
L 87.640061 264.648538 
L 87.721042 264.648538 
L 87.883005 263.537712 
L 87.963986 263.537712 
L 88.125949 263.008075 
L 88.287912 263.537712 
L 88.368894 259.697003 
L 88.449875 260.132769 
L 88.530856 260.132769 
L 88.773801 264.084165 
L 88.935764 258.857235 
L 89.097726 258.05654 
L 89.259689 259.271998 
L 89.502634 257.669741 
L 89.583615 258.05654 
L 89.745578 255.181233 
L 89.860302 249.580118 
L 89.941283 250.312647 
L 90.103246 245.361112 
L 90.184227 245.739409 
L 90.265209 245.931722 
L 90.34619 245.361112 
L 90.427172 242.442685 
L 90.508153 244.273687 
L 90.670116 242.601321 
L 90.751097 243.086193 
L 90.832079 242.761432 
L 90.994042 243.250901 
L 91.075023 243.250901 
L 91.156004 245.739409 
L 91.236986 244.808813 
L 91.398949 247.133035 
L 91.641893 243.925961 
L 91.722874 245.549221 
L 91.803856 244.628583 
L 91.965819 246.5219 
L 92.404468 244.99095 
L 92.48545 245.739409 
L 92.566431 245.549221 
L 92.890357 246.5219 
L 92.971338 245.175036 
L 93.05232 246.126208 
L 93.133301 245.361112 
L 93.376245 246.322917 
L 93.457227 246.5219 
L 93.781152 249.108531 
L 93.943115 247.552856 
L 94.18606 246.126208 
L 94.70569 248.424528 
L 94.867653 248.202436 
L 94.948635 250.563919 
L 95.029616 249.820847 
L 95.191579 248.877497 
L 95.27256 248.877497 
L 95.353542 249.34271 
L 95.434523 249.108531 
L 95.515505 248.424528 
L 95.758449 243.925961 
L 95.83943 244.098946 
L 96.163356 240.787873 
L 96.244338 241.670725 
L 96.325319 240.645036 
L 96.487282 234.792877 
L 96.568263 235.516605 
L 96.649245 236.272104 
L 97.054152 222.363616 
L 97.168875 224.845569 
L 97.41182 222.811996 
L 97.492801 223.220605 
L 97.735745 220.633973 
L 97.816727 220.948148 
L 97.897708 213.640357 
L 97.97869 214.584125 
L 98.140653 207.709959 
L 98.221634 209.948412 
L 98.302615 210.45789 
L 98.383597 208.070541 
L 98.54556 210.730902 
L 98.626541 210.932213 
L 98.707523 214.304756 
L 99.193411 206.494502 
L 99.355374 207.501328 
L 99.436355 207.233835 
L 99.632061 205.050748 
L 99.713042 203.29134 
L 99.875005 193.346711 
L 99.955986 195.467621 
L 100.036968 193.659328 
L 100.198931 185.61616 
L 100.279912 186.01618 
L 100.360893 189.26173 
L 100.441875 197.721827 
L 100.603838 192.502171 
L 100.684819 192.994977 
L 100.765801 192.808517 
L 100.927763 196.552358 
L 101.089726 194.65241 
L 101.575615 194.65241 
L 101.656596 195.727232 
L 101.737578 195.416166 
L 101.818559 195.211869 
L 101.899541 195.313714 
L 102.095246 196.862489 
L 102.257209 196.817841 
L 102.419171 199.898059 
L 102.581134 197.569768 
L 102.662116 198.125991 
L 102.743097 198.042001 
L 102.824079 197.430588 
L 102.986041 198.490662 
L 103.309967 198.850677 
L 103.390949 199.567941 
L 103.552911 198.688359 
L 103.633893 198.888354 
L 103.714874 198.989229 
L 104.0388 198.44159 
L 104.362726 199.128905 
L 104.443707 199.090699 
L 104.558431 199.659737 
L 104.639412 201.0846 
L 104.720394 205.617519 
L 104.801375 203.049484 
L 104.882357 204.641981 
L 104.963338 211.576926 
L 105.206282 204.311476 
L 105.287264 204.328713 
L 105.449227 205.249731 
L 105.692171 202.420671 
L 105.935115 202.92187 
L 106.016097 201.665646 
L 106.097078 201.963693 
L 106.178059 202.175441 
L 106.259041 202.810979 
L 106.340022 202.747932 
L 106.421004 202.890114 
L 106.582967 207.751991 
L 106.663948 206.910219 
L 106.744929 205.974351 
L 106.825911 206.165171 
L 106.906892 206.514072 
L 106.987874 207.709959 
L 107.021616 207.688982 
L 107.102597 206.810324 
L 107.183579 207.13205 
L 107.345542 208.995184 
L 107.426523 210.78101 
L 107.507504 209.972334 
L 107.588486 211.629562 
L 107.750449 217.03512 
L 107.912412 212.858525 
L 108.074374 214.212632 
L 108.236337 216.855642 
L 108.317319 217.03512 
L 108.560263 212.773807 
L 108.722226 214.80459 
L 108.803207 214.459401 
L 108.96517 215.124522 
L 109.046152 216.678016 
L 109.127133 216.502204 
L 109.208114 217.03512 
L 109.289096 216.999075 
L 109.370077 215.74928 
L 109.565782 216.121625 
L 109.646764 216.155877 
L 109.808727 216.678016 
L 109.889708 217.180063 
L 110.051671 220.022321 
L 110.213634 219.640292 
L 110.294615 220.36917 
L 110.375597 219.431661 
L 110.618541 220.767918 
L 110.699522 222.071057 
L 110.861485 228.714704 
L 110.942467 229.816049 
L 111.023448 229.219909 
L 111.266392 224.068128 
L 111.347374 227.88171 
L 111.752281 221.974632 
L 111.947986 224.177064 
L 112.028968 223.63915 
L 112.352893 225.247867 
L 112.514856 224.788857 
L 112.676819 225.960182 
L 112.7578 224.563863 
L 112.838782 224.845569 
L 112.919763 225.016832 
L 113.000745 230.199402 
L 113.081726 229.367019 
L 113.162708 227.746715 
L 113.32467 231.570624 
L 113.486633 230.355166 
L 113.648596 229.367019 
L 113.729578 229.367019 
L 113.89154 228.08621 
L 113.972522 228.362711 
L 114.053503 228.293168 
L 114.134485 227.81408 
L 114.411171 224.675992 
L 114.492153 224.341772 
L 114.573134 226.265906 
L 114.654116 226.020894 
L 114.735097 225.719453 
L 114.816078 224.845569 
L 114.89706 225.074301 
L 115.059023 225.189817 
L 115.382948 223.63915 
L 115.46393 224.177064 
L 115.625893 223.906006 
L 115.787856 223.959877 
L 115.949818 220.281801 
L 116.0308 220.545252 
L 116.111781 220.545252 
L 116.192763 220.281801 
L 116.273744 220.32543 
L 116.354726 219.143762 
L 116.435707 219.979452 
L 116.516688 219.766695 
L 116.59767 219.266558 
L 116.678651 219.348911 
L 116.759633 219.021836 
L 116.874356 215.319375 
L 116.955338 215.483455 
L 117.036319 216.642709 
L 117.198282 210.556667 
L 117.279263 211.187207 
L 117.360245 210.90692 
L 117.441226 210.164916 
L 117.522208 212.164965 
L 117.603189 212.083585 
L 117.684171 210.680941 
L 117.765152 210.932213 
L 117.846133 211.948801 
L 118.008096 210.433284 
L 118.089078 211.238663 
L 118.170059 214.273993 
L 118.251041 213.317534 
L 118.413003 211.735318 
L 118.493985 212.577738 
L 118.655948 212.083585 
L 118.736929 212.274074 
L 118.979873 215.254179 
L 119.060855 214.182033 
L 119.141836 214.963813 
L 119.222818 214.615447 
L 119.303799 214.646827 
L 119.418523 212.802 
L 119.742449 214.741312 
L 119.82343 213.999574 
L 119.904411 214.273993 
L 120.066374 213.346633 
L 120.552263 218.941029 
L 120.633244 218.38576 
L 120.714226 219.143762 
L 120.795207 218.463996 
L 120.876189 218.582021 
L 120.95717 218.941029 
L 121.038151 218.346776 
L 121.200114 216.121625 
L 121.281096 217.03512 
L 121.443059 216.362836 
L 121.605021 216.713394 
L 121.800727 216.502204 
L 121.962689 217.622361 
L 122.205634 216.259046 
L 122.529559 216.81997 
L 122.610541 216.537223 
L 122.691522 216.607475 
L 122.853485 214.963813 
L 123.096429 215.483455 
L 123.177411 215.286746 
L 123.258392 217.326236 
L 123.339374 216.784371 
L 123.420355 216.855642 
L 123.582318 217.326236 
L 123.663299 217.362975 
L 123.744281 217.847847 
L 123.825262 217.585066 
L 123.906244 216.891388 
L 123.987225 216.963104 
L 124.149188 216.713394 
L 124.230169 216.537223 
L 124.263912 216.81997 
L 124.344893 216.32817 
L 124.425875 216.397572 
L 124.587837 216.502204 
L 124.668819 216.397572 
L 124.7498 217.326236 
L 124.911763 216.678016 
L 124.992745 216.784371 
L 125.073726 216.467256 
L 125.154707 216.502204 
L 125.397652 216.32817 
L 125.478633 216.467256 
L 125.559615 216.293573 
L 125.802559 215.060058 
L 125.964522 215.549527 
L 126.045503 216.362836 
L 126.207466 215.782799 
L 126.369429 215.850032 
L 126.531392 216.572313 
L 126.88906 215.782799 
L 126.970041 215.985293 
L 127.051022 215.951378 
L 127.212985 216.019275 
L 127.374948 216.087441 
L 127.45593 216.748846 
L 127.536911 216.362836 
L 127.617892 216.397572 
L 127.698874 216.467256 
L 127.941818 215.91753 
L 128.184762 215.883748 
L 128.427707 215.883748 
L 128.508688 215.74928 
L 128.58967 215.816383 
L 128.670651 215.74928 
L 128.751632 215.883748 
L 128.913595 215.74928 
L 129.15654 215.615854 
L 129.190282 215.286746 
L 129.271263 215.384819 
L 129.352245 215.516459 
L 129.433226 215.319375 
L 129.67617 214.304756 
L 129.757152 214.182033 
L 129.919115 214.678264 
L 130.24304 213.230532 
L 130.324022 211.708818 
L 130.405003 211.975673 
L 130.485985 212.633531 
L 130.80991 211.238663 
L 131.133836 212.246732 
L 131.457762 211.316136 
L 131.538743 211.212916 
L 131.653467 211.367979 
L 131.734448 211.033758 
L 131.81543 211.841729 
L 131.896411 211.682359 
L 131.977393 211.264448 
L 132.058374 211.316136 
L 132.3823 209.948412 
L 132.463281 210.068355 
L 132.544263 208.659223 
L 132.625244 208.860011 
L 132.706226 209.154238 
L 132.787207 208.972581 
L 133.030151 205.898611 
L 133.192114 207.051053 
L 133.273096 206.396984 
L 133.354077 207.274718 
L 133.435058 207.193049 
L 133.758984 206.300016 
L 133.839966 206.319366 
L 133.920947 206.671438 
L 134.359596 202.685115 
L 134.440578 202.858416 
L 134.521559 202.874258 
L 134.602541 202.498028 
L 134.683522 202.560165 
L 134.764504 202.560165 
L 135.088429 201.09889 
L 135.169411 200.885782 
L 135.331374 199.128905 
L 135.574318 208.134964 
L 135.655299 204.122992 
L 135.736281 204.449863 
L 135.817262 204.624427 
L 136.222169 202.732206 
L 136.384132 202.779427 
L 136.465113 203.001518 
L 136.579837 204.363241 
L 136.984744 202.374424 
L 137.065726 202.653792 
L 137.146707 202.591317 
L 137.227689 202.622527 
L 137.470633 202.099517 
L 137.551614 202.039019 
L 137.794559 201.343646 
L 137.87554 201.31467 
L 138.037503 200.357429 
L 138.118484 200.759172 
L 138.199466 200.633486 
L 138.44241 201.01333 
L 138.766336 200.60568 
L 138.928299 200.591794 
L 139.043022 200.591794 
L 139.204985 199.924744 
L 139.285967 199.978238 
L 139.447929 200.439782 
L 139.609892 201.474646 
L 139.771855 200.984904 
L 139.852837 201.113191 
L 139.933818 201.156167 
L 140.095781 201.53319 
L 140.257744 201.372671 
L 140.338725 201.430868 
L 140.419707 201.242442 
L 140.581669 201.53319 
L 140.662651 201.695219 
L 140.743632 201.577228 
L 140.905595 201.665646 
L 141.067558 204.004113 
L 141.148539 203.852466 
L 141.229521 203.129726 
L 141.310502 203.29134 
L 141.472465 202.343661 
L 141.587189 203.503734 
L 141.749152 202.969615 
L 141.830133 203.049484 
L 141.992096 202.779427 
L 142.073077 202.763672 
L 142.154059 202.93777 
L 142.397003 202.638152 
L 142.558966 202.732206 
L 142.80191 201.460041 
L 142.882892 201.665646 
L 142.963873 201.445449 
L 143.125836 201.489263 
L 143.206817 200.564056 
L 143.287799 200.661337 
L 143.449762 200.481107 
L 143.611725 200.871668 
L 143.854669 200.357429 
L 144.050374 200.453546 
L 144.131355 200.207463 
L 144.212337 199.244035 
L 144.293318 199.282584 
L 144.3743 199.385803 
L 144.455281 199.128905 
L 144.536263 199.231205 
L 144.698225 199.218384 
L 144.94117 198.875786 
L 145.265095 199.450631 
L 145.346077 199.385803 
L 145.427058 199.00188 
L 145.50804 199.103425 
L 145.589021 199.128905 
L 145.750984 199.372867 
L 145.993928 199.167197 
L 146.236872 199.256875 
L 146.398835 199.116161 
L 146.513559 199.411705 
L 146.675522 199.128905 
L 146.837485 199.192771 
L 147.323373 198.210392 
L 147.404355 198.35605 
L 147.647299 197.628093 
L 147.809262 196.530418 
L 147.890243 196.618345 
L 147.971225 196.530418 
L 148.133188 194.899924 
L 148.214169 194.662243 
L 148.29515 195.262716 
L 148.895763 191.938918 
L 148.976744 192.685324 
L 149.057726 191.863519 
L 149.138707 191.99779 
L 149.219688 191.855162 
L 149.786558 188.406569 
L 149.86754 189.082997 
L 149.948521 187.058897 
L 150.029503 187.134943 
L 150.110484 187.058897 
L 150.191466 187.320122 
L 150.272447 187.230476 
L 150.43441 185.587111 
L 150.515391 185.529159 
L 150.596373 185.242288 
L 150.677354 185.500255 
L 150.758336 185.448352 
L 150.920298 184.76532 
L 151.00128 184.876365 
L 151.082261 183.547599 
L 151.358948 182.979567 
L 151.439929 183.104744 
L 151.520911 182.979567 
L 152.168762 177.152665 
L 152.249744 178.680058 
L 152.411706 177.595727 
L 152.573669 177.65787 
L 152.654651 177.512006 
L 152.978576 170.593836 
L 153.059558 170.833572 
L 153.140539 172.250096 
L 153.464465 166.683788 
L 153.545446 167.2225 
L 153.707409 166.06219 
L 153.788391 165.906072 
L 153.984096 159.497199 
L 154.065077 159.868358 
L 154.389003 153.843043 
L 154.469984 150.326658 
L 154.79391 165.911623 
L 154.874891 166.475996 
L 155.036854 171.209625 
L 155.279799 161.74387 
L 155.36078 160.600207 
L 155.441761 161.639591 
L 155.684706 157.208444 
L 155.92765 160.413635 
L 156.089613 158.386373 
L 156.170594 158.966172 
L 156.447281 164.99272 
L 156.609244 162.110937 
L 156.771207 163.084789 
L 157.014151 161.857557 
L 157.176114 162.283951 
L 157.257095 161.81666 
L 157.338077 162.804409 
L 157.581021 161.029631 
L 157.742984 161.169565 
L 157.823965 161.23714 
L 157.985928 160.987871 
L 158.066909 160.643761 
L 158.147891 159.741161 
L 158.228872 159.885302 
L 158.309854 159.689512 
L 158.471817 160.27969 
L 158.552798 159.851431 
L 158.714761 160.303723 
L 158.748503 160.239709 
L 158.910466 161.418647 
L 159.072429 161.254075 
L 159.15341 161.672834 
L 159.396355 164.586983 
L 159.558317 163.179273 
L 159.639299 163.214047 
L 159.882243 164.697007 
L 159.963225 164.679769 
L 160.044206 164.330149 
L 160.28715 162.821413 
L 160.611076 164.306529 
L 160.692057 164.098731 
L 160.773039 163.987489 
L 160.85402 164.365639 
L 160.935002 165.607111 
L 161.015983 165.5454 
L 161.096965 165.096549 
L 161.373651 168.743744 
L 161.454633 168.494654 
L 161.535614 171.174412 
L 161.616595 170.885382 
L 161.697577 169.273245 
L 161.778558 169.38611 
L 161.85954 169.228305 
L 162.021503 166.672178 
L 162.183465 164.954164 
L 162.264447 165.650805 
L 162.345428 164.854668 
L 162.42641 165.169073 
L 162.507391 164.922682 
L 162.588373 166.462615 
L 162.669354 166.097699 
L 162.750335 166.510454 
L 162.99328 165.444239 
L 163.074261 165.529102 
L 163.155243 165.195682 
L 163.317205 165.654451 
L 163.56015 163.344284 
L 163.674873 163.987489 
L 163.755855 163.904938 
L 164.07978 163.568943 
L 164.160762 163.661258 
L 164.322725 164.187241 
L 164.403706 164.153788 
L 164.727632 162.62611 
L 164.889595 163.180852 
L 165.294502 161.057527 
L 165.375483 161.239961 
L 165.456465 161.739512 
L 165.537446 161.58193 
L 165.618428 161.22445 
L 165.699409 161.514424 
L 165.78039 159.976827 
L 165.861372 160.311742 
L 165.942353 160.239709 
L 166.138058 158.147786 
L 166.300021 158.386373 
L 166.542966 161.254075 
L 166.623947 160.281024 
L 166.704928 160.641036 
L 166.947873 158.614985 
L 167.028854 158.951344 
L 167.109836 158.790295 
L 167.190817 159.280552 
L 167.35278 158.9427 
L 167.433761 158.976064 
L 167.514743 158.820913 
L 167.676706 159.649591 
L 167.838668 159.625169 
L 167.91965 159.70241 
L 168.405538 158.400722 
L 168.48652 158.639227 
L 168.601244 158.834402 
L 168.682225 161.099456 
L 168.844188 159.266708 
L 168.925169 159.281811 
L 169.006151 159.143865 
L 169.087132 159.395504 
L 169.168114 159.308272 
L 169.330076 158.820913 
L 169.411058 158.858956 
L 169.654002 157.527264 
L 169.734984 156.779628 
L 169.815965 157.363173 
L 169.977928 155.704495 
L 170.139891 153.97204 
L 170.301854 152.476804 
L 170.382835 150.479245 
L 170.625779 153.746012 
L 170.787742 152.148422 
L 170.868724 151.407576 
L 170.949705 152.057156 
L 171.064429 151.613593 
L 171.14541 151.754489 
L 171.469336 147.947147 
L 171.71228 142.246859 
L 171.793262 143.786441 
L 172.036206 139.364066 
L 172.117187 139.421555 
L 172.198169 139.400916 
L 172.360132 136.013557 
L 172.441113 129.187912 
L 172.603076 132.766941 
L 172.765039 128.828576 
L 172.84602 128.186151 
L 172.927002 128.979247 
L 173.007983 128.238123 
L 173.250927 123.3688 
L 173.331909 121.793642 
L 173.41289 121.811763 
L 173.527614 124.955448 
L 173.770558 121.362423 
L 173.851539 123.291306 
L 174.013502 131.243301 
L 174.256447 124.46003 
L 174.418409 126.844673 
L 174.499391 126.155076 
L 174.580372 126.674163 
L 174.661354 126.468238 
L 174.904298 135.605327 
L 174.985279 130.401675 
L 175.147242 132.699357 
L 175.228224 132.725982 
L 175.309205 130.847363 
L 175.390187 131.102386 
L 175.471168 130.992523 
L 175.633131 128.806056 
L 175.714112 129.709394 
L 176.233743 126.378473 
L 176.314725 124.778992 
L 176.395706 124.814479 
L 176.476687 127.233045 
L 176.557669 126.117085 
L 176.63865 126.151769 
L 176.800613 124.939518 
L 176.962576 126.411637 
L 177.043557 126.479468 
L 177.124539 126.073507 
L 177.286502 126.95634 
L 177.367483 126.735245 
L 177.529446 125.80623 
L 177.610427 125.693886 
L 177.853372 126.530658 
L 178.015335 124.91078 
L 178.177297 126.230389 
L 178.258279 126.360241 
L 178.33926 126.070399 
L 178.420242 126.116902 
L 178.453984 126.088143 
L 178.534965 125.853829 
L 178.77791 126.758065 
L 179.587724 142.094042 
L 179.749687 147.422133 
L 179.830668 146.104072 
L 179.91165 148.115459 
L 180.073613 162.779706 
L 180.235575 145.17961 
L 180.397538 159.398039 
L 180.559501 133.924072 
L 180.640483 134.587375 
L 180.917169 135.090988 
L 180.998151 135.4918 
L 181.079132 132.125867 
L 181.160113 132.134447 
L 181.241095 132.227015 
L 181.322076 132.491542 
L 181.484039 133.560893 
L 181.565021 133.064103 
L 181.726983 133.57559 
L 181.888946 133.119364 
L 181.969928 133.425251 
L 182.050909 133.147199 
L 182.131891 133.282605 
L 182.536798 135.333234 
L 182.617779 134.877703 
L 182.698761 135.284449 
L 182.779742 134.779775 
L 182.860723 134.921984 
L 182.941705 134.935443 
L 183.022686 138.379496 
L 183.103668 137.57046 
L 183.184649 137.767739 
L 183.346612 138.980091 
L 183.380354 138.267718 
L 183.461336 139.783956 
L 183.542317 139.306375 
L 183.947224 138.152603 
L 184.028206 138.496143 
L 184.109187 141.47629 
L 184.27115 139.253595 
L 184.352131 139.653448 
L 184.595076 135.734025 
L 184.757038 137.46699 
L 184.83802 136.755182 
L 184.919001 137.012543 
L 185.161946 137.404004 
L 185.242927 136.951195 
L 185.485871 139.037474 
L 185.566853 139.086479 
L 185.843539 138.391462 
L 186.167465 139.522324 
L 186.248446 139.469675 
L 186.329428 138.907088 
L 186.410409 139.118055 
L 186.572372 138.702103 
L 186.653354 139.428307 
L 186.734335 139.231585 
L 186.815316 139.400916 
L 187.058261 138.636337 
L 187.220224 138.769268 
L 187.301205 139.009534 
L 187.544149 136.440386 
L 187.706112 136.270896 
L 187.868075 134.34705 
L 187.949056 134.702919 
L 188.030038 134.680592 
L 188.111019 134.875264 
L 188.306724 132.450967 
L 188.468687 131.938444 
L 188.549669 132.741061 
L 188.63065 132.177931 
L 188.711632 132.434552 
L 188.792613 132.401241 
L 188.873594 132.417624 
L 188.954576 132.59567 
L 189.035557 132.297229 
L 189.116539 132.633107 
L 189.19752 133.905615 
L 189.278502 133.528715 
L 189.440464 134.338772 
L 189.602427 133.677689 
L 189.683409 133.64586 
L 189.845372 134.090503 
L 189.926353 133.908209 
L 190.007334 133.719554 
L 190.250279 134.752806 
L 190.412242 133.759235 
L 190.493223 133.893225 
L 190.574204 133.792706 
L 190.76991 132.626684 
L 190.850891 132.559114 
L 191.093835 133.176737 
L 191.174817 133.075086 
L 191.255798 133.437308 
L 191.33678 133.389129 
L 191.417761 133.175632 
L 191.498742 133.303468 
L 191.660705 132.822879 
L 191.984631 133.40368 
L 192.146594 133.052579 
L 192.227575 133.064378 
L 192.308557 133.23153 
L 192.389538 133.116886 
L 192.47052 133.188622 
L 192.551501 133.211862 
L 192.713464 133.80875 
L 193.03739 134.236213 
L 193.118371 134.868556 
L 193.233095 133.85812 
L 193.314076 134.062264 
L 193.395057 134.143319 
L 193.476039 134.031749 
L 193.638002 134.119079 
L 193.799965 133.942549 
L 194.12389 134.776743 
L 194.366835 137.083815 
L 194.447816 136.219713 
L 194.609779 138.314949 
L 194.852723 136.354435 
L 194.933705 136.41569 
L 195.014686 137.041224 
L 195.095667 136.630125 
L 195.176649 136.860608 
L 195.338612 136.444729 
L 195.581556 136.757223 
L 195.69628 137.764853 
L 195.777261 137.701848 
L 195.858243 137.662362 
L 195.939224 137.274161 
L 196.020205 137.53341 
L 196.101187 137.504253 
L 196.182168 137.458838 
L 196.344131 137.84765 
L 196.425113 137.674557 
L 196.506094 137.718027 
L 196.83002 137.746108 
L 196.991983 138.355589 
L 197.153945 140.902436 
L 197.234927 140.312769 
L 197.315908 140.732317 
L 197.39689 140.626787 
L 197.477871 139.284692 
L 197.96376 141.831662 
L 198.044741 141.318603 
L 198.240446 141.906286 
L 198.321428 142.45117 
L 198.483391 144.489446 
L 198.888298 142.533769 
L 198.969279 142.557101 
L 199.212223 140.927124 
L 199.293205 141.098314 
L 199.374186 141.695156 
L 199.455168 141.663008 
L 199.536149 141.198857 
L 199.617131 141.358112 
L 199.698112 141.66708 
L 199.779093 141.578622 
L 199.860075 141.733269 
L 200.022038 142.851213 
L 200.103019 143.262264 
L 200.184001 143.165733 
L 200.345963 143.048155 
L 200.426945 143.847963 
L 200.507926 143.354846 
L 200.588908 143.707299 
L 200.703631 144.50598 
L 200.865594 144.219687 
L 201.027557 143.215169 
L 201.108539 143.504727 
L 201.18952 143.420853 
L 201.351483 142.276836 
L 201.432464 142.358129 
L 201.513446 139.476048 
L 201.594427 139.608425 
L 201.75639 141.919137 
L 201.837371 141.432492 
L 201.918353 141.473606 
L 201.999334 141.722825 
L 202.080316 141.620086 
L 202.242279 143.013381 
L 202.32326 143.001642 
L 202.485223 141.736903 
L 202.566204 141.847201 
L 202.647186 142.361427 
L 202.728167 142.198258 
L 202.809149 141.794243 
L 202.89013 141.854061 
L 202.971111 141.915923 
L 203.166816 141.655772 
L 203.328779 142.15119 
L 203.409761 141.792419 
L 203.490742 141.854975 
L 203.571724 141.845372 
L 203.814668 143.201807 
L 203.895649 143.214674 
L 203.976631 142.93381 
L 204.300556 144.101486 
L 204.462519 145.170179 
L 204.786445 144.0692 
L 204.867426 143.841287 
L 205.029389 144.697004 
L 205.110371 144.114 
L 205.191352 144.895084 
L 205.272334 144.830253 
L 205.434296 145.118678 
L 205.515278 144.73752 
L 205.54902 144.919663 
L 205.630002 144.902181 
L 205.791964 147.906788 
L 206.034909 146.25758 
L 206.11589 146.776346 
L 206.196872 146.457834 
L 206.358834 147.903538 
L 206.439816 147.609631 
L 206.601779 156.051636 
L 206.68276 151.910489 
L 206.763742 152.146758 
L 206.844723 152.762364 
L 207.006686 151.417938 
L 207.087667 151.847429 
L 207.24963 150.125782 
L 207.330612 150.165029 
L 207.573556 147.619219 
L 207.654537 148.001325 
L 207.8165 150.03063 
L 207.897482 150.189511 
L 207.978463 151.208721 
L 208.012205 150.682785 
L 208.093187 149.67608 
L 208.336131 151.36619 
L 208.498094 150.501154 
L 208.741038 151.117591 
L 208.82202 151.183534 
L 208.903001 150.952279 
L 209.064964 148.306714 
L 209.145945 150.083673 
L 209.226927 149.895813 
L 209.307908 149.366154 
L 209.38889 149.941854 
L 209.550852 149.272987 
L 209.631834 149.280732 
L 209.712815 149.903113 
L 209.793797 149.678962 
L 209.874778 149.673918 
L 210.036741 149.8448 
L 210.198704 148.614233 
L 210.47539 148.353361 
L 210.637353 146.901003 
L 210.718335 147.444905 
L 210.799316 147.236655 
L 210.880298 147.404442 
L 211.04226 147.282994 
L 211.204223 146.255808 
L 211.285205 146.007729 
L 211.366186 146.109929 
L 211.528149 146.84284 
L 211.690112 146.31261 
L 211.771093 146.613337 
L 211.852075 148.488682 
L 211.933056 148.154991 
L 212.014038 148.099014 
L 212.095019 148.235656 
L 212.176 147.658268 
L 212.256982 147.858741 
L 212.418945 149.143255 
L 212.661889 148.752995 
L 212.74287 149.445602 
L 212.823852 149.113938 
L 212.904833 149.299051 
L 212.938575 149.15234 
L 213.100538 148.585802 
L 213.18152 148.69368 
L 213.262501 148.240295 
L 213.667408 149.976283 
L 213.74839 149.848438 
L 213.829371 149.894353 
L 213.991334 151.24973 
L 214.153297 150.47849 
L 214.234278 150.890307 
L 214.31526 150.83164 
L 214.396241 150.857089 
L 214.477223 150.763191 
L 214.639185 150.046084 
L 214.720167 149.927225 
L 214.963111 151.193762 
L 215.044093 150.404661 
L 215.125074 150.643103 
L 215.206055 150.672856 
L 215.287037 149.900192 
L 215.401761 150.088101 
L 215.563723 149.594846 
L 215.644705 149.668155 
L 215.806668 150.324413 
L 215.968631 149.327979 
L 216.130593 149.596997 
L 216.292556 149.481189 
L 216.373538 149.855718 
L 216.454519 149.817896 
L 216.697463 149.861544 
L 216.859426 150.176153 
L 217.264333 149.52399 
L 217.345315 149.780882 
L 217.426296 149.749736 
L 217.669241 149.808454 
L 217.864946 150.847831 
L 218.026909 150.659881 
L 218.10789 150.764726 
L 218.269853 150.724855 
L 218.350834 150.822395 
L 218.512797 150.359616 
L 218.593779 150.417446 
L 218.917704 150.048293 
L 218.998686 149.810632 
L 219.079667 148.903904 
L 219.160649 149.072839 
L 219.24163 148.999246 
L 219.322611 149.300461 
L 219.403593 149.240638 
L 219.484574 149.302576 
L 219.565556 149.067274 
L 219.727519 149.554014 
L 219.889481 149.383856 
L 220.213407 147.945844 
L 220.409112 148.558769 
L 220.490094 148.52369 
L 220.652057 147.557945 
L 220.733038 147.625615 
L 220.814019 147.810182 
L 220.975982 147.621777 
L 221.218927 145.164634 
L 221.380889 146.518307 
L 221.785797 147.365334 
L 221.866778 147.08412 
L 221.947759 147.245413 
L 222.028741 147.159907 
L 222.109722 147.218529 
L 222.271685 146.411873 
L 222.514629 146.118717 
L 222.791316 146.912046 
L 223.03426 146.678598 
L 223.277204 147.071108 
L 223.358186 148.309377 
L 223.439167 147.962143 
L 223.520149 147.999364 
L 223.60113 147.628813 
L 223.682112 147.716686 
L 223.925056 148.182058 
L 224.168 149.118821 
L 224.248982 150.628627 
L 224.329963 149.981417 
L 224.410944 150.147986 
L 224.572907 150.571603 
L 224.653889 151.775641 
L 224.815852 150.70725 
L 224.896833 150.879485 
L 224.977814 150.204365 
L 225.058796 150.439276 
L 225.335482 150.429487 
L 225.416464 150.613402 
L 225.821371 149.363323 
L 225.902352 149.780882 
L 225.983334 149.732377 
L 226.064315 149.601302 
L 226.30726 150.333394 
L 226.469222 150.431745 
L 226.550204 150.124303 
L 226.631185 150.162064 
L 226.793148 150.245281 
L 226.87413 150.603513 
L 227.117074 150.047557 
L 227.279037 150.007842 
L 227.360018 150.140582 
L 227.441 149.675359 
L 227.521981 149.831706 
L 227.602962 149.888516 
L 228.041612 149.583375 
L 228.122593 149.159331 
L 228.284556 149.410089 
L 228.5275 149.054064 
L 228.608482 149.214662 
L 228.932408 148.027496 
L 229.013389 147.593662 
L 229.09437 148.106248 
L 229.175352 147.965405 
L 229.256333 147.582811 
L 229.337315 147.75209 
L 229.66124 146.46441 
L 229.742222 146.627214 
L 230.066148 144.263828 
L 230.147129 145.120337 
L 230.180871 144.484649 
L 230.423816 140.76363 
L 230.585778 142.152586 
L 230.66676 141.455718 
L 230.747741 142.071329 
L 230.828723 141.674774 
L 230.990686 145.485293 
L 231.152648 143.917439 
L 231.23363 144.020885 
L 231.314611 144.780299 
L 231.476574 143.910221 
L 231.557556 143.806924 
L 231.719518 144.582457 
L 231.8005 144.391633 
L 232.043444 144.731571 
L 232.124425 144.242795 
L 232.286388 142.638296 
L 232.36737 142.815866 
L 232.529333 141.77693 
L 232.725038 142.616288 
L 232.887001 142.535672 
L 233.048963 141.089123 
L 233.129945 141.04979 
L 233.291908 140.126824 
L 233.372889 140.147938 
L 233.453871 138.781126 
L 233.534852 139.465693 
L 233.615833 139.3704 
L 233.696815 139.083363 
L 233.777796 138.297455 
L 233.858778 138.623063 
L 233.939759 138.564397 
L 234.020741 138.277748 
L 234.101722 138.351483 
L 234.263685 139.255954 
L 234.344666 139.277995 
L 234.587611 138.620409 
L 234.668592 140.15291 
L 234.749573 139.86445 
L 234.830555 139.890141 
L 234.911536 139.480431 
L 234.992518 139.671571 
L 235.188223 139.408851 
L 235.269204 139.529117 
L 235.350186 139.424732 
L 235.512149 139.524322 
L 235.59313 138.507061 
L 235.674111 138.665198 
L 235.836074 138.92097 
L 235.917056 138.862051 
L 235.998037 138.965388 
L 236.16 139.591972 
L 236.240981 142.038933 
L 236.321963 141.457953 
L 236.402944 141.573221 
L 236.483926 141.486586 
L 236.564907 141.709212 
L 236.645889 140.185676 
L 236.72687 140.366807 
L 236.807851 141.565122 
L 236.888833 141.299104 
L 236.969814 140.710474 
L 237.131777 141.247362 
L 237.212759 141.017517 
L 237.29374 141.698783 
L 237.374721 141.671605 
L 237.455703 141.786495 
L 237.536684 142.15119 
L 237.570427 142.042632 
L 237.651408 141.962352 
L 237.732389 142.236099 
L 237.813371 141.208987 
L 237.894352 141.394594 
L 237.975334 141.835773 
L 238.056315 141.778296 
L 238.137297 142.021834 
L 238.542204 141.233237 
L 238.623185 140.566834 
L 238.704167 140.755904 
L 238.947111 139.904839 
L 239.028092 139.962936 
L 239.109074 139.159074 
L 239.190055 139.244945 
L 239.271037 139.24809 
L 239.352018 139.966215 
L 239.432999 139.851008 
L 239.513981 139.820091 
L 239.837907 139.31032 
L 240.033612 139.396157 
L 240.357537 140.844968 
L 240.5195 140.173641 
L 240.600482 140.297301 
L 240.762444 140.133859 
L 240.843426 139.998627 
L 240.924407 140.361773 
L 241.005389 140.276003 
L 241.329314 140.037686 
L 241.410296 140.454296 
L 241.491277 140.431961 
L 241.815203 140.086324 
L 241.977166 140.138827 
L 242.058147 140.105736 
L 242.139129 139.775846 
L 242.22011 139.871786 
L 242.382073 140.274751 
L 242.65876 140.000681 
L 243.306611 139.903613 
L 243.387592 139.768956 
L 243.468574 139.820498 
L 243.549555 139.798158 
L 243.711518 139.555112 
L 243.7925 139.707471 
L 243.873481 139.649826 
L 244.116425 138.799885 
L 244.197407 138.956109 
L 244.521332 138.173275 
L 244.602314 138.889367 
L 244.683295 138.832859 
L 244.764277 138.585191 
L 244.845258 138.83094 
L 244.959982 138.689158 
L 245.040963 138.998681 
L 245.121945 138.764298 
L 245.202926 138.936021 
L 245.283908 138.848217 
L 245.364889 138.412797 
L 245.44587 138.454044 
L 245.526852 138.476208 
L 245.607833 138.37987 
L 245.688815 138.799119 
L 245.769796 138.679266 
L 246.093722 138.467189 
L 246.255685 138.650761 
L 246.336666 138.613966 
L 246.498629 139.07908 
L 246.57961 139.019618 
L 246.660592 139.176293 
L 246.984518 138.648863 
L 247.308443 135.885023 
L 247.389425 135.993369 
L 247.666111 134.647157 
L 247.747093 134.55831 
L 247.828074 134.300683 
L 247.909056 134.538263 
L 247.990037 134.391467 
L 248.071018 134.564898 
L 248.152 134.469324 
L 248.232981 134.065755 
L 248.394944 131.16815 
L 248.475926 131.539188 
L 248.556907 131.398331 
L 248.637888 129.727022 
L 248.71887 130.12294 
L 248.880833 129.730866 
L 248.961814 130.35424 
L 249.123777 134.096039 
L 249.204758 133.235411 
L 249.366721 132.091072 
L 249.447703 133.109179 
L 249.609666 132.581252 
L 249.690647 132.805565 
L 249.886352 131.806793 
L 249.967333 131.217639 
L 250.048315 132.139909 
L 250.129296 131.791746 
L 250.210278 132.087181 
L 250.291259 131.854573 
L 250.372241 132.840481 
L 250.453222 132.110278 
L 250.615185 132.522103 
L 250.696166 132.532745 
L 250.777148 131.909415 
L 250.939111 132.25449 
L 251.020092 132.073442 
L 251.101073 132.16464 
L 251.182055 131.761945 
L 251.263036 131.914036 
L 251.344018 131.89556 
L 251.586962 132.416038 
L 251.748925 132.20115 
L 251.910888 132.329813 
L 252.234813 132.320347 
L 252.349537 133.623445 
L 252.430519 136.504965 
L 252.592481 134.519136 
L 252.673463 134.565796 
L 252.835426 134.087589 
L 252.997389 134.251499 
L 253.07837 134.084968 
L 253.321314 134.27092 
L 253.483277 134.798284 
L 253.564259 134.400957 
L 253.64524 134.635424 
L 253.726221 134.603877 
L 253.807203 134.568792 
L 254.050147 134.186334 
L 254.293091 134.46724 
L 254.374073 134.425301 
L 254.455054 134.695373 
L 254.697999 134.48631 
L 254.812722 134.645953 
L 254.893704 134.546937 
L 255.055667 133.551289 
L 255.136648 133.658642 
L 255.541555 133.13369 
L 255.622537 133.662904 
L 255.703518 133.595679 
L 256.027444 133.601342 
L 256.108425 133.621176 
L 256.270388 133.54282 
L 256.351369 133.560045 
L 256.513332 133.948905 
L 256.675295 133.748949 
L 256.756277 133.780397 
L 256.918239 133.666883 
L 257.080202 133.688786 
L 257.275907 133.442638 
L 257.356889 133.519129 
L 258.00474 133.334111 
L 258.085722 132.700163 
L 258.166703 132.820443 
L 258.409647 132.79232 
L 258.57161 132.783137 
L 258.895536 132.971029 
L 258.976517 132.300905 
L 259.057499 132.365358 
L 259.219462 132.418946 
L 259.381425 131.610682 
L 259.462406 131.511577 
L 259.543387 130.806146 
L 259.624369 131.237129 
L 259.70535 131.202605 
L 259.820074 130.365031 
L 259.901055 131.545972 
L 259.982037 131.118804 
L 260.063018 131.118068 
L 260.144 130.92791 
L 260.224981 131.037604 
L 260.386944 130.651087 
L 260.467925 130.815297 
L 260.548907 130.805665 
L 260.71087 131.121501 
L 260.872832 130.899082 
L 260.953814 130.206901 
L 261.034795 130.270959 
L 261.196758 130.030869 
L 261.27774 130.482758 
L 261.439702 129.997531 
L 261.520684 130.188543 
L 261.601665 130.322846 
L 261.682647 130.204344 
L 261.84461 130.461271 
L 262.202278 129.922127 
L 262.283259 129.50841 
L 262.36424 129.658646 
L 262.445222 129.610293 
L 262.526203 129.883066 
L 262.607185 129.794989 
L 262.850129 129.518683 
L 262.93111 129.440228 
L 263.012092 129.57619 
L 263.174055 129.335144 
L 263.336018 129.413342 
L 263.578962 129.109638 
L 263.659943 129.092632 
L 263.740925 128.890926 
L 263.983869 126.519019 
L 264.06485 127.015923 
L 264.145832 127.015923 
L 264.226813 126.875299 
L 264.388776 125.51664 
L 264.469758 125.535948 
L 264.550739 125.750684 
L 264.63172 125.67297 
L 264.746444 124.739855 
L 264.827426 124.467025 
L 264.908407 122.845046 
L 265.07037 127.111026 
L 265.151351 127.05847 
L 265.313314 126.848498 
L 265.394296 126.760919 
L 265.475277 129.187912 
L 265.556258 128.6554 
L 265.63724 128.345462 
L 265.718221 128.454315 
L 265.880184 128.293165 
L 265.961166 126.850793 
L 266.042147 127.387684 
L 266.285091 126.468986 
L 266.447054 126.4387 
L 266.528036 126.964234 
L 266.609017 126.951528 
L 266.77098 126.503263 
L 267.013924 126.452341 
L 267.209629 124.962647 
L 267.371592 124.491195 
L 267.452574 124.75577 
L 267.533555 124.61138 
L 267.695518 124.101316 
L 267.776499 125.396843 
L 267.857481 125.072028 
L 267.938462 124.888233 
L 268.100425 125.110891 
L 268.505332 124.153741 
L 268.586314 124.20928 
L 268.991221 122.23331 
L 269.072202 122.639508 
L 269.315146 122.047349 
L 269.591833 121.570769 
L 269.753796 120.737611 
L 269.834777 120.994076 
L 269.915759 120.900398 
L 269.99674 120.822181 
L 270.320666 123.197596 
L 270.56361 121.353524 
L 270.725573 121.142969 
L 270.968517 125.530632 
L 271.049499 124.646186 
L 271.13048 124.23194 
L 271.211461 123.060435 
L 271.454406 126.101326 
L 271.778331 124.282787 
L 271.859313 124.324366 
L 271.940294 124.390406 
L 272.216981 122.661841 
L 272.378944 122.929234 
L 272.540907 122.029702 
L 272.621888 122.170662 
L 272.864832 121.597818 
L 272.945814 121.713966 
L 273.026795 122.237553 
L 273.107777 122.221026 
L 273.269739 122.228776 
L 273.674647 121.195091 
L 273.755628 121.316033 
L 274.079554 120.693007 
L 274.160535 120.084773 
L 274.241517 120.127309 
L 274.403479 119.841159 
L 274.761147 117.860798 
L 274.842129 117.963118 
L 275.247036 115.376125 
L 275.328017 114.730486 
L 275.408999 116.036109 
L 275.570962 115.17846 
L 275.651943 115.807683 
L 275.732925 115.603237 
L 276.380776 109.640718 
L 276.62372 112.655115 
L 276.785683 110.858792 
L 276.866665 111.518432 
L 277.143351 108.949836 
L 277.224333 109.094946 
L 277.386295 106.881203 
L 277.467277 107.989368 
L 277.710221 106.703737 
L 277.791203 106.274716 
L 278.034147 109.486626 
L 278.115128 109.660579 
L 278.277091 108.223794 
L 278.358073 108.989573 
L 278.520035 107.591946 
L 278.601017 108.078422 
L 278.681998 107.790174 
L 278.76298 107.869181 
L 279.005924 109.635299 
L 279.086905 108.692652 
L 279.167887 108.732735 
L 279.248868 108.862559 
L 279.444573 109.786828 
L 279.687518 108.470464 
L 279.768499 108.40129 
L 279.84948 108.49073 
L 279.930462 109.164505 
L 280.011443 108.818952 
L 280.092425 109.181288 
L 280.254388 110.514132 
L 280.335369 109.940276 
L 280.41635 110.233918 
L 280.659295 113.856193 
L 280.821258 110.544224 
L 280.902239 110.825808 
L 280.98322 106.908087 
L 281.064202 108.094757 
L 281.145183 107.086106 
L 281.469109 108.856908 
L 281.631072 107.267764 
L 281.712053 107.72292 
L 281.793035 107.516438 
L 281.874016 106.804803 
L 281.98874 107.804782 
L 282.150703 106.833361 
L 282.231684 104.676377 
L 282.312666 104.839464 
L 282.474628 103.819335 
L 282.55561 104.228639 
L 282.636591 103.837965 
L 282.960517 99.813932 
L 283.041498 100.488251 
L 283.12248 99.579074 
L 283.527387 101.148247 
L 283.851313 99.669501 
L 283.932294 99.717326 
L 284.013276 99.743248 
L 284.094257 99.567662 
L 284.370944 97.600614 
L 284.613888 100.056192 
L 284.856832 98.631927 
L 284.937814 99.819858 
L 285.018795 99.785361 
L 285.261739 100.499587 
L 285.342721 101.737565 
L 285.423702 104.780719 
L 285.504684 102.448148 
L 285.585665 102.517063 
L 285.666646 102.560439 
L 285.747628 100.743997 
L 286.071554 102.979657 
L 286.152535 102.107378 
L 286.233516 102.663798 
L 286.476461 100.280486 
L 286.638424 100.442281 
L 286.834129 99.517632 
L 286.91511 99.524552 
L 287.077073 100.254109 
L 287.48198 98.112996 
L 287.562962 98.163978 
L 287.643943 97.945532 
L 287.805906 95.264734 
L 287.886887 94.701716 
L 287.967869 95.110082 
L 288.04885 94.896004 
L 288.210813 95.453323 
L 288.453757 94.172315 
L 288.534739 94.24062 
L 288.61572 94.470134 
L 288.696702 95.648122 
L 288.858664 94.516845 
L 289.020627 94.994067 
L 289.297314 92.195307 
L 289.540258 90.666111 
L 289.621239 90.606029 
L 289.702221 91.638705 
L 289.783202 91.287356 
L 289.864184 90.478836 
L 290.107128 93.243057 
L 290.188109 94.544581 
L 290.512035 89.557564 
L 290.593017 89.897814 
L 290.673998 89.717788 
L 290.835961 88.721291 
L 290.916942 89.026095 
L 290.997924 88.742472 
L 291.078905 89.211018 
L 291.159887 88.813161 
L 291.483812 85.561623 
L 291.564794 85.680496 
L 291.645775 85.491017 
L 291.84148 83.895771 
L 292.084425 82.745237 
L 292.246387 76.418279 
L 292.327369 77.258373 
L 292.40835 78.600952 
L 292.489332 78.352086 
L 292.651295 76.181316 
L 292.732276 77.003702 
L 292.813257 76.813384 
L 292.97522 74.041492 
L 293.056202 74.292232 
L 293.137183 74.376749 
L 293.461109 80.024733 
L 293.54209 79.127192 
L 293.623072 79.868029 
L 293.704053 79.81377 
L 293.785035 77.573404 
L 293.866016 77.948783 
L 294.10896 81.51508 
L 294.304665 78.704802 
L 294.466628 78.214936 
L 294.628591 76.092484 
L 294.871535 79.041279 
L 294.952517 78.51297 
L 295.033498 80.480257 
L 295.11448 79.804192 
L 295.195461 79.311503 
L 295.357424 80.066336 
L 295.519387 83.505959 
L 295.600368 83.486203 
L 295.68135 82.96104 
L 295.762331 81.171831 
L 295.924294 84.051371 
L 296.005275 83.981945 
L 296.086257 83.100141 
L 296.24822 83.596398 
L 296.410183 82.59745 
L 296.572145 85.215505 
L 296.653127 85.013032 
L 296.767851 87.461421 
L 296.848832 86.738634 
L 297.010795 91.693575 
L 297.253739 88.687921 
L 297.334721 87.802364 
L 297.415702 88.056647 
L 297.496683 89.058765 
L 297.577665 87.383115 
L 297.658646 88.106128 
L 297.901591 85.077325 
L 297.982572 83.607236 
L 298.063553 84.695584 
L 298.225516 83.36204 
L 298.387479 85.662835 
L 298.468461 85.099672 
L 298.630423 86.083641 
L 298.792386 84.404732 
L 298.873368 84.83292 
L 299.392998 82.986963 
L 299.47398 83.082515 
L 299.878887 87.604723 
L 299.959868 86.200939 
L 300.202813 88.777728 
L 300.283794 88.671843 
L 300.364776 88.641021 
L 300.445757 89.492445 
L 300.688701 87.364892 
L 300.769683 87.382961 
L 300.850664 87.746743 
L 300.931646 87.337728 
L 301.255571 89.656909 
L 301.336553 89.326596 
L 301.498516 91.901554 
L 301.579497 91.676984 
L 301.613239 91.946616 
L 301.775202 90.502112 
L 301.937165 92.061283 
L 302.018146 92.460248 
L 302.180109 91.415856 
L 302.261091 92.063615 
L 302.342072 91.858139 
L 302.423054 91.594491 
L 302.504035 89.396039 
L 302.585016 89.458289 
L 302.665998 89.191484 
L 302.746979 88.447824 
L 302.908942 89.409288 
L 303.232868 87.335956 
L 303.313849 87.553754 
L 303.394831 87.273411 
L 303.475812 86.002057 
L 303.556794 87.455989 
L 303.637775 86.681334 
L 303.718756 87.330659 
L 303.880719 86.45124 
L 304.076424 87.065422 
L 304.157406 86.774169 
L 304.238387 85.84366 
L 304.319369 85.924087 
L 304.40035 85.666436 
L 304.805257 87.151075 
L 304.886239 88.357102 
L 304.96722 88.223398 
L 305.048202 87.777386 
L 305.129183 87.849789 
L 305.372127 89.087679 
L 305.615072 88.129692 
L 305.696053 88.359861 
L 305.858016 90.337435 
L 305.938997 90.157291 
L 306.262923 91.248314 
L 306.343904 90.408716 
L 306.424886 90.597949 
L 306.701572 89.853612 
L 306.782554 90.343329 
L 306.944517 89.983326 
L 307.025498 89.897457 
L 307.187461 90.319283 
L 307.268442 92.103741 
L 307.349424 91.817356 
L 307.511387 93.323141 
L 307.592368 92.43847 
L 307.67335 93.089405 
L 307.997275 92.186369 
L 308.078257 92.135406 
L 308.159238 92.239147 
L 308.24022 94.044362 
L 308.321201 93.720148 
L 308.402182 93.744616 
L 308.483164 93.46028 
L 308.726108 94.56465 
L 308.888071 93.119918 
L 309.002795 93.245283 
L 309.083776 92.510127 
L 309.164757 92.78835 
L 309.245739 92.57686 
L 309.32672 92.721769 
L 309.488683 92.143528 
L 309.569665 92.27314 
L 309.650646 92.372323 
L 309.731627 93.332908 
L 309.812609 93.095729 
L 309.974572 93.544395 
L 310.136535 93.176941 
L 310.46046 90.402385 
L 310.541442 90.73607 
L 310.703405 90.58487 
L 310.865367 88.408644 
L 310.946349 88.877441 
L 311.02733 89.375383 
L 311.189293 88.750166 
L 311.351256 88.865164 
L 311.546961 90.253778 
L 311.627943 90.540819 
L 311.708924 91.494233 
L 311.789905 91.43425 
L 311.951868 92.232567 
L 312.03285 93.392587 
L 312.113831 92.69958 
L 312.194813 93.756835 
L 312.275794 93.509316 
L 312.356775 93.289108 
L 312.518738 93.628118 
L 312.680701 93.286686 
L 312.761683 92.573987 
L 312.842664 93.065205 
L 312.923645 92.807928 
L 313.004627 93.434044 
L 313.085608 92.837256 
L 313.16659 93.171885 
L 313.409534 92.165241 
L 313.490515 92.23925 
L 313.652478 91.314931 
L 313.73346 91.410779 
L 313.814441 91.541215 
L 313.895423 91.472002 
L 314.010146 90.812914 
L 314.091128 90.886646 
L 314.172109 90.651953 
L 314.334072 92.772916 
L 314.496035 93.626564 
L 314.577016 93.491321 
L 314.657998 93.284998 
L 314.738979 93.363802 
L 314.819961 93.250524 
L 314.900942 92.834896 
L 314.981923 92.850784 
L 315.143886 92.807239 
L 315.224868 93.457174 
L 315.305849 93.225202 
L 315.467812 92.798083 
L 315.548793 92.133395 
L 315.629775 92.249497 
L 315.710756 92.285154 
L 315.872719 92.979357 
L 315.953701 92.913019 
L 316.034682 92.327757 
L 316.115663 92.458899 
L 316.277626 92.489197 
L 316.473331 92.746387 
L 316.554313 92.834207 
L 316.716276 92.465411 
L 316.878239 92.547919 
L 317.040201 92.468213 
L 317.121183 92.600356 
L 317.202164 93.600738 
L 317.283146 93.486419 
L 317.445109 93.412563 
L 317.52609 92.518715 
L 317.607071 92.595178 
L 317.688053 92.617495 
L 317.850016 92.895238 
L 318.09296 92.858163 
L 318.416886 92.927381 
L 318.578848 92.891354 
L 318.740811 93.326742 
L 319.341424 92.735286 
L 319.503386 93.139849 
L 319.584368 93.09032 
L 319.665349 93.05857 
L 319.827312 93.24493 
L 319.989275 95.233497 
L 320.151238 95.474604 
L 320.232219 95.332036 
L 320.394182 99.366936 
L 320.475164 98.790681 
L 320.718108 101.809671 
L 320.799089 101.15233 
L 320.880071 102.12297 
L 320.961052 101.949212 
L 321.123015 99.978766 
L 321.203996 101.128618 
L 321.31872 100.340822 
L 321.399702 100.562026 
L 321.480683 101.732584 
L 321.561664 101.393481 
L 321.804609 103.863608 
L 321.88559 103.661015 
L 321.966572 103.017892 
L 322.128534 103.962263 
L 322.209516 103.539508 
L 322.371479 104.821101 
L 322.45246 104.836908 
L 322.533442 104.715616 
L 322.695404 102.438464 
L 322.776386 102.342894 
L 322.857367 100.587797 
L 322.938349 101.611196 
L 323.01933 100.976605 
L 323.100312 101.137378 
L 323.181293 100.821114 
L 323.424237 102.764665 
L 323.505219 101.396009 
L 323.5862 102.066351 
L 323.667182 101.622678 
L 323.748163 102.292988 
L 323.781905 101.693771 
L 323.862887 101.338773 
L 323.943868 101.891366 
L 324.02485 101.720807 
L 324.105831 101.803955 
L 324.186812 100.733213 
L 324.267794 100.954664 
L 324.429757 100.96342 
L 324.510738 102.660841 
L 324.59172 102.655915 
L 324.672701 102.67854 
L 324.753682 103.218343 
L 324.834664 102.493906 
L 324.915645 102.882374 
L 324.996627 102.774581 
L 325.077608 102.580557 
L 325.15859 102.755415 
L 325.239571 102.374061 
L 325.320552 103.138606 
L 325.401534 103.118404 
L 325.482515 102.973875 
L 325.563497 103.117777 
L 325.644478 102.990703 
L 325.72546 103.065624 
L 325.806441 103.000367 
L 325.887422 103.151395 
L 326.049385 103.875286 
L 326.130367 103.630508 
L 326.211348 103.795511 
L 326.24509 103.65823 
L 326.326072 103.425865 
L 326.488035 103.810002 
L 326.569016 103.727832 
L 326.730979 104.092769 
L 326.81196 102.698985 
L 326.892942 102.735563 
L 326.973923 102.581304 
L 327.054905 102.929493 
L 327.135886 102.900588 
L 327.37883 103.014778 
L 327.540793 102.647849 
L 327.702756 101.499297 
L 327.783737 101.282203 
L 327.864719 101.443247 
L 327.9457 101.241194 
L 328.026682 100.540317 
L 328.107663 102.182057 
L 328.188645 101.84812 
L 328.269626 101.972233 
L 328.350607 101.914445 
L 328.431589 101.947501 
L 328.870238 101.997362 
L 328.95122 102.367141 
L 329.113183 101.71672 
L 329.275145 101.747663 
L 329.356127 101.396532 
L 329.437108 101.474752 
L 329.51809 101.71712 
L 329.599071 101.656462 
L 329.761034 101.68805 
L 329.922997 101.054346 
L 330.003978 101.178786 
L 330.08496 101.218223 
L 330.246923 100.927701 
L 330.408885 101.166564 
L 330.570848 101.195541 
L 330.65183 101.497937 
L 330.732811 101.420616 
L 330.975755 100.697466 
L 331.171461 100.531068 
L 331.333423 97.410244 
L 331.414405 97.63033 
L 331.738331 96.345758 
L 331.819312 96.650106 
L 331.900293 96.266256 
L 331.981275 97.163114 
L 332.062256 97.051178 
L 332.143238 97.054023 
L 332.224219 96.768683 
L 332.305201 97.201648 
L 332.467163 96.534805 
L 332.710108 96.241743 
L 332.791089 96.307923 
L 332.953052 95.567078 
L 333.034033 95.831735 
L 333.115015 96.778415 
L 333.195996 96.54194 
L 333.276978 96.557106 
L 333.357959 96.416256 
L 333.438941 96.529218 
L 333.87759 94.656358 
L 334.039553 94.929388 
L 334.201516 94.195082 
L 334.363479 93.193095 
L 334.606423 89.661583 
L 334.768386 88.848815 
L 335.01133 90.896047 
L 335.092311 88.829246 
L 335.173293 89.243525 
L 335.254274 89.352239 
L 335.335256 90.061906 
L 335.740163 87.628413 
L 335.902126 87.866348 
L 335.983107 88.655531 
L 336.178812 87.721254 
L 336.340775 89.948138 
L 336.583719 89.234188 
L 336.664701 89.382909 
L 336.745682 90.024598 
L 336.826664 89.194724 
L 336.907645 89.418655 
L 337.393534 86.581695 
L 337.474515 87.057025 
L 337.636478 86.215353 
L 337.879422 83.985496 
L 337.960404 83.702841 
L 338.122366 80.998568 
L 338.203348 83.51924 
L 338.284329 81.759168 
L 338.365311 82.428094 
L 338.561016 84.409428 
L 338.641997 84.00431 
L 338.722979 82.287446 
L 338.884942 83.769239 
L 339.046904 83.032115 
L 339.208867 81.466391 
L 339.613774 85.050857 
L 339.694756 83.994583 
L 339.775737 86.421259 
L 339.856719 85.930228 
L 339.9377 84.334063 
L 340.018682 84.505457 
L 340.099663 84.13929 
L 340.261626 84.847199 
L 340.423589 85.795862 
L 340.50457 85.602695 
L 340.585552 85.663726 
L 340.666533 86.321312 
L 340.747514 86.224524 
L 340.828496 86.269437 
L 340.909477 86.109792 
L 341.186164 84.041999 
L 341.267145 83.791705 
L 341.348127 82.538723 
L 341.429108 83.042889 
L 341.591071 82.285736 
L 341.672052 82.455474 
L 341.753034 83.305313 
L 341.834015 82.920306 
L 341.914997 83.162919 
L 342.07696 85.344335 
L 342.157941 84.87616 
L 342.238922 84.789689 
L 342.319904 85.023318 
L 342.400885 84.846566 
L 342.481867 83.880904 
L 342.562848 84.121159 
L 342.724811 85.22087 
L 342.805792 84.706724 
L 342.967755 85.156872 
L 343.048737 84.782248 
L 343.129718 85.099739 
L 343.291681 86.295019 
L 343.487386 85.802521 
L 343.649349 84.355514 
L 343.811312 84.467555 
L 343.892293 84.873823 
L 343.973275 84.572553 
L 344.054256 84.689555 
L 344.216219 85.211759 
L 344.2972 85.117442 
L 344.378182 84.676214 
L 344.459163 84.769997 
L 344.621126 84.868632 
L 344.86407 85.120202 
L 344.945052 84.922104 
L 345.107015 85.419148 
L 345.187996 85.335604 
L 345.268978 85.93298 
L 345.43094 88.304103 
L 345.511922 89.079258 
L 345.592903 88.811986 
L 345.673885 88.76527 
L 345.754866 89.10001 
L 345.950571 88.551054 
L 346.031553 88.417462 
L 346.193515 88.882035 
L 346.274497 88.872702 
L 346.355478 89.525532 
L 346.598423 88.008769 
L 346.679404 88.001941 
L 346.760385 88.651788 
L 346.841367 88.571696 
L 346.922348 88.613801 
L 347.00333 88.474124 
L 347.165293 89.208914 
L 347.246274 89.063343 
L 347.408237 89.296674 
L 347.489218 88.715947 
L 347.5702 88.766108 
L 347.651181 89.165779 
L 347.813144 90.479206 
L 348.056088 86.190555 
L 348.13707 86.792748 
L 348.218051 86.404062 
L 348.380014 86.913944 
L 348.494738 86.626035 
L 348.575719 86.793905 
L 348.656701 86.42473 
L 348.899645 86.818354 
L 348.980626 87.653627 
L 349.061608 87.556036 
L 349.142589 87.125122 
L 349.223571 87.744119 
L 349.304552 87.569796 
L 349.385533 87.650664 
L 349.547496 88.260146 
L 349.628478 88.198531 
L 349.709459 88.165472 
L 349.871422 88.954845 
L 349.952403 89.039636 
L 350.276329 91.710926 
L 350.519273 90.278533 
L 350.600255 90.483531 
L 350.681236 89.743312 
L 350.957923 90.766583 
L 351.038904 90.783754 
L 351.119886 91.034705 
L 351.281849 90.216758 
L 351.443811 90.259804 
L 351.686756 91.024607 
L 351.767737 91.054751 
L 351.848719 90.906378 
L 352.172644 92.457705 
L 352.253626 90.828787 
L 352.334607 91.15096 
L 352.415589 91.045143 
L 352.49657 91.150455 
L 352.577551 90.310374 
L 352.820496 91.046792 
L 352.982459 90.925113 
L 353.144421 90.582893 
L 353.421108 91.622661 
L 353.583071 90.680843 
L 353.664052 90.675089 
L 353.826015 88.898247 
L 353.906997 89.142979 
L 353.987978 89.637369 
L 354.068959 88.835192 
L 354.149941 89.187043 
L 354.230922 88.853737 
L 354.311904 89.012097 
L 354.392885 87.558456 
L 354.473867 87.573565 
L 354.554848 87.7573 
L 354.716811 87.386959 
L 354.878774 87.927102 
L 354.959755 87.747019 
L 355.040737 87.860986 
L 355.121718 88.411802 
L 355.202699 88.335082 
L 355.283681 88.51133 
L 355.688588 86.279488 
L 355.884293 86.58494 
L 356.046256 86.886788 
L 356.208219 85.824596 
L 356.370182 85.575164 
L 356.451163 85.129688 
L 356.532144 85.645244 
L 356.694107 84.810467 
L 356.775089 85.002163 
L 356.85607 84.789788 
L 356.937052 85.562683 
L 357.018033 85.527827 
L 357.099014 85.918995 
L 357.179996 85.087683 
L 357.260977 86.097401 
L 357.341959 86.085987 
L 357.584903 85.438096 
L 358.070792 88.104597 
L 358.266497 88.096683 
L 358.347478 87.366764 
L 358.509441 87.650743 
L 358.671404 86.908551 
L 358.752385 87.397704 
L 358.914348 89.359885 
L 358.99533 89.467988 
L 359.076311 89.357806 
L 359.157292 97.618353 
L 359.238274 95.279029 
L 359.319255 96.714855 
L 359.400237 96.14237 
L 359.481218 97.175255 
L 359.805144 93.609139 
L 359.886125 93.639699 
L 359.967107 94.691554 
L 360.12907 92.120367 
L 360.210051 92.306969 
L 360.291032 92.143859 
L 360.533977 94.532668 
L 360.729682 92.385775 
L 360.810663 92.02591 
L 360.891645 92.180242 
L 360.972626 91.845919 
L 361.053608 92.083629 
L 361.134589 90.704909 
L 361.21557 91.04954 
L 361.296552 90.657769 
L 361.377533 90.828739 
L 361.458515 91.844567 
L 361.539496 91.816781 
L 361.620478 91.751532 
L 361.701459 91.887321 
L 361.78244 91.837185 
L 361.863422 92.474054 
L 361.944403 91.258786 
L 362.025385 91.447135 
L 362.106366 90.900288 
L 362.268329 91.929981 
L 362.34931 91.898164 
L 362.592255 90.329021 
L 362.673236 90.24333 
L 362.835199 89.703415 
L 362.91618 89.763394 
L 362.997162 87.628825 
L 363.078143 87.920066 
L 363.273848 87.248747 
L 363.35483 87.390997 
L 363.435811 87.440421 
L 363.597774 86.922066 
L 363.678756 85.399257 
L 363.759737 85.732501 
L 363.840718 86.207631 
L 364.002681 88.05747 
L 364.164644 86.615964 
L 364.245626 85.758827 
L 364.326607 86.626589 
L 364.407588 86.487799 
L 364.569551 85.88311 
L 364.650533 85.781672 
L 364.812496 87.09991 
L 364.893477 86.889115 
L 364.974458 86.860142 
L 365.05544 87.75955 
L 365.541328 85.923785 
L 365.62231 86.37196 
L 365.656052 85.039357 
L 365.737033 86.239012 
L 365.818015 85.983724 
L 365.898996 85.756436 
L 365.979978 86.062323 
L 366.060959 85.974112 
L 366.222922 85.777484 
L 366.303903 85.782552 
L 366.384885 85.586314 
L 366.465866 86.707295 
L 366.546848 86.346917 
L 366.627829 86.327978 
L 366.708811 86.585954 
L 366.870773 86.233681 
L 367.275681 86.661523 
L 367.356662 85.938289 
L 367.437643 86.058245 
L 367.599606 86.757156 
L 367.761569 87.198934 
L 367.842551 86.983873 
L 367.923532 86.858494 
L 368.004513 86.953554 
L 368.119237 86.761682 
L 368.2812 87.085951 
L 368.362181 86.942763 
L 368.443163 87.057536 
L 368.524144 86.561353 
L 368.605126 86.727382 
L 368.686107 86.392498 
L 368.767089 86.761571 
L 368.84807 86.669378 
L 368.929051 86.764962 
L 369.010033 86.646453 
L 369.333959 86.959659 
L 369.657884 86.90098 
L 369.900829 86.074509 
L 369.98181 86.191222 
L 370.143773 85.499238 
L 370.224754 83.691616 
L 370.305736 83.863421 
L 370.582422 82.532223 
L 370.663404 83.6596 
L 370.744385 83.395253 
L 370.825367 83.457488 
L 370.987329 82.592287 
L 371.068311 82.838889 
L 371.149292 82.593018 
L 371.230274 82.716921 
L 371.311255 82.408828 
L 371.392237 83.160501 
L 371.473218 82.888845 
L 371.554199 82.56393 
L 371.635181 82.587536 
L 371.797144 82.37911 
L 371.878125 81.834378 
L 372.040088 82.608233 
L 372.121069 82.458057 
L 372.202051 82.952692 
L 372.444995 82.614044 
L 372.525977 83.249062 
L 372.606958 83.043204 
L 372.687939 83.248363 
L 372.930884 82.6725 
L 373.011865 82.758992 
L 373.045607 82.366521 
L 373.126589 83.147071 
L 373.20757 85.101177 
L 373.288552 84.613005 
L 373.369533 85.11243 
L 373.450515 84.956727 
L 373.531496 84.758733 
L 373.612477 85.179305 
L 373.936403 84.64482 
L 374.017385 84.836385 
L 374.260329 83.825931 
L 374.422292 83.856133 
L 374.503273 83.628343 
L 374.584255 83.881392 
L 374.665236 84.694081 
L 374.746217 84.502532 
L 374.827199 84.994142 
L 374.90818 84.165609 
L 374.989162 84.244068 
L 375.151125 84.104052 
L 375.232106 84.236216 
L 375.313087 84.008818 
L 375.394069 84.107325 
L 375.670755 84.474274 
L 375.832718 84.082291 
L 375.9137 84.38989 
L 375.994681 84.278626 
L 376.318607 83.180915 
L 376.399588 82.934172 
L 376.561551 83.099719 
L 376.642532 82.981144 
L 376.723514 83.25561 
L 376.804495 83.192812 
L 377.04744 82.373608 
L 377.209402 80.896281 
L 377.290384 80.966715 
L 377.371365 80.717177 
L 377.533328 80.791687 
L 377.61431 80.048618 
L 377.695291 80.508851 
L 377.938235 79.851237 
L 377.971978 79.9033 
L 378.052959 80.143198 
L 378.376885 77.755631 
L 378.457866 78.607053 
L 378.538848 77.869019 
L 378.619829 78.040138 
L 378.70081 78.064061 
L 378.943755 76.955127 
L 379.105718 77.347529 
L 379.348662 75.487846 
L 379.429643 75.450755 
L 379.591606 74.621853 
L 379.753569 74.917298 
L 379.83455 74.209872 
L 379.915532 74.601896 
L 380.077495 76.109832 
L 380.320439 73.740413 
L 380.435163 74.541091 
L 380.597126 73.95014 
L 380.678107 74.657834 
L 380.84007 74.011757 
L 380.921051 74.188098 
L 381.002033 74.975645 
L 381.083014 74.764283 
L 381.244977 75.24895 
L 381.40694 74.199193 
L 381.568903 73.955876 
L 381.811847 70.96209 
L 381.892828 70.442438 
L 382.054791 71.268666 
L 382.135773 70.457893 
L 382.216754 70.884944 
L 382.378717 69.830326 
L 382.459698 68.660484 
L 382.54068 68.788805 
L 382.898348 66.844209 
L 383.060311 64.816467 
L 383.141292 65.362757 
L 383.465218 61.266855 
L 383.546199 61.436938 
L 383.789144 64.306182 
L 383.951106 61.905712 
L 384.113069 63.339846 
L 384.194051 63.428822 
L 384.275032 63.056588 
L 384.436995 63.591979 
L 384.517976 66.014532 
L 384.598958 64.845362 
L 384.679939 65.321569 
L 384.760921 65.227281 
L 384.841902 65.231755 
L 384.922884 65.103579 
L 385.003865 66.248987 
L 385.165828 64.20858 
L 385.246809 64.175577 
L 385.327791 64.775006 
L 385.361533 64.572259 
L 385.523496 62.568094 
L 385.604477 62.888047 
L 385.76644 61.8568 
L 385.847421 62.032229 
L 386.009384 58.943295 
L 386.090366 59.566779 
L 386.171347 58.398168 
L 386.252329 58.603987 
L 386.33331 58.681528 
L 386.414291 58.167856 
L 386.495273 58.423165 
L 386.657236 56.971504 
L 386.738217 57.158412 
L 386.819199 55.767629 
L 386.90018 55.777672 
L 386.981161 55.301201 
L 387.305087 58.73243 
L 387.548031 59.411658 
L 387.824718 57.823845 
L 387.905699 58.221592 
L 387.986681 57.56316 
L 388.067662 58.270446 
L 388.148644 58.124573 
L 388.229625 58.083185 
L 388.634532 55.199834 
L 388.715514 55.365331 
L 388.796495 54.22452 
L 388.958458 55.850438 
L 389.039439 55.465185 
L 389.120421 54.875523 
L 389.201402 55.249356 
L 389.282384 55.125324 
L 389.363365 55.113135 
L 389.444347 55.329676 
L 389.525328 56.342754 
L 389.606309 56.260198 
L 389.768272 57.243869 
L 389.930235 55.789102 
L 390.011217 55.814608 
L 390.254161 54.909215 
L 390.368885 54.852515 
L 390.449866 55.419903 
L 390.611829 54.814112 
L 390.773792 55.761934 
L 391.016736 54.621519 
L 391.178699 54.603977 
L 391.25968 53.568 
L 391.340662 53.729671 
L 391.421643 53.656359 
L 392.231457 58.003048 
L 392.39342 56.03432 
L 392.474402 56.09554 
L 392.555383 56.507008 
L 392.636365 55.215156 
L 392.751088 55.189789 
L 392.83207 55.556589 
L 392.913051 55.383723 
L 392.994033 56.615768 
L 393.075014 55.290144 
L 393.155995 55.611869 
L 393.317958 54.865554 
L 393.39894 55.056103 
L 393.884828 58.84524 
L 393.96581 58.950276 
L 394.208754 62.986784 
L 394.289735 61.283314 
L 394.53268 63.976606 
L 394.613661 62.045988 
L 394.694643 62.246759 
L 394.775624 61.8445 
L 394.856605 62.178974 
L 395.018568 64.028871 
L 395.376236 61.873179 
L 395.538199 63.57404 
L 395.61918 63.448494 
L 395.781143 64.637337 
L 395.862125 62.699133 
L 395.943106 63.029473 
L 396.024088 62.722901 
L 396.105069 63.572403 
L 396.267032 61.313344 
L 396.348013 61.468964 
L 396.671939 63.585193 
L 396.75292 63.543139 
L 396.833902 65.567048 
L 396.914883 65.092435 
L 397.076846 64.009856 
L 397.157828 65.599029 
L 397.238809 65.214655 
L 397.31979 63.978109 
L 397.400772 64.09088 
L 397.481753 63.39912 
L 397.677458 64.56858 
L 397.75844 64.434953 
L 397.920403 63.695757 
L 398.001384 64.486838 
L 398.082366 64.215828 
L 398.163347 64.396174 
L 398.244328 64.915383 
L 398.32531 64.435126 
L 398.406291 64.582943 
L 398.487273 64.351937 
L 398.487273 64.351937 
" style="fill:none;stroke:#00ced1;stroke-linecap:square;stroke-width:1.5;"/>
   </g>
   <g id="patch_3">
    <path d="M 57.6 307.584 
L 57.6 41.472 
" style="fill:none;stroke:#000000;stroke-linecap:square;stroke-linejoin:miter;stroke-width:0.8;"/>
   </g>
   <g id="patch_4">
    <path d="M 414.72 307.584 
L 414.72 41.472 
" style="fill:none;stroke:#000000;stroke-linecap:square;stroke-linejoin:miter;stroke-width:0.8;"/>
   </g>
   <g id="patch_5">
    <path d="M 57.6 307.584 
L 414.72 307.584 
" style="fill:none;stroke:#000000;stroke-linecap:square;stroke-linejoin:miter;stroke-width:0.8;"/>
   </g>
   <g id="patch_6">
    <path d="M 57.6 41.472 
L 414.72 41.472 
" style="fill:none;stroke:#000000;stroke-linecap:square;stroke-linejoin:miter;stroke-width:0.8;"/>
   </g>
   <g id="text_17">
    <!-- Bitcoin in Dollars -->
    <g transform="translate(185.4075 35.472)scale(0.12 -0.12)">
     <defs>
      <path d="M 1259 2228 
L 1259 519 
L 2272 519 
Q 2781 519 3026 730 
Q 3272 941 3272 1375 
Q 3272 1813 3026 2020 
Q 2781 2228 2272 2228 
L 1259 2228 
z
M 1259 4147 
L 1259 2741 
L 2194 2741 
Q 2656 2741 2882 2914 
Q 3109 3088 3109 3444 
Q 3109 3797 2882 3972 
Q 2656 4147 2194 4147 
L 1259 4147 
z
M 628 4666 
L 2241 4666 
Q 2963 4666 3353 4366 
Q 3744 4066 3744 3513 
Q 3744 3084 3544 2831 
Q 3344 2578 2956 2516 
Q 3422 2416 3680 2098 
Q 3938 1781 3938 1306 
Q 3938 681 3513 340 
Q 3088 0 2303 0 
L 628 0 
L 628 4666 
z
" id="DejaVuSans-42" transform="scale(0.015625)"/>
      <path d="M 1172 4494 
L 1172 3500 
L 2356 3500 
L 2356 3053 
L 1172 3053 
L 1172 1153 
Q 1172 725 1289 603 
Q 1406 481 1766 481 
L 2356 481 
L 2356 0 
L 1766 0 
Q 1100 0 847 248 
Q 594 497 594 1153 
L 594 3053 
L 172 3053 
L 172 3500 
L 594 3500 
L 594 4494 
L 1172 4494 
z
" id="DejaVuSans-74" transform="scale(0.015625)"/>
      <path d="M 1959 3097 
Q 1497 3097 1228 2736 
Q 959 2375 959 1747 
Q 959 1119 1226 758 
Q 1494 397 1959 397 
Q 2419 397 2687 759 
Q 2956 1122 2956 1747 
Q 2956 2369 2687 2733 
Q 2419 3097 1959 3097 
z
M 1959 3584 
Q 2709 3584 3137 3096 
Q 3566 2609 3566 1747 
Q 3566 888 3137 398 
Q 2709 -91 1959 -91 
Q 1206 -91 779 398 
Q 353 888 353 1747 
Q 353 2609 779 3096 
Q 1206 3584 1959 3584 
z
" id="DejaVuSans-6f" transform="scale(0.015625)"/>
      <path d="M 3513 2113 
L 3513 0 
L 2938 0 
L 2938 2094 
Q 2938 2591 2744 2837 
Q 2550 3084 2163 3084 
Q 1697 3084 1428 2787 
Q 1159 2491 1159 1978 
L 1159 0 
L 581 0 
L 581 3500 
L 1159 3500 
L 1159 2956 
Q 1366 3272 1645 3428 
Q 1925 3584 2291 3584 
Q 2894 3584 3203 3211 
Q 3513 2838 3513 2113 
z
" id="DejaVuSans-6e" transform="scale(0.015625)"/>
      <path id="DejaVuSans-20" transform="scale(0.015625)"/>
      <path d="M 1259 4147 
L 1259 519 
L 2022 519 
Q 2988 519 3436 956 
Q 3884 1394 3884 2338 
Q 3884 3275 3436 3711 
Q 2988 4147 2022 4147 
L 1259 4147 
z
M 628 4666 
L 1925 4666 
Q 3281 4666 3915 4102 
Q 4550 3538 4550 2338 
Q 4550 1131 3912 565 
Q 3275 0 1925 0 
L 628 0 
L 628 4666 
z
" id="DejaVuSans-44" transform="scale(0.015625)"/>
      <path d="M 603 4863 
L 1178 4863 
L 1178 0 
L 603 0 
L 603 4863 
z
" id="DejaVuSans-6c" transform="scale(0.015625)"/>
      <path d="M 2834 3397 
L 2834 2853 
Q 2591 2978 2328 3040 
Q 2066 3103 1784 3103 
Q 1356 3103 1142 2972 
Q 928 2841 928 2578 
Q 928 2378 1081 2264 
Q 1234 2150 1697 2047 
L 1894 2003 
Q 2506 1872 2764 1633 
Q 3022 1394 3022 966 
Q 3022 478 2636 193 
Q 2250 -91 1575 -91 
Q 1294 -91 989 -36 
Q 684 19 347 128 
L 347 722 
Q 666 556 975 473 
Q 1284 391 1588 391 
Q 1994 391 2212 530 
Q 2431 669 2431 922 
Q 2431 1156 2273 1281 
Q 2116 1406 1581 1522 
L 1381 1569 
Q 847 1681 609 1914 
Q 372 2147 372 2553 
Q 372 3047 722 3315 
Q 1072 3584 1716 3584 
Q 2034 3584 2315 3537 
Q 2597 3491 2834 3397 
z
" id="DejaVuSans-73" transform="scale(0.015625)"/>
     </defs>
     <use xlink:href="#DejaVuSans-42"/>
     <use x="68.603516" xlink:href="#DejaVuSans-69"/>
     <use x="96.386719" xlink:href="#DejaVuSans-74"/>
     <use x="135.595703" xlink:href="#DejaVuSans-63"/>
     <use x="190.576172" xlink:href="#DejaVuSans-6f"/>
     <use x="251.757812" xlink:href="#DejaVuSans-69"/>
     <use x="279.541016" xlink:href="#DejaVuSans-6e"/>
     <use x="342.919922" xlink:href="#DejaVuSans-20"/>
     <use x="374.707031" xlink:href="#DejaVuSans-69"/>
     <use x="402.490234" xlink:href="#DejaVuSans-6e"/>
     <use x="465.869141" xlink:href="#DejaVuSans-20"/>
     <use x="497.65625" xlink:href="#DejaVuSans-44"/>
     <use x="574.658203" xlink:href="#DejaVuSans-6f"/>
     <use x="635.839844" xlink:href="#DejaVuSans-6c"/>
     <use x="663.623047" xlink:href="#DejaVuSans-6c"/>
     <use x="691.40625" xlink:href="#DejaVuSans-61"/>
     <use x="752.685547" xlink:href="#DejaVuSans-72"/>
     <use x="793.798828" xlink:href="#DejaVuSans-73"/>
    </g>
   </g>
   <g id="legend_1">
    <g id="patch_7">
     <path d="M 64.6 64.150125 
L 115.964062 64.150125 
Q 117.964062 64.150125 117.964062 62.150125 
L 117.964062 48.472 
Q 117.964062 46.472 115.964062 46.472 
L 64.6 46.472 
Q 62.6 46.472 62.6 48.472 
L 62.6 62.150125 
Q 62.6 64.150125 64.6 64.150125 
z
" style="fill:#ffffff;opacity:0.8;stroke:#cccccc;stroke-linejoin:miter;"/>
    </g>
    <g id="line2d_71">
     <path d="M 66.6 54.570438 
L 86.6 54.570438 
" style="fill:none;stroke:#00ced1;stroke-linecap:square;stroke-width:1.5;"/>
    </g>
    <g id="line2d_72"/>
    <g id="text_18">
     <!-- BTC -->
     <g transform="translate(94.6 58.070438)scale(0.1 -0.1)">
      <defs>
       <path d="M -19 4666 
L 3928 4666 
L 3928 4134 
L 2272 4134 
L 2272 0 
L 1638 0 
L 1638 4134 
L -19 4134 
L -19 4666 
z
" id="DejaVuSans-54" transform="scale(0.015625)"/>
       <path d="M 4122 4306 
L 4122 3641 
Q 3803 3938 3442 4084 
Q 3081 4231 2675 4231 
Q 1875 4231 1450 3742 
Q 1025 3253 1025 2328 
Q 1025 1406 1450 917 
Q 1875 428 2675 428 
Q 3081 428 3442 575 
Q 3803 722 4122 1019 
L 4122 359 
Q 3791 134 3420 21 
Q 3050 -91 2638 -91 
Q 1578 -91 968 557 
Q 359 1206 359 2328 
Q 359 3453 968 4101 
Q 1578 4750 2638 4750 
Q 3056 4750 3426 4639 
Q 3797 4528 4122 4306 
z
" id="DejaVuSans-43" transform="scale(0.015625)"/>
      </defs>
      <use xlink:href="#DejaVuSans-42"/>
      <use x="68.603516" xlink:href="#DejaVuSans-54"/>
      <use x="123.8125" xlink:href="#DejaVuSans-43"/>
     </g>
    </g>
   </g>
  </g>
 </g>
 <defs>
  <clipPath id="p2e289b5d41">
   <rect height="266.112" width="357.12" x="57.6" y="41.472"/>
  </clipPath>
 </defs>
</svg>
