<?xml version="1.0" encoding="utf-8" standalone="no"?>
<!DOCTYPE svg PUBLIC "-//W3C//DTD SVG 1.1//EN"
  "http://www.w3.org/Graphics/SVG/1.1/DTD/svg11.dtd">
<!-- Created with matplotlib (https://matplotlib.org/) -->
<svg height="345.6pt" version="1.1" viewBox="0 0 460.8 345.6" width="460.8pt" xmlns="http://www.w3.org/2000/svg" xmlns:xlink="http://www.w3.org/1999/xlink">
 <defs>
  <style type="text/css">
*{stroke-linecap:butt;stroke-linejoin:round;}
  </style>
 </defs>
 <g id="figure_1">
  <g id="patch_1">
   <path d="M 0 345.6 
L 460.8 345.6 
L 460.8 0 
L 0 0 
z
" style="fill:#ffffff;"/>
  </g>
  <g id="axes_1">
   <g id="patch_2">
    <path d="M 57.6 307.584 
L 414.72 307.584 
L 414.72 41.472 
L 57.6 41.472 
z
" style="fill:#ffffff;"/>
   </g>
   <g id="matplotlib.axis_1">
    <g id="xtick_1">
     <g id="line2d_1">
      <defs>
       <path d="M 0 0 
L 0 3.5 
" id="m783ca909da" style="stroke:#000000;stroke-width:0.8;"/>
      </defs>
      <g>
       <use style="stroke:#000000;stroke-width:0.8;" x="84.834827" xlink:href="#m783ca909da" y="307.584"/>
      </g>
     </g>
     <g id="text_1">
      <!-- 2015 -->
      <defs>
       <path d="M 19.1875 8.296875 
L 53.609375 8.296875 
L 53.609375 0 
L 7.328125 0 
L 7.328125 8.296875 
Q 12.9375 14.109375 22.625 23.890625 
Q 32.328125 33.6875 34.8125 36.53125 
Q 39.546875 41.84375 41.421875 45.53125 
Q 43.3125 49.21875 43.3125 52.78125 
Q 43.3125 58.59375 39.234375 62.25 
Q 35.15625 65.921875 28.609375 65.921875 
Q 23.96875 65.921875 18.8125 64.3125 
Q 13.671875 62.703125 7.8125 59.421875 
L 7.8125 69.390625 
Q 13.765625 71.78125 18.9375 73 
Q 24.125 74.21875 28.421875 74.21875 
Q 39.75 74.21875 46.484375 68.546875 
Q 53.21875 62.890625 53.21875 53.421875 
Q 53.21875 48.921875 51.53125 44.890625 
Q 49.859375 40.875 45.40625 35.40625 
Q 44.1875 33.984375 37.640625 27.21875 
Q 31.109375 20.453125 19.1875 8.296875 
z
" id="DejaVuSans-50"/>
       <path d="M 31.78125 66.40625 
Q 24.171875 66.40625 20.328125 58.90625 
Q 16.5 51.421875 16.5 36.375 
Q 16.5 21.390625 20.328125 13.890625 
Q 24.171875 6.390625 31.78125 6.390625 
Q 39.453125 6.390625 43.28125 13.890625 
Q 47.125 21.390625 47.125 36.375 
Q 47.125 51.421875 43.28125 58.90625 
Q 39.453125 66.40625 31.78125 66.40625 
z
M 31.78125 74.21875 
Q 44.046875 74.21875 50.515625 64.515625 
Q 56.984375 54.828125 56.984375 36.375 
Q 56.984375 17.96875 50.515625 8.265625 
Q 44.046875 -1.421875 31.78125 -1.421875 
Q 19.53125 -1.421875 13.0625 8.265625 
Q 6.59375 17.96875 6.59375 36.375 
Q 6.59375 54.828125 13.0625 64.515625 
Q 19.53125 74.21875 31.78125 74.21875 
z
" id="DejaVuSans-48"/>
       <path d="M 12.40625 8.296875 
L 28.515625 8.296875 
L 28.515625 63.921875 
L 10.984375 60.40625 
L 10.984375 69.390625 
L 28.421875 72.90625 
L 38.28125 72.90625 
L 38.28125 8.296875 
L 54.390625 8.296875 
L 54.390625 0 
L 12.40625 0 
z
" id="DejaVuSans-49"/>
       <path d="M 10.796875 72.90625 
L 49.515625 72.90625 
L 49.515625 64.59375 
L 19.828125 64.59375 
L 19.828125 46.734375 
Q 21.96875 47.46875 24.109375 47.828125 
Q 26.265625 48.1875 28.421875 48.1875 
Q 40.625 48.1875 47.75 41.5 
Q 54.890625 34.8125 54.890625 23.390625 
Q 54.890625 11.625 47.5625 5.09375 
Q 40.234375 -1.421875 26.90625 -1.421875 
Q 22.3125 -1.421875 17.546875 -0.640625 
Q 12.796875 0.140625 7.71875 1.703125 
L 7.71875 11.625 
Q 12.109375 9.234375 16.796875 8.0625 
Q 21.484375 6.890625 26.703125 6.890625 
Q 35.15625 6.890625 40.078125 11.328125 
Q 45.015625 15.765625 45.015625 23.390625 
Q 45.015625 31 40.078125 35.4375 
Q 35.15625 39.890625 26.703125 39.890625 
Q 22.75 39.890625 18.8125 39.015625 
Q 14.890625 38.140625 10.796875 36.28125 
z
" id="DejaVuSans-53"/>
      </defs>
      <g transform="translate(72.109827 322.182437)scale(0.1 -0.1)">
       <use xlink:href="#DejaVuSans-50"/>
       <use x="63.623047" xlink:href="#DejaVuSans-48"/>
       <use x="127.246094" xlink:href="#DejaVuSans-49"/>
       <use x="190.869141" xlink:href="#DejaVuSans-53"/>
      </g>
     </g>
    </g>
    <g id="xtick_2">
     <g id="line2d_2">
      <g>
       <use style="stroke:#000000;stroke-width:0.8;" x="138.919222" xlink:href="#m783ca909da" y="307.584"/>
      </g>
     </g>
     <g id="text_2">
      <!-- 2016 -->
      <defs>
       <path d="M 33.015625 40.375 
Q 26.375 40.375 22.484375 35.828125 
Q 18.609375 31.296875 18.609375 23.390625 
Q 18.609375 15.53125 22.484375 10.953125 
Q 26.375 6.390625 33.015625 6.390625 
Q 39.65625 6.390625 43.53125 10.953125 
Q 47.40625 15.53125 47.40625 23.390625 
Q 47.40625 31.296875 43.53125 35.828125 
Q 39.65625 40.375 33.015625 40.375 
z
M 52.59375 71.296875 
L 52.59375 62.3125 
Q 48.875 64.0625 45.09375 64.984375 
Q 41.3125 65.921875 37.59375 65.921875 
Q 27.828125 65.921875 22.671875 59.328125 
Q 17.53125 52.734375 16.796875 39.40625 
Q 19.671875 43.65625 24.015625 45.921875 
Q 28.375 48.1875 33.59375 48.1875 
Q 44.578125 48.1875 50.953125 41.515625 
Q 57.328125 34.859375 57.328125 23.390625 
Q 57.328125 12.15625 50.6875 5.359375 
Q 44.046875 -1.421875 33.015625 -1.421875 
Q 20.359375 -1.421875 13.671875 8.265625 
Q 6.984375 17.96875 6.984375 36.375 
Q 6.984375 53.65625 15.1875 63.9375 
Q 23.390625 74.21875 37.203125 74.21875 
Q 40.921875 74.21875 44.703125 73.484375 
Q 48.484375 72.75 52.59375 71.296875 
z
" id="DejaVuSans-54"/>
      </defs>
      <g transform="translate(126.194222 322.182437)scale(0.1 -0.1)">
       <use xlink:href="#DejaVuSans-50"/>
       <use x="63.623047" xlink:href="#DejaVuSans-48"/>
       <use x="127.246094" xlink:href="#DejaVuSans-49"/>
       <use x="190.869141" xlink:href="#DejaVuSans-54"/>
      </g>
     </g>
    </g>
    <g id="xtick_3">
     <g id="line2d_3">
      <g>
       <use style="stroke:#000000;stroke-width:0.8;" x="193.003616" xlink:href="#m783ca909da" y="307.584"/>
      </g>
     </g>
     <g id="text_3">
      <!-- 2017 -->
      <defs>
       <path d="M 8.203125 72.90625 
L 55.078125 72.90625 
L 55.078125 68.703125 
L 28.609375 0 
L 18.3125 0 
L 43.21875 64.59375 
L 8.203125 64.59375 
z
" id="DejaVuSans-55"/>
      </defs>
      <g transform="translate(180.278616 322.182437)scale(0.1 -0.1)">
       <use xlink:href="#DejaVuSans-50"/>
       <use x="63.623047" xlink:href="#DejaVuSans-48"/>
       <use x="127.246094" xlink:href="#DejaVuSans-49"/>
       <use x="190.869141" xlink:href="#DejaVuSans-55"/>
      </g>
     </g>
    </g>
    <g id="xtick_4">
     <g id="line2d_4">
      <g>
       <use style="stroke:#000000;stroke-width:0.8;" x="247.088011" xlink:href="#m783ca909da" y="307.584"/>
      </g>
     </g>
     <g id="text_4">
      <!-- 2018 -->
      <defs>
       <path d="M 31.78125 34.625 
Q 24.75 34.625 20.71875 30.859375 
Q 16.703125 27.09375 16.703125 20.515625 
Q 16.703125 13.921875 20.71875 10.15625 
Q 24.75 6.390625 31.78125 6.390625 
Q 38.8125 6.390625 42.859375 10.171875 
Q 46.921875 13.96875 46.921875 20.515625 
Q 46.921875 27.09375 42.890625 30.859375 
Q 38.875 34.625 31.78125 34.625 
z
M 21.921875 38.8125 
Q 15.578125 40.375 12.03125 44.71875 
Q 8.5 49.078125 8.5 55.328125 
Q 8.5 64.0625 14.71875 69.140625 
Q 20.953125 74.21875 31.78125 74.21875 
Q 42.671875 74.21875 48.875 69.140625 
Q 55.078125 64.0625 55.078125 55.328125 
Q 55.078125 49.078125 51.53125 44.71875 
Q 48 40.375 41.703125 38.8125 
Q 48.828125 37.15625 52.796875 32.3125 
Q 56.78125 27.484375 56.78125 20.515625 
Q 56.78125 9.90625 50.3125 4.234375 
Q 43.84375 -1.421875 31.78125 -1.421875 
Q 19.734375 -1.421875 13.25 4.234375 
Q 6.78125 9.90625 6.78125 20.515625 
Q 6.78125 27.484375 10.78125 32.3125 
Q 14.796875 37.15625 21.921875 38.8125 
z
M 18.3125 54.390625 
Q 18.3125 48.734375 21.84375 45.5625 
Q 25.390625 42.390625 31.78125 42.390625 
Q 38.140625 42.390625 41.71875 45.5625 
Q 45.3125 48.734375 45.3125 54.390625 
Q 45.3125 60.0625 41.71875 63.234375 
Q 38.140625 66.40625 31.78125 66.40625 
Q 25.390625 66.40625 21.84375 63.234375 
Q 18.3125 60.0625 18.3125 54.390625 
z
" id="DejaVuSans-56"/>
      </defs>
      <g transform="translate(234.363011 322.182437)scale(0.1 -0.1)">
       <use xlink:href="#DejaVuSans-50"/>
       <use x="63.623047" xlink:href="#DejaVuSans-48"/>
       <use x="127.246094" xlink:href="#DejaVuSans-49"/>
       <use x="190.869141" xlink:href="#DejaVuSans-56"/>
      </g>
     </g>
    </g>
    <g id="xtick_5">
     <g id="line2d_5">
      <g>
       <use style="stroke:#000000;stroke-width:0.8;" x="301.172406" xlink:href="#m783ca909da" y="307.584"/>
      </g>
     </g>
     <g id="text_5">
      <!-- 2019 -->
      <defs>
       <path d="M 10.984375 1.515625 
L 10.984375 10.5 
Q 14.703125 8.734375 18.5 7.8125 
Q 22.3125 6.890625 25.984375 6.890625 
Q 35.75 6.890625 40.890625 13.453125 
Q 46.046875 20.015625 46.78125 33.40625 
Q 43.953125 29.203125 39.59375 26.953125 
Q 35.25 24.703125 29.984375 24.703125 
Q 19.046875 24.703125 12.671875 31.3125 
Q 6.296875 37.9375 6.296875 49.421875 
Q 6.296875 60.640625 12.9375 67.421875 
Q 19.578125 74.21875 30.609375 74.21875 
Q 43.265625 74.21875 49.921875 64.515625 
Q 56.59375 54.828125 56.59375 36.375 
Q 56.59375 19.140625 48.40625 8.859375 
Q 40.234375 -1.421875 26.421875 -1.421875 
Q 22.703125 -1.421875 18.890625 -0.6875 
Q 15.09375 0.046875 10.984375 1.515625 
z
M 30.609375 32.421875 
Q 37.25 32.421875 41.125 36.953125 
Q 45.015625 41.5 45.015625 49.421875 
Q 45.015625 57.28125 41.125 61.84375 
Q 37.25 66.40625 30.609375 66.40625 
Q 23.96875 66.40625 20.09375 61.84375 
Q 16.21875 57.28125 16.21875 49.421875 
Q 16.21875 41.5 20.09375 36.953125 
Q 23.96875 32.421875 30.609375 32.421875 
z
" id="DejaVuSans-57"/>
      </defs>
      <g transform="translate(288.447406 322.182437)scale(0.1 -0.1)">
       <use xlink:href="#DejaVuSans-50"/>
       <use x="63.623047" xlink:href="#DejaVuSans-48"/>
       <use x="127.246094" xlink:href="#DejaVuSans-49"/>
       <use x="190.869141" xlink:href="#DejaVuSans-57"/>
      </g>
     </g>
    </g>
    <g id="xtick_6">
     <g id="line2d_6">
      <g>
       <use style="stroke:#000000;stroke-width:0.8;" x="355.256801" xlink:href="#m783ca909da" y="307.584"/>
      </g>
     </g>
     <g id="text_6">
      <!-- 2020 -->
      <g transform="translate(342.531801 322.182437)scale(0.1 -0.1)">
       <use xlink:href="#DejaVuSans-50"/>
       <use x="63.623047" xlink:href="#DejaVuSans-48"/>
       <use x="127.246094" xlink:href="#DejaVuSans-50"/>
       <use x="190.869141" xlink:href="#DejaVuSans-48"/>
      </g>
     </g>
    </g>
    <g id="xtick_7">
     <g id="line2d_7">
      <g>
       <use style="stroke:#000000;stroke-width:0.8;" x="409.341196" xlink:href="#m783ca909da" y="307.584"/>
      </g>
     </g>
     <g id="text_7">
      <!-- 2021 -->
      <g transform="translate(396.616196 322.182437)scale(0.1 -0.1)">
       <use xlink:href="#DejaVuSans-50"/>
       <use x="63.623047" xlink:href="#DejaVuSans-48"/>
       <use x="127.246094" xlink:href="#DejaVuSans-50"/>
       <use x="190.869141" xlink:href="#DejaVuSans-49"/>
      </g>
     </g>
    </g>
    <g id="text_8">
     <!-- year -->
     <defs>
      <path d="M 32.171875 -5.078125 
Q 28.375 -14.84375 24.75 -17.8125 
Q 21.140625 -20.796875 15.09375 -20.796875 
L 7.90625 -20.796875 
L 7.90625 -13.28125 
L 13.1875 -13.28125 
Q 16.890625 -13.28125 18.9375 -11.515625 
Q 21 -9.765625 23.484375 -3.21875 
L 25.09375 0.875 
L 2.984375 54.6875 
L 12.5 54.6875 
L 29.59375 11.921875 
L 46.6875 54.6875 
L 56.203125 54.6875 
z
" id="DejaVuSans-121"/>
      <path d="M 56.203125 29.59375 
L 56.203125 25.203125 
L 14.890625 25.203125 
Q 15.484375 15.921875 20.484375 11.0625 
Q 25.484375 6.203125 34.421875 6.203125 
Q 39.59375 6.203125 44.453125 7.46875 
Q 49.3125 8.734375 54.109375 11.28125 
L 54.109375 2.78125 
Q 49.265625 0.734375 44.1875 -0.34375 
Q 39.109375 -1.421875 33.890625 -1.421875 
Q 20.796875 -1.421875 13.15625 6.1875 
Q 5.515625 13.8125 5.515625 26.8125 
Q 5.515625 40.234375 12.765625 48.109375 
Q 20.015625 56 32.328125 56 
Q 43.359375 56 49.78125 48.890625 
Q 56.203125 41.796875 56.203125 29.59375 
z
M 47.21875 32.234375 
Q 47.125 39.59375 43.09375 43.984375 
Q 39.0625 48.390625 32.421875 48.390625 
Q 24.90625 48.390625 20.390625 44.140625 
Q 15.875 39.890625 15.1875 32.171875 
z
" id="DejaVuSans-101"/>
      <path d="M 34.28125 27.484375 
Q 23.390625 27.484375 19.1875 25 
Q 14.984375 22.515625 14.984375 16.5 
Q 14.984375 11.71875 18.140625 8.90625 
Q 21.296875 6.109375 26.703125 6.109375 
Q 34.1875 6.109375 38.703125 11.40625 
Q 43.21875 16.703125 43.21875 25.484375 
L 43.21875 27.484375 
z
M 52.203125 31.203125 
L 52.203125 0 
L 43.21875 0 
L 43.21875 8.296875 
Q 40.140625 3.328125 35.546875 0.953125 
Q 30.953125 -1.421875 24.3125 -1.421875 
Q 15.921875 -1.421875 10.953125 3.296875 
Q 6 8.015625 6 15.921875 
Q 6 25.140625 12.171875 29.828125 
Q 18.359375 34.515625 30.609375 34.515625 
L 43.21875 34.515625 
L 43.21875 35.40625 
Q 43.21875 41.609375 39.140625 45 
Q 35.0625 48.390625 27.6875 48.390625 
Q 23 48.390625 18.546875 47.265625 
Q 14.109375 46.140625 10.015625 43.890625 
L 10.015625 52.203125 
Q 14.9375 54.109375 19.578125 55.046875 
Q 24.21875 56 28.609375 56 
Q 40.484375 56 46.34375 49.84375 
Q 52.203125 43.703125 52.203125 31.203125 
z
" id="DejaVuSans-97"/>
      <path d="M 41.109375 46.296875 
Q 39.59375 47.171875 37.8125 47.578125 
Q 36.03125 48 33.890625 48 
Q 26.265625 48 22.1875 43.046875 
Q 18.109375 38.09375 18.109375 28.8125 
L 18.109375 0 
L 9.078125 0 
L 9.078125 54.6875 
L 18.109375 54.6875 
L 18.109375 46.1875 
Q 20.953125 51.171875 25.484375 53.578125 
Q 30.03125 56 36.53125 56 
Q 37.453125 56 38.578125 55.875 
Q 39.703125 55.765625 41.0625 55.515625 
z
" id="DejaVuSans-114"/>
     </defs>
     <g transform="translate(225.004531 335.860562)scale(0.1 -0.1)">
      <use xlink:href="#DejaVuSans-121"/>
      <use x="59.179688" xlink:href="#DejaVuSans-101"/>
      <use x="120.703125" xlink:href="#DejaVuSans-97"/>
      <use x="181.982422" xlink:href="#DejaVuSans-114"/>
     </g>
    </g>
   </g>
   <g id="matplotlib.axis_2">
    <g id="ytick_1">
     <g id="line2d_8">
      <defs>
       <path d="M 0 0 
L -3.5 0 
" id="m6bdfccc2de" style="stroke:#000000;stroke-width:0.8;"/>
      </defs>
      <g>
       <use style="stroke:#000000;stroke-width:0.8;" x="57.6" xlink:href="#m6bdfccc2de" y="206.595611"/>
      </g>
     </g>
     <g id="text_9">
      <!-- $1k -->
      <defs>
       <path d="M 33.796875 -14.703125 
L 28.90625 -14.703125 
L 28.859375 0 
Q 23.734375 0.09375 18.609375 1.1875 
Q 13.484375 2.296875 8.296875 4.5 
L 8.296875 13.28125 
Q 13.28125 10.15625 18.375 8.5625 
Q 23.484375 6.984375 28.90625 6.9375 
L 28.90625 29.203125 
Q 18.109375 30.953125 13.203125 35.15625 
Q 8.296875 39.359375 8.296875 46.6875 
Q 8.296875 54.640625 13.625 59.21875 
Q 18.953125 63.8125 28.90625 64.5 
L 28.90625 75.984375 
L 33.796875 75.984375 
L 33.796875 64.65625 
Q 38.328125 64.453125 42.578125 63.6875 
Q 46.828125 62.9375 50.875 61.625 
L 50.875 53.078125 
Q 46.828125 55.125 42.546875 56.25 
Q 38.28125 57.375 33.796875 57.5625 
L 33.796875 36.71875 
Q 44.875 35.015625 50.09375 30.609375 
Q 55.328125 26.21875 55.328125 18.609375 
Q 55.328125 10.359375 49.78125 5.59375 
Q 44.234375 0.828125 33.796875 0.09375 
z
M 28.90625 37.59375 
L 28.90625 57.625 
Q 23.25 56.984375 20.265625 54.390625 
Q 17.28125 51.8125 17.28125 47.515625 
Q 17.28125 43.3125 20.03125 40.96875 
Q 22.796875 38.625 28.90625 37.59375 
z
M 33.796875 28.21875 
L 33.796875 7.078125 
Q 39.984375 7.90625 43.140625 10.59375 
Q 46.296875 13.28125 46.296875 17.671875 
Q 46.296875 21.96875 43.28125 24.5 
Q 40.28125 27.046875 33.796875 28.21875 
z
" id="DejaVuSans-36"/>
       <path d="M 9.078125 75.984375 
L 18.109375 75.984375 
L 18.109375 31.109375 
L 44.921875 54.6875 
L 56.390625 54.6875 
L 27.390625 29.109375 
L 57.625 0 
L 45.90625 0 
L 18.109375 26.703125 
L 18.109375 0 
L 9.078125 0 
z
" id="DejaVuSans-107"/>
      </defs>
      <g transform="translate(32.084375 210.39483)scale(0.1 -0.1)">
       <use xlink:href="#DejaVuSans-36"/>
       <use x="63.623047" xlink:href="#DejaVuSans-49"/>
       <use x="127.246094" xlink:href="#DejaVuSans-107"/>
      </g>
     </g>
    </g>
    <g id="ytick_2">
     <g id="line2d_9">
      <g>
       <use style="stroke:#000000;stroke-width:0.8;" x="57.6" xlink:href="#m6bdfccc2de" y="87.967413"/>
      </g>
     </g>
     <g id="text_10">
      <!-- $10k -->
      <g transform="translate(25.721875 91.766632)scale(0.1 -0.1)">
       <use xlink:href="#DejaVuSans-36"/>
       <use x="63.623047" xlink:href="#DejaVuSans-49"/>
       <use x="127.246094" xlink:href="#DejaVuSans-48"/>
       <use x="190.869141" xlink:href="#DejaVuSans-107"/>
      </g>
     </g>
    </g>
    <g id="ytick_3">
     <g id="line2d_10">
      <defs>
       <path d="M 0 0 
L -2 0 
" id="m19225c786e" style="stroke:#000000;stroke-width:0.6;"/>
      </defs>
      <g>
       <use style="stroke:#000000;stroke-width:0.6;" x="57.6" xlink:href="#m19225c786e" y="289.513163"/>
      </g>
     </g>
    </g>
    <g id="ytick_4">
     <g id="line2d_11">
      <g>
       <use style="stroke:#000000;stroke-width:0.6;" x="57.6" xlink:href="#m19225c786e" y="268.623774"/>
      </g>
     </g>
    </g>
    <g id="ytick_5">
     <g id="line2d_12">
      <g>
       <use style="stroke:#000000;stroke-width:0.6;" x="57.6" xlink:href="#m19225c786e" y="253.802517"/>
      </g>
     </g>
    </g>
    <g id="ytick_6">
     <g id="line2d_13">
      <g>
       <use style="stroke:#000000;stroke-width:0.6;" x="57.6" xlink:href="#m19225c786e" y="242.306257"/>
      </g>
     </g>
    </g>
    <g id="ytick_7">
     <g id="line2d_14">
      <g>
       <use style="stroke:#000000;stroke-width:0.6;" x="57.6" xlink:href="#m19225c786e" y="232.913129"/>
      </g>
     </g>
    </g>
    <g id="ytick_8">
     <g id="line2d_15">
      <g>
       <use style="stroke:#000000;stroke-width:0.6;" x="57.6" xlink:href="#m19225c786e" y="224.971352"/>
      </g>
     </g>
    </g>
    <g id="ytick_9">
     <g id="line2d_16">
      <g>
       <use style="stroke:#000000;stroke-width:0.6;" x="57.6" xlink:href="#m19225c786e" y="218.091871"/>
      </g>
     </g>
    </g>
    <g id="ytick_10">
     <g id="line2d_17">
      <g>
       <use style="stroke:#000000;stroke-width:0.6;" x="57.6" xlink:href="#m19225c786e" y="212.02374"/>
      </g>
     </g>
    </g>
    <g id="ytick_11">
     <g id="line2d_18">
      <g>
       <use style="stroke:#000000;stroke-width:0.6;" x="57.6" xlink:href="#m19225c786e" y="170.884965"/>
      </g>
     </g>
    </g>
    <g id="ytick_12">
     <g id="line2d_19">
      <g>
       <use style="stroke:#000000;stroke-width:0.6;" x="57.6" xlink:href="#m19225c786e" y="149.995577"/>
      </g>
     </g>
    </g>
    <g id="ytick_13">
     <g id="line2d_20">
      <g>
       <use style="stroke:#000000;stroke-width:0.6;" x="57.6" xlink:href="#m19225c786e" y="135.17432"/>
      </g>
     </g>
    </g>
    <g id="ytick_14">
     <g id="line2d_21">
      <g>
       <use style="stroke:#000000;stroke-width:0.6;" x="57.6" xlink:href="#m19225c786e" y="123.678059"/>
      </g>
     </g>
    </g>
    <g id="ytick_15">
     <g id="line2d_22">
      <g>
       <use style="stroke:#000000;stroke-width:0.6;" x="57.6" xlink:href="#m19225c786e" y="114.284931"/>
      </g>
     </g>
    </g>
    <g id="ytick_16">
     <g id="line2d_23">
      <g>
       <use style="stroke:#000000;stroke-width:0.6;" x="57.6" xlink:href="#m19225c786e" y="106.343154"/>
      </g>
     </g>
    </g>
    <g id="ytick_17">
     <g id="line2d_24">
      <g>
       <use style="stroke:#000000;stroke-width:0.6;" x="57.6" xlink:href="#m19225c786e" y="99.463674"/>
      </g>
     </g>
    </g>
    <g id="ytick_18">
     <g id="line2d_25">
      <g>
       <use style="stroke:#000000;stroke-width:0.6;" x="57.6" xlink:href="#m19225c786e" y="93.395542"/>
      </g>
     </g>
    </g>
    <g id="ytick_19">
     <g id="line2d_26">
      <g>
       <use style="stroke:#000000;stroke-width:0.6;" x="57.6" xlink:href="#m19225c786e" y="52.256768"/>
      </g>
     </g>
    </g>
    <g id="text_11">
     <!-- price -->
     <defs>
      <path d="M 18.109375 8.203125 
L 18.109375 -20.796875 
L 9.078125 -20.796875 
L 9.078125 54.6875 
L 18.109375 54.6875 
L 18.109375 46.390625 
Q 20.953125 51.265625 25.265625 53.625 
Q 29.59375 56 35.59375 56 
Q 45.5625 56 51.78125 48.09375 
Q 58.015625 40.1875 58.015625 27.296875 
Q 58.015625 14.40625 51.78125 6.484375 
Q 45.5625 -1.421875 35.59375 -1.421875 
Q 29.59375 -1.421875 25.265625 0.953125 
Q 20.953125 3.328125 18.109375 8.203125 
z
M 48.6875 27.296875 
Q 48.6875 37.203125 44.609375 42.84375 
Q 40.53125 48.484375 33.40625 48.484375 
Q 26.265625 48.484375 22.1875 42.84375 
Q 18.109375 37.203125 18.109375 27.296875 
Q 18.109375 17.390625 22.1875 11.75 
Q 26.265625 6.109375 33.40625 6.109375 
Q 40.53125 6.109375 44.609375 11.75 
Q 48.6875 17.390625 48.6875 27.296875 
z
" id="DejaVuSans-112"/>
      <path d="M 9.421875 54.6875 
L 18.40625 54.6875 
L 18.40625 0 
L 9.421875 0 
z
M 9.421875 75.984375 
L 18.40625 75.984375 
L 18.40625 64.59375 
L 9.421875 64.59375 
z
" id="DejaVuSans-105"/>
      <path d="M 48.78125 52.59375 
L 48.78125 44.1875 
Q 44.96875 46.296875 41.140625 47.34375 
Q 37.3125 48.390625 33.40625 48.390625 
Q 24.65625 48.390625 19.8125 42.84375 
Q 14.984375 37.3125 14.984375 27.296875 
Q 14.984375 17.28125 19.8125 11.734375 
Q 24.65625 6.203125 33.40625 6.203125 
Q 37.3125 6.203125 41.140625 7.25 
Q 44.96875 8.296875 48.78125 10.40625 
L 48.78125 2.09375 
Q 45.015625 0.34375 40.984375 -0.53125 
Q 36.96875 -1.421875 32.421875 -1.421875 
Q 20.0625 -1.421875 12.78125 6.34375 
Q 5.515625 14.109375 5.515625 27.296875 
Q 5.515625 40.671875 12.859375 48.328125 
Q 20.21875 56 33.015625 56 
Q 37.15625 56 41.109375 55.140625 
Q 45.0625 54.296875 48.78125 52.59375 
z
" id="DejaVuSans-99"/>
     </defs>
     <g transform="translate(19.642187 186.972531)rotate(-90)scale(0.1 -0.1)">
      <use xlink:href="#DejaVuSans-112"/>
      <use x="63.476562" xlink:href="#DejaVuSans-114"/>
      <use x="104.589844" xlink:href="#DejaVuSans-105"/>
      <use x="132.373047" xlink:href="#DejaVuSans-99"/>
      <use x="187.353516" xlink:href="#DejaVuSans-101"/>
     </g>
    </g>
   </g>
   <g id="line2d_27">
    <path clip-path="url(#pb5fbcdd399)" d="M 73.832727 246.901951 
L 74.12908 254.476663 
L 74.277257 252.668773 
L 74.425433 253.954725 
L 74.573609 253.526341 
L 74.721786 249.3875 
L 75.166315 253.236348 
L 75.314492 253.864378 
L 75.462668 256.828881 
L 75.610844 257.062983 
L 75.759021 255.512705 
L 75.968937 255.958 
L 76.117114 257.117898 
L 76.26529 259.300818 
L 76.561643 265.216734 
L 77.154349 258.515786 
L 77.302525 259.007877 
L 77.450702 258.90254 
L 77.895231 253.690584 
L 78.043407 254.480578 
L 78.191584 256.099211 
L 78.33976 255.937859 
L 78.487937 254.917004 
L 78.636113 255.16636 
L 78.784289 256.060171 
L 78.932466 255.573988 
L 79.080642 256.018471 
L 79.228819 259.457257 
L 79.376995 259.46732 
L 79.525172 261.085426 
L 79.673348 259.994767 
L 79.821524 260.243742 
L 79.969701 259.572378 
L 80.117877 262.848034 
L 80.266054 261.378519 
L 80.41423 262.430621 
L 80.47597 264.381254 
L 80.624147 264.359117 
L 80.9205 263.636993 
L 81.216852 260.786615 
L 81.365029 261.810024 
L 81.513205 261.350178 
L 81.661382 258.766207 
L 81.809558 258.249723 
L 81.957735 258.140319 
L 82.105911 250.85402 
L 82.254087 251.199401 
L 82.55044 256.972502 
L 82.698617 255.387699 
L 82.846793 255.450164 
L 82.99497 257.100044 
L 83.143146 256.370612 
L 83.439499 260.55703 
L 83.587675 260.25396 
L 83.884028 256.867141 
L 84.032204 257.079452 
L 84.180381 258.046529 
L 84.328557 257.865033 
L 84.476734 256.928689 
L 84.62491 257.060239 
L 84.773087 256.710183 
L 84.983003 256.548268 
L 85.13118 256.266473 
L 85.427532 257.874789 
L 85.575709 256.873976 
L 85.723885 257.156373 
L 85.872062 257.113778 
L 86.168415 260.356248 
L 86.316591 261.220607 
L 86.612944 260.309463 
L 86.76112 261.069109 
L 86.909297 260.44262 
L 87.057473 261.371059 
L 87.353826 265.334209 
L 87.502002 266.702312 
L 87.650179 265.647714 
L 87.798355 263.71968 
L 87.946532 265.163716 
L 88.094708 263.41921 
L 88.242885 263.004862 
L 88.539237 265.458413 
L 88.687414 264.039192 
L 88.83559 265.969661 
L 88.983767 265.745061 
L 89.280119 266.811621 
L 89.428296 265.268197 
L 89.490036 266.232938 
L 89.638213 266.10522 
L 89.934565 275.17068 
L 90.379095 269.605063 
L 90.527271 271.565521 
L 90.675447 270.297581 
L 90.9718 274.88676 
L 91.119977 274.473412 
L 91.41633 295.488 
L 91.564506 287.038783 
L 91.712682 287.467766 
L 91.860859 289.704139 
L 92.157212 285.820792 
L 92.305388 286.676691 
L 92.601741 281.554461 
L 92.749917 281.671579 
L 93.194447 273.394 
L 93.342623 275.311273 
L 93.4908 281.444216 
L 93.638976 281.532393 
L 93.935329 285.201101 
L 94.145245 280.501399 
L 94.293422 282.927861 
L 94.441598 283.023158 
L 94.589775 285.284088 
L 94.886128 282.819165 
L 95.18248 284.57707 
L 95.478833 284.79521 
L 95.62701 284.192307 
L 95.923363 276.530072 
L 96.071539 281.244174 
L 96.219715 281.459636 
L 96.367892 279.350865 
L 96.516068 280.91394 
L 96.812421 279.314925 
L 96.960597 279.156666 
L 97.108774 280.990296 
L 97.25695 280.358865 
L 97.405127 280.391225 
L 97.70148 280.892145 
L 97.849656 277.233608 
L 97.997832 277.146405 
L 98.504102 275.956653 
L 98.800455 271.866406 
L 98.948631 273.465639 
L 99.096808 272.88597 
L 99.244984 273.535488 
L 99.39316 272.871049 
L 99.541337 273.228481 
L 99.689513 270.439699 
L 99.83769 270.058642 
L 99.985866 269.249225 
L 100.134043 269.603313 
L 100.430395 271.831669 
L 100.726748 270.265659 
L 100.874925 271.174272 
L 101.023101 276.734699 
L 101.171278 275.812316 
L 101.319454 275.650664 
L 101.46763 275.992306 
L 101.615807 274.44264 
L 101.763983 274.67774 
L 101.91216 278.931722 
L 102.060336 278.806013 
L 102.208513 278.320732 
L 102.356689 278.63262 
L 102.504865 277.443091 
L 102.653042 279.541553 
L 102.801218 278.528448 
L 102.949395 279.222021 
L 103.159311 277.400312 
L 103.307488 277.134249 
L 103.455664 277.260001 
L 103.603841 275.877514 
L 104.344723 280.970651 
L 104.492899 280.866003 
L 104.641075 280.953195 
L 104.937428 284.799911 
L 105.233781 282.634005 
L 105.381958 283.932762 
L 105.530134 283.821927 
L 105.67831 283.997526 
L 105.826487 283.529822 
L 105.974663 281.145539 
L 106.12284 281.384782 
L 106.271016 280.885608 
L 106.715545 284.736479 
L 106.863722 282.471972 
L 107.011898 283.250769 
L 107.160075 283.259894 
L 107.308251 280.953195 
L 107.518168 281.848866 
L 107.666344 281.220046 
L 107.814521 280.042813 
L 107.962697 280.330837 
L 108.110873 280.95974 
L 108.25905 282.361991 
L 108.555403 279.298021 
L 108.851756 280.055675 
L 108.999932 279.658433 
L 109.148108 279.882306 
L 109.296285 280.903042 
L 109.592638 280.637824 
L 109.740814 280.953195 
L 109.88899 280.811583 
L 110.185343 281.877733 
L 110.481696 281.130212 
L 110.629873 280.044957 
L 110.778049 280.363179 
L 110.926225 279.916506 
L 111.074402 280.744182 
L 111.667108 280.746354 
L 111.96346 282.270146 
L 112.025201 283.921205 
L 112.173377 283.262176 
L 112.321553 283.246207 
L 112.46973 283.600971 
L 112.766083 283.303262 
L 112.914259 283.932762 
L 113.062436 282.65204 
L 113.210612 282.525927 
L 113.358788 282.582189 
L 113.655141 282.317168 
L 114.099671 280.807232 
L 114.247847 277.831766 
L 114.396023 278.165493 
L 114.5442 278.221325 
L 114.692376 279.139814 
L 114.840553 279.013597 
L 114.988729 279.281122 
L 115.136906 278.640963 
L 115.433258 280.010672 
L 115.729611 279.355095 
L 115.877788 277.813288 
L 116.025964 278.221325 
L 116.322317 275.391505 
L 116.68041 276.913911 
L 116.828586 276.726659 
L 116.976763 275.820214 
L 117.124939 273.688733 
L 117.421292 274.780209 
L 117.569468 273.901381 
L 117.717645 274.199039 
L 118.162174 266.790072 
L 118.458527 270.823596 
L 118.606703 271.116562 
L 118.75488 272.530899 
L 118.903056 272.275869 
L 119.199409 273.367632 
L 119.347586 272.366279 
L 119.495762 272.951302 
L 119.643938 272.69233 
L 119.792115 272.910227 
L 119.940291 270.676842 
L 120.088468 270.601837 
L 120.236644 269.894682 
L 120.532997 269.589313 
L 120.82935 270.777019 
L 121.039266 271.884698 
L 121.187443 271.700246 
L 121.335619 271.952435 
L 121.483796 271.226629 
L 121.780149 272.4402 
L 121.928325 272.255595 
L 122.076501 275.798497 
L 122.224678 274.999363 
L 122.372854 275.118056 
L 122.521031 273.97754 
L 122.817384 275.194085 
L 122.96556 274.882882 
L 123.261913 276.292365 
L 123.410089 276.398099 
L 123.558266 286.735236 
L 123.854618 281.128023 
L 124.299148 282.724244 
L 124.447324 286.879442 
L 124.743677 283.255331 
L 124.891853 283.497723 
L 125.04003 282.000041 
L 125.336383 282.591197 
L 125.484559 282.29925 
L 125.546299 282.735535 
L 125.694476 282.474219 
L 125.842652 282.948267 
L 126.139005 281.200313 
L 126.287181 280.154392 
L 126.435358 280.152244 
L 126.583534 279.350865 
L 126.731711 280.514377 
L 126.879887 280.447363 
L 127.028064 280.096427 
L 127.324416 282.198575 
L 127.620769 282.245532 
L 127.768946 282.51693 
L 127.917122 282.355265 
L 128.065299 281.649461 
L 128.361651 282.04236 
L 128.509828 282.968681 
L 128.658004 282.173996 
L 128.806181 282.250006 
L 128.954357 281.30784 
L 129.102534 281.174014 
L 129.25071 281.349594 
L 129.398886 281.698133 
L 129.547063 280.304978 
L 129.843416 280.972834 
L 130.053332 280.648666 
L 130.201509 280.705086 
L 130.349685 280.393383 
L 130.497861 280.494912 
L 130.646038 280.038526 
L 130.794214 278.835318 
L 130.942391 279.486393 
L 131.090567 279.628656 
L 131.535096 278.628449 
L 131.683273 278.992591 
L 131.979626 277.608431 
L 132.127802 277.134249 
L 132.424155 273.929927 
L 132.572331 275.67232 
L 132.720508 275.319095 
L 132.868684 274.155045 
L 133.016861 274.768598 
L 133.313214 272.826311 
L 133.609566 271.505554 
L 133.757743 271.21218 
L 134.202272 266.296916 
L 134.350449 264.023483 
L 134.498625 266.246055 
L 135.004894 252.334711 
L 135.301247 257.20038 
L 135.449424 255.573988 
L 135.5976 257.351941 
L 135.745777 256.409888 
L 136.042129 266.755281 
L 136.190306 262.456515 
L 136.338482 262.670258 
L 136.486659 263.261117 
L 136.634835 265.271415 
L 136.931188 262.924851 
L 137.079364 263.001782 
L 137.375717 264.974582 
L 137.523894 264.194966 
L 137.968423 265.290728 
L 138.116599 263.99365 
L 138.264776 260.289007 
L 138.412952 259.511908 
L 138.561129 259.606965 
L 138.857481 256.809762 
L 139.215574 259.346696 
L 139.511927 258.777555 
L 139.660104 255.245774 
L 139.80828 255.268296 
L 139.956457 254.380187 
L 140.104633 251.836404 
L 140.252809 251.589046 
L 140.400986 251.846323 
L 140.549162 247.512757 
L 140.697339 249.480979 
L 140.845515 249.628049 
L 140.993692 248.405052 
L 141.141868 246.009626 
L 141.290044 247.17303 
L 141.438221 247.04296 
L 141.586397 246.198192 
L 141.734574 246.342857 
L 141.88275 248.579328 
L 142.179103 249.29537 
L 142.327279 248.611925 
L 142.475456 247.167368 
L 142.623632 247.091556 
L 142.771809 251.624839 
L 142.919985 250.944108 
L 143.068161 251.009948 
L 143.216338 249.720777 
L 143.364514 250.483156 
L 143.574431 249.560392 
L 143.722607 249.666071 
L 143.870784 250.07539 
L 144.01896 249.70769 
L 144.167137 249.842288 
L 144.315313 250.183332 
L 144.463489 246.820904 
L 144.759842 248.008741 
L 145.056195 247.914446 
L 145.352548 249.793411 
L 145.500724 250.039459 
L 145.648901 258.614677 
L 145.797077 255.432879 
L 145.945254 256.134237 
L 146.09343 255.48209 
L 146.241607 256.424793 
L 146.389783 251.260664 
L 146.537959 252.497704 
L 146.686136 256.108638 
L 146.834312 255.439526 
L 146.982489 253.421398 
L 147.130665 254.87885 
L 147.278842 254.823642 
L 147.427018 254.454484 
L 147.575194 256.405823 
L 147.871547 256.681573 
L 148.019724 257.990616 
L 148.081464 257.394734 
L 148.22964 257.203132 
L 148.377817 257.826025 
L 148.525993 255.16107 
L 148.67417 255.564658 
L 148.822346 256.91911 
L 148.970522 256.905429 
L 149.118699 257.340903 
L 149.266875 256.986201 
L 149.415052 256.221907 
L 149.563228 256.4926 
L 149.859581 254.861755 
L 150.007757 252.879617 
L 150.155934 253.779339 
L 150.600463 250.998969 
L 150.748639 251.192054 
L 150.896816 249.225791 
L 151.044992 249.032878 
L 151.193169 249.156306 
L 151.341345 251.198176 
L 151.489522 250.685224 
L 151.637698 250.734955 
L 151.785874 249.819632 
L 152.082227 249.65894 
L 152.230404 249.162191 
L 152.588497 249.466769 
L 152.736673 250.801743 
L 152.88485 251.086867 
L 153.181202 253.729154 
L 153.477555 251.990364 
L 153.625732 252.033904 
L 153.773908 251.92326 
L 153.922085 251.642128 
L 154.070261 251.08198 
L 154.218437 252.3272 
L 154.51479 251.72742 
L 154.811143 251.656951 
L 154.95932 251.212872 
L 155.107496 252.586941 
L 155.255672 252.475105 
L 155.403849 252.060046 
L 155.552025 252.116108 
L 155.700202 251.523695 
L 155.848378 251.529856 
L 155.996554 251.733606 
L 156.292907 251.540949 
L 156.441084 250.465044 
L 156.58926 250.772589 
L 156.737437 251.717524 
L 156.885613 251.928228 
L 157.391882 251.178588 
L 157.540059 251.112533 
L 157.688235 250.796883 
L 157.984588 250.953857 
L 158.280941 251.361293 
L 158.72547 250.656136 
L 158.873647 250.833346 
L 159.021823 250.766517 
L 159.17 250.111345 
L 159.318176 250.00834 
L 159.466352 250.389047 
L 159.614529 250.245802 
L 160.059058 247.800832 
L 160.207235 248.224428 
L 160.355411 247.702339 
L 160.651764 246.442132 
L 160.79994 245.924443 
L 160.948117 248.345932 
L 161.24447 247.153781 
L 161.392646 247.927085 
L 161.602563 247.519597 
L 161.750739 248.348249 
L 161.898915 247.700051 
L 162.047092 248.111281 
L 162.195268 247.966172 
L 162.343445 246.646861 
L 162.639798 246.764697 
L 162.787974 246.54831 
L 162.93615 247.632592 
L 163.38068 247.089295 
L 163.528856 247.089295 
L 163.677032 246.874921 
L 163.825209 247.260304 
L 163.973385 247.303429 
L 164.121562 247.208148 
L 164.269738 249.043446 
L 164.417915 248.579328 
L 164.566091 248.520008 
L 164.714267 248.97186 
L 165.01062 248.196695 
L 165.306973 247.348863 
L 165.45515 245.116169 
L 165.603326 239.30038 
L 165.751502 239.672047 
L 165.899679 238.93041 
L 166.047855 239.169327 
L 166.109595 238.635951 
L 166.257772 238.535298 
L 166.405948 235.629001 
L 166.702301 235.107574 
L 166.850478 234.169957 
L 166.998654 234.962622 
L 167.14683 234.513366 
L 167.295007 235.138944 
L 167.443183 234.884946 
L 167.59136 232.338468 
L 167.887713 224.649991 
L 168.035889 226.045242 
L 168.184065 225.379972 
L 168.332242 220.308498 
L 168.480418 221.491798 
L 168.776771 220.478873 
L 168.924948 222.301629 
L 169.2213 233.24737 
L 169.517653 227.590723 
L 169.66583 227.604664 
L 169.814006 230.451026 
L 169.962182 228.372556 
L 170.258535 229.596987 
L 170.406712 226.971853 
L 170.616628 226.74587 
L 170.764805 224.699751 
L 170.912981 228.107496 
L 171.061158 226.188224 
L 171.209334 227.179623 
L 171.35751 226.667465 
L 171.505687 229.543072 
L 171.653863 227.496336 
L 171.80204 228.713328 
L 172.098393 228.975168 
L 172.246569 227.648835 
L 172.394745 228.436279 
L 172.691098 227.74894 
L 172.839275 227.942718 
L 172.987451 226.505706 
L 173.135628 226.989454 
L 173.283804 227.008593 
L 173.43198 227.561305 
L 173.580157 227.613185 
L 173.728333 228.740244 
L 174.024686 227.902969 
L 174.321039 228.648471 
L 174.617392 228.392215 
L 174.765568 228.238287 
L 174.913745 228.390642 
L 175.123661 232.377543 
L 175.271838 237.633454 
L 175.568191 234.81184 
L 175.716367 235.102198 
L 176.01272 233.544664 
L 176.309073 233.97149 
L 176.457249 233.595975 
L 176.901778 234.165557 
L 177.049955 235.513274 
L 177.198131 235.805806 
L 177.346308 234.887622 
L 177.494484 235.265516 
L 177.790837 235.049365 
L 177.939013 234.508937 
L 178.08719 234.54349 
L 178.235366 234.063603 
L 178.679895 234.859079 
L 178.828072 234.690821 
L 178.976248 235.560257 
L 179.124425 235.203538 
L 179.272601 235.185587 
L 179.420778 234.882269 
L 179.568954 235.063687 
L 179.630694 235.348269 
L 179.778871 235.057421 
L 180.075223 232.177384 
L 180.2234 232.350357 
L 180.519753 231.679525 
L 180.667929 230.701302 
L 180.816106 230.986703 
L 180.964282 230.932966 
L 181.112458 232.339317 
L 181.556988 232.004146 
L 181.705164 232.301968 
L 182.001517 232.402192 
L 182.149693 232.072527 
L 182.446046 232.204479 
L 182.594223 233.15843 
L 182.742399 233.231816 
L 182.890575 232.669845 
L 183.038752 232.68865 
L 183.186928 232.841909 
L 183.335105 232.227351 
L 183.631458 232.508575 
L 183.779634 232.426853 
L 184.137727 231.726494 
L 184.285903 231.986433 
L 184.43408 231.881963 
L 184.582256 232.044657 
L 185.174962 231.29782 
L 185.323138 231.494584 
L 185.471315 231.307806 
L 185.619491 229.502069 
L 185.767668 229.895751 
L 185.915844 229.847185 
L 186.064021 229.557551 
L 186.212197 229.696921 
L 186.360373 229.457085 
L 186.656726 229.752613 
L 186.804903 230.356974 
L 186.953079 230.3292 
L 187.101256 230.168569 
L 187.249432 228.214767 
L 187.397608 228.232014 
L 187.545785 228.4922 
L 187.693961 228.191258 
L 187.990314 225.838994 
L 188.138491 225.738793 
L 188.286667 223.916505 
L 188.434843 224.834638 
L 188.58302 224.90001 
L 188.64476 222.824197 
L 188.792936 222.050664 
L 188.941113 225.809811 
L 189.089289 224.734172 
L 189.237466 224.720255 
L 189.385642 224.130388 
L 189.533819 224.741499 
L 189.681995 224.251451 
L 189.830171 223.286545 
L 189.978348 223.840848 
L 190.126524 223.777525 
L 190.422877 224.822161 
L 190.571053 224.603201 
L 190.71923 224.123147 
L 190.867406 221.816835 
L 191.015583 222.040233 
L 191.163759 221.307763 
L 191.311936 221.305706 
L 191.460112 222.736733 
L 191.756465 221.324217 
L 192.052818 222.088231 
L 192.200994 221.99367 
L 192.497347 222.666306 
L 192.645523 222.400958 
L 192.7937 222.415664 
L 193.299969 219.532479 
L 193.448146 219.983456 
L 193.596322 219.802724 
L 193.744499 220.822681 
L 194.040851 220.186283 
L 194.485381 219.750823 
L 194.633557 220.07908 
L 194.781734 219.39029 
L 195.078086 219.298572 
L 195.226263 219.522546 
L 195.522616 218.685825 
L 195.670792 218.705373 
L 195.818969 218.563496 
L 195.967145 218.035231 
L 196.411674 210.780636 
L 196.559851 212.091332 
L 196.708027 212.242877 
L 196.856203 211.589945 
L 197.152556 207.851383 
L 197.300733 207.979296 
L 197.448909 208.63224 
L 197.597086 208.498421 
L 197.807002 205.487073 
L 197.955179 204.385101 
L 198.103355 199.183668 
L 198.399708 211.897957 
L 198.696061 211.386564 
L 198.844237 211.861994 
L 198.992414 211.585971 
L 199.14059 219.544401 
L 199.436943 216.570265 
L 199.585119 216.919713 
L 199.733296 216.706751 
L 199.881472 216.100349 
L 200.029649 211.571216 
L 200.177825 212.795415 
L 200.326001 212.077004 
L 200.474178 212.309031 
L 200.622354 210.791254 
L 200.770531 210.63054 
L 200.918707 210.834868 
L 201.066884 212.443902 
L 201.21506 211.93566 
L 201.363236 211.026532 
L 201.659589 210.802434 
L 201.807766 210.919403 
L 201.955942 210.870121 
L 202.314035 205.991239 
L 202.610388 204.431516 
L 202.758564 205.205977 
L 202.906741 204.666704 
L 203.054917 203.528049 
L 203.203094 203.444625 
L 203.35127 206.885968 
L 203.499446 207.18266 
L 203.647623 206.366858 
L 203.943976 207.080105 
L 204.092152 206.361729 
L 204.240329 206.211679 
L 204.684858 203.865545 
L 204.833034 204.18658 
L 205.129387 200.973619 
L 205.277564 200.87486 
L 205.42574 198.651479 
L 205.573916 198.345055 
L 205.722093 199.671843 
L 206.018446 198.069688 
L 206.166622 198.069688 
L 206.672892 196.245435 
L 206.969244 194.079532 
L 207.117421 194.887526 
L 207.413774 194.166887 
L 207.710127 199.395136 
L 207.858303 197.699026 
L 208.006479 200.908066 
L 208.302832 196.292657 
L 208.747362 195.115428 
L 209.043714 201.6745 
L 209.191891 207.962364 
L 209.488244 203.87483 
L 209.63642 200.732132 
L 209.784596 204.124177 
L 209.932773 204.644873 
L 210.080949 209.919509 
L 210.229126 208.017414 
L 210.377302 208.339362 
L 210.525479 204.289932 
L 210.673655 204.221992 
L 210.821831 204.576463 
L 210.970008 205.251632 
L 211.179924 202.606765 
L 211.328101 201.583738 
L 211.476277 199.673195 
L 211.77263 200.537556 
L 211.920807 197.9515 
L 212.217159 198.245508 
L 212.365336 197.72591 
L 212.513512 197.758015 
L 212.661689 196.987836 
L 212.809865 197.1866 
L 212.958042 198.538559 
L 213.106218 198.615283 
L 213.254394 198.395999 
L 213.995277 195.968879 
L 214.143453 196.264403 
L 214.291629 195.858755 
L 214.439806 196.893862 
L 214.736159 194.464844 
L 214.884335 193.834034 
L 215.032512 192.380817 
L 215.180688 192.429712 
L 215.328864 192.222327 
L 215.477041 191.214937 
L 215.98331 186.047725 
L 216.279663 183.836073 
L 216.576016 182.487272 
L 216.724192 178.55505 
L 217.020545 176.682782 
L 217.168722 174.941349 
L 217.316898 178.528451 
L 217.465074 176.172751 
L 217.613251 176.058701 
L 217.761427 178.106194 
L 217.909604 178.22428 
L 218.354133 171.20253 
L 218.502309 168.747307 
L 218.650486 169.834446 
L 219.095015 160.563455 
L 219.539544 169.893288 
L 219.835897 164.688538 
L 219.984074 166.552296 
L 220.490343 159.073342 
L 220.63852 159.1459 
L 220.934872 152.400119 
L 221.083049 154.813676 
L 221.231225 153.446756 
L 221.379402 153.113812 
L 221.527578 150.901481 
L 221.675755 150.720031 
L 221.823931 156.199835 
L 221.972107 155.099961 
L 222.120284 159.2576 
L 222.26846 160.123855 
L 222.416637 159.007637 
L 222.564813 156.272528 
L 222.71299 158.403042 
L 222.861166 157.574562 
L 223.009342 155.009592 
L 223.157519 155.632113 
L 223.305695 155.320579 
L 223.453872 154.573812 
L 223.602048 157.195571 
L 223.750224 157.578343 
L 223.898401 159.834729 
L 224.194754 157.87005 
L 224.701023 160.755457 
L 225.145552 157.335584 
L 225.293729 157.328654 
L 225.441905 157.198731 
L 225.590082 159.005591 
L 225.738258 157.939128 
L 225.886435 159.010091 
L 226.034611 162.084271 
L 226.182787 162.84488 
L 226.330964 161.516744 
L 226.47914 162.403597 
L 226.627317 165.199727 
L 226.92367 172.725267 
L 227.220022 163.263308 
L 227.368199 164.283117 
L 227.516375 153.227236 
L 227.664552 156.04259 
L 227.812728 153.364189 
L 227.960905 154.846874 
L 228.109081 154.387397 
L 228.405434 158.785351 
L 228.701787 153.384543 
L 228.849963 154.92146 
L 228.998139 154.344028 
L 229.146316 152.182137 
L 229.208056 155.076453 
L 229.356233 155.220509 
L 229.652585 151.815238 
L 229.800762 145.825701 
L 229.948938 146.446635 
L 230.097115 143.867336 
L 230.245291 143.245961 
L 230.393467 144.426426 
L 230.541644 143.83167 
L 230.986173 134.239275 
L 231.13435 131.148176 
L 231.282526 132.882806 
L 231.430702 130.538348 
L 231.578879 131.070095 
L 231.727055 133.146007 
L 231.875232 132.738009 
L 232.171585 135.151913 
L 232.76429 130.597593 
L 232.912467 130.824365 
L 233.060643 130.464829 
L 233.20882 130.467415 
L 233.356996 128.209356 
L 233.505172 128.363954 
L 233.653349 126.828707 
L 233.715089 124.802971 
L 233.863265 128.212169 
L 234.011442 128.165045 
L 234.159618 132.217186 
L 234.604148 127.975188 
L 234.752324 132.309209 
L 234.9005 132.341992 
L 235.048677 133.614712 
L 235.196853 133.137959 
L 235.34503 133.516463 
L 235.493206 136.709186 
L 235.641383 147.401033 
L 235.789559 140.068279 
L 235.937735 140.245341 
L 236.085912 140.848037 
L 236.234088 134.341321 
L 236.382265 136.149876 
L 236.530441 136.400142 
L 236.678617 140.160139 
L 236.826794 140.164963 
L 236.97497 137.92007 
L 237.123147 139.43036 
L 237.271323 136.13544 
L 237.4195 136.579839 
L 237.567676 132.652453 
L 237.864029 133.115679 
L 238.012205 130.986669 
L 238.222122 130.220207 
L 238.370298 130.154967 
L 238.666651 132.301778 
L 238.963004 130.606904 
L 239.11118 129.950083 
L 239.407533 126.082386 
L 239.55571 125.97486 
L 239.703886 125.497756 
L 240.000239 117.406906 
L 240.148415 115.749915 
L 240.296592 117.125048 
L 240.444768 116.696761 
L 240.592945 117.788747 
L 240.741121 117.925137 
L 240.889298 116.850589 
L 241.037474 114.186708 
L 241.18565 114.014306 
L 241.333827 114.212682 
L 241.482003 114.886746 
L 241.63018 118.51878 
L 241.926533 115.108667 
L 242.074709 116.201464 
L 242.222885 116.449905 
L 242.371062 112.980536 
L 242.519238 113.17614 
L 243.025508 104.836306 
L 243.173684 103.619999 
L 243.321861 103.428656 
L 243.470037 106.175913 
L 243.618213 105.291336 
L 243.76639 103.066318 
L 243.914566 105.297105 
L 244.359095 114.715453 
L 244.507272 109.691787 
L 244.655448 109.09628 
L 244.951801 100.296681 
L 245.099978 101.372699 
L 245.248154 100.833137 
L 245.544507 98.1875 
L 245.692683 99.006795 
L 245.84086 97.856167 
L 245.989036 99.2146 
L 246.137213 97.855293 
L 246.581742 88.911871 
L 246.729918 87.665366 
L 246.878095 88.54451 
L 247.680717 80.067458 
L 247.828893 78.933164 
L 248.125246 57.972778 
L 248.421599 66.469579 
L 248.569776 65.537164 
L 248.866128 59.385912 
L 249.014305 62.455122 
L 249.162481 61.968238 
L 249.458834 53.568 
L 249.60701 54.518997 
L 249.755187 54.590643 
L 250.347893 71.255227 
L 250.496069 68.121663 
L 250.644245 70.906288 
L 250.792422 70.534714 
L 250.940598 63.432673 
L 251.088775 64.275696 
L 251.236951 68.447599 
L 251.385128 68.272596 
L 251.533304 74.640302 
L 251.68148 70.060152 
L 251.743221 71.909703 
L 251.891397 67.139542 
L 252.039573 66.392247 
L 252.18775 65.060033 
L 252.335926 59.344217 
L 252.484103 59.056822 
L 252.928632 68.486765 
L 253.076808 67.169811 
L 253.224985 72.866906 
L 253.521338 69.323748 
L 253.669514 71.478448 
L 253.817691 71.299943 
L 253.965867 80.809515 
L 254.114043 82.181234 
L 254.410396 80.288023 
L 254.558573 74.851551 
L 254.854926 83.379375 
L 255.003102 83.677152 
L 255.151278 81.400703 
L 255.447631 82.260495 
L 255.743984 79.50003 
L 255.89216 81.687229 
L 256.040337 87.422651 
L 256.188513 86.840726 
L 256.250254 92.428438 
L 256.39843 94.373622 
L 256.546606 92.403893 
L 256.842959 106.67342 
L 256.991136 101.072769 
L 257.139312 101.962094 
L 257.435665 94.923612 
L 257.583841 95.606716 
L 257.732018 98.6334 
L 257.880194 93.817609 
L 258.028371 95.747869 
L 258.324723 87.117182 
L 258.4729 86.776248 
L 258.621076 82.531918 
L 258.769253 85.200227 
L 259.065606 81.200175 
L 259.361958 87.94166 
L 259.510135 86.439055 
L 259.806488 89.72433 
L 260.102841 84.358554 
L 260.251017 85.957183 
L 260.905463 82.653992 
L 261.053639 80.813102 
L 261.201816 80.710521 
L 261.349992 80.439599 
L 261.794521 91.182564 
L 261.942698 91.498626 
L 262.090874 94.168379 
L 262.239051 90.185358 
L 262.387227 92.234534 
L 262.535404 92.292046 
L 262.68358 97.75477 
L 262.979933 97.329537 
L 263.128109 100.001762 
L 263.572638 93.893271 
L 263.720815 93.80197 
L 263.868991 94.973817 
L 264.017168 94.089295 
L 264.461697 98.132496 
L 264.609873 100.550266 
L 264.75805 99.757657 
L 265.054403 107.155288 
L 265.202579 106.538341 
L 265.264319 107.50256 
L 265.560672 103.091049 
L 265.708849 107.430272 
L 265.857025 107.749751 
L 266.005201 109.091855 
L 266.301554 106.170338 
L 266.449731 108.058819 
L 266.597907 107.573894 
L 266.746084 106.576846 
L 266.89426 100.181881 
L 267.042436 100.138081 
L 267.190613 99.552364 
L 267.338789 97.386659 
L 267.635142 100.098099 
L 268.227848 93.996778 
L 268.376024 94.538934 
L 268.524201 93.79274 
L 268.672377 89.549939 
L 268.820554 94.286243 
L 268.96873 91.808756 
L 269.116906 93.469726 
L 269.265083 91.438356 
L 269.413259 91.05074 
L 269.771352 92.718747 
L 269.919529 92.06244 
L 270.067705 89.30423 
L 270.215881 89.532622 
L 270.364058 88.703451 
L 270.808587 92.068576 
L 270.956764 91.566922 
L 271.10494 93.144624 
L 271.253116 96.696182 
L 271.401293 96.310689 
L 271.549469 95.000563 
L 271.697646 95.042805 
L 272.142175 98.859811 
L 272.290351 97.872274 
L 272.438528 97.895944 
L 272.586704 96.260072 
L 272.734881 96.833686 
L 273.031234 102.393012 
L 273.17941 102.192175 
L 273.475763 103.788306 
L 273.623939 103.701951 
L 273.772116 105.351874 
L 273.920292 102.977302 
L 274.068469 103.434846 
L 274.574738 101.297502 
L 274.722914 102.689368 
L 274.871091 101.877934 
L 275.167444 101.578613 
L 275.463797 102.569458 
L 275.611973 107.942607 
L 275.760149 107.032812 
L 276.056502 111.364822 
L 276.204679 108.789742 
L 276.352855 110.50647 
L 276.501031 109.765118 
L 276.649208 110.166951 
L 276.797384 108.332792 
L 277.093737 108.014553 
L 277.241914 108.371667 
L 277.39009 113.571284 
L 277.538266 112.908337 
L 277.686443 112.818543 
L 277.834619 112.188559 
L 277.982796 113.486838 
L 278.130972 112.953083 
L 278.279149 115.120797 
L 278.575501 110.927744 
L 278.785418 111.074209 
L 278.933594 109.264021 
L 279.081771 109.927164 
L 279.378124 109.069967 
L 279.5263 108.804022 
L 279.674477 107.40705 
L 279.970829 108.279806 
L 280.119006 111.52694 
L 280.267182 111.002536 
L 280.415359 112.356768 
L 280.563535 112.280399 
L 280.711712 111.966937 
L 280.859888 111.285858 
L 281.304417 103.684054 
L 281.452594 103.016823 
L 281.60077 103.800565 
L 281.748947 103.346095 
L 281.897123 103.35165 
L 282.045299 101.358532 
L 282.193476 96.801385 
L 282.489829 99.776443 
L 282.638005 98.411829 
L 282.934358 98.075669 
L 283.082534 98.314309 
L 283.292451 101.937696 
L 283.440627 102.329451 
L 283.588804 103.241347 
L 283.73698 106.101945 
L 283.885157 105.841595 
L 284.181509 108.192991 
L 284.329686 111.723874 
L 284.477862 109.623186 
L 284.626039 112.722824 
L 284.774215 111.806213 
L 284.922392 111.586064 
L 285.070568 111.791158 
L 285.218744 112.598023 
L 285.366921 111.701655 
L 285.515097 111.488051 
L 285.663274 109.526016 
L 285.81145 110.769022 
L 285.959627 110.113076 
L 286.107803 111.701574 
L 286.255979 110.250331 
L 286.404156 111.147759 
L 286.848685 108.116224 
L 286.996862 108.544051 
L 287.293214 105.639368 
L 287.589567 106.503629 
L 287.737744 106.067307 
L 287.799484 104.940125 
L 287.94766 104.374065 
L 288.095837 104.463826 
L 288.244013 103.74784 
L 288.540366 109.930478 
L 288.688542 110.422834 
L 288.836719 112.380181 
L 289.133072 111.528975 
L 289.281248 111.598206 
L 289.429425 111.349409 
L 289.577601 110.024147 
L 289.725777 110.060523 
L 289.873954 109.819891 
L 290.02213 110.025174 
L 290.170307 111.925253 
L 290.614836 110.005494 
L 290.763012 108.331797 
L 291.059365 108.518172 
L 291.355718 110.587205 
L 291.503894 110.200811 
L 291.652071 108.778938 
L 291.948424 109.359294 
L 292.0966 109.175455 
L 292.454693 109.718419 
L 292.60287 110.14064 
L 292.899222 109.199411 
L 293.047399 109.465924 
L 293.195575 109.351569 
L 293.343752 108.968489 
L 293.491928 109.042814 
L 293.640105 109.487668 
L 293.788281 112.130388 
L 294.084634 111.88598 
L 294.23281 111.845508 
L 294.380987 109.401607 
L 294.529163 109.404965 
L 294.973692 110.43606 
L 295.121869 110.246917 
L 295.566398 110.353811 
L 295.714574 110.194148 
L 296.010927 110.361688 
L 296.30728 110.269152 
L 296.455457 111.505132 
L 296.603633 111.491792 
L 296.751809 111.627474 
L 296.81355 111.139115 
L 296.961726 111.053075 
L 297.109902 111.272736 
L 297.258079 111.152445 
L 297.702608 109.922825 
L 297.998961 111.075822 
L 298.295314 110.869291 
L 298.591667 111.287073 
L 298.739843 116.582073 
L 299.036196 118.064845 
L 299.184372 118.261297 
L 299.332549 117.623302 
L 299.628902 129.660186 
L 299.777078 127.949546 
L 299.925255 130.66434 
L 300.073431 130.887021 
L 300.221607 136.733474 
L 300.369784 135.046067 
L 300.51796 138.100659 
L 300.666137 137.536774 
L 300.814313 131.961096 
L 300.96249 131.70242 
L 301.110666 134.952363 
L 301.320583 132.481034 
L 301.468759 133.403466 
L 301.616935 136.556284 
L 301.765112 135.732586 
L 302.209641 143.245961 
L 302.357818 142.406663 
L 302.505994 140.399204 
L 302.802347 143.175958 
L 302.950523 142.246253 
L 303.246876 145.991157 
L 303.395052 146.082122 
L 303.543229 145.82681 
L 303.839582 139.245755 
L 303.987758 138.554988 
L 304.135935 133.47121 
L 304.284111 136.52441 
L 304.432287 134.992006 
L 304.580464 135.187459 
L 304.72864 134.171778 
L 304.876817 137.607345 
L 305.024993 137.045866 
L 305.17317 139.823692 
L 305.321346 136.163661 
L 305.469522 137.540954 
L 305.617699 136.930463 
L 305.765875 138.599706 
L 305.975792 135.908398 
L 306.123968 137.321208 
L 306.272145 137.040257 
L 306.420321 137.207866 
L 306.568498 134.196668 
L 306.716674 134.850124 
L 307.013027 134.721654 
L 307.161203 139.485226 
L 307.30938 139.367028 
L 307.457556 139.73257 
L 307.605733 141.280219 
L 307.753909 139.106692 
L 307.902085 140.165247 
L 308.198438 139.490268 
L 308.346615 139.78128 
L 308.494791 138.794578 
L 308.642968 140.587996 
L 308.791144 140.94663 
L 308.93932 140.536945 
L 309.087497 140.815837 
L 309.235673 140.589999 
L 309.532026 140.567255 
L 309.680202 140.832366 
L 309.828379 142.490619 
L 309.976555 142.823183 
L 310.124732 142.257631 
L 310.272908 142.678903 
L 310.482825 141.744728 
L 310.631001 142.586311 
L 310.779178 142.658643 
L 310.927354 142.551371 
L 311.223707 143.555257 
L 311.371883 139.655516 
L 311.52006 139.593451 
L 311.668236 139.327643 
L 311.816413 139.913987 
L 311.964589 139.84202 
L 312.260942 140.361443 
L 312.557295 140.177878 
L 312.705471 139.556416 
L 312.853648 136.271568 
L 313.15 135.176638 
L 313.298177 135.768664 
L 313.446353 135.103143 
L 313.59453 133.370498 
L 313.742706 137.675714 
L 313.890883 136.707726 
L 314.039059 137.085149 
L 314.335412 137.079402 
L 314.989858 136.950856 
L 315.138034 137.18121 
L 315.286211 138.340743 
L 315.434387 136.526525 
L 315.73074 136.327252 
L 315.878916 136.463757 
L 316.027093 135.649063 
L 316.175269 135.801509 
L 316.323446 136.409639 
L 316.767975 136.157753 
L 316.916151 135.680271 
L 317.064328 134.550475 
L 317.212504 134.85038 
L 317.36068 134.757287 
L 317.657033 134.059731 
L 317.80521 134.797931 
L 317.953386 134.86651 
L 318.101563 134.714888 
L 318.249739 134.889561 
L 318.397915 135.652183 
L 318.546092 135.366847 
L 318.694268 134.064899 
L 318.842445 134.291792 
L 319.138798 133.818547 
L 319.286974 133.834356 
L 319.348714 133.17623 
L 319.496891 124.930875 
L 319.645067 123.956812 
L 319.793243 124.479726 
L 319.94142 123.301491 
L 320.089596 123.065337 
L 320.385949 120.775609 
L 320.534126 121.608307 
L 320.682302 120.437979 
L 320.830478 123.017809 
L 321.126831 122.692295 
L 321.275008 121.978239 
L 321.423184 122.991163 
L 321.571361 121.30631 
L 321.719537 121.145377 
L 321.867713 120.691723 
L 322.01589 120.639048 
L 322.164066 120.309064 
L 322.312243 120.535022 
L 322.460419 119.71907 
L 322.608595 118.09433 
L 322.756772 119.097845 
L 322.904948 121.553302 
L 323.053125 120.877194 
L 323.201301 120.985239 
L 323.349478 120.820722 
L 323.497654 121.190423 
L 323.64583 120.185285 
L 323.855747 119.687306 
L 324.003923 118.718285 
L 324.1521 116.313967 
L 324.300276 115.755392 
L 324.596629 116.506174 
L 324.744806 115.770149 
L 325.189335 111.130472 
L 325.337511 104.857682 
L 325.485688 106.546911 
L 325.633864 100.669583 
L 325.930217 98.159049 
L 326.078393 100.21023 
L 326.22657 103.872281 
L 326.374746 104.384763 
L 326.522923 98.206036 
L 326.671099 99.603546 
L 326.819276 99.700369 
L 326.967452 101.566336 
L 327.263805 99.545074 
L 327.411981 99.126425 
L 327.560158 95.300966 
L 327.708334 94.519506 
L 328.004687 95.382588 
L 328.152863 97.446321 
L 328.30104 95.890733 
L 328.36278 95.95374 
L 328.510956 94.888362 
L 328.807309 101.380852 
L 328.955486 100.608243 
L 329.103662 100.622798 
L 329.251839 99.181413 
L 329.400015 99.759924 
L 329.548191 101.512631 
L 329.696368 99.461549 
L 329.844544 99.931334 
L 330.733603 91.593614 
L 330.881779 92.929629 
L 331.178132 90.46294 
L 331.474485 84.473532 
L 331.770838 83.005112 
L 332.067191 74.386239 
L 332.215367 82.207902 
L 332.363543 76.854522 
L 332.51172 78.749018 
L 332.659896 83.92062 
L 332.869813 85.047484 
L 333.017989 83.9944 
L 333.166166 78.740833 
L 333.462519 83.158057 
L 333.758871 80.9876 
L 334.055224 76.167835 
L 334.203401 77.906685 
L 334.351577 81.404059 
L 334.499754 79.370414 
L 334.64793 81.251342 
L 334.796106 86.66481 
L 334.944283 83.550788 
L 335.092459 90.731426 
L 335.240636 89.569599 
L 335.388812 84.643318 
L 335.536989 85.303205 
L 335.685165 84.159406 
L 335.981518 86.229375 
L 336.129694 88.481196 
L 336.277871 88.945569 
L 336.426047 88.423624 
L 336.574223 88.639994 
L 336.7224 90.731208 
L 336.870576 90.324151 
L 337.018753 90.506274 
L 337.166929 90.03074 
L 337.525022 85.364689 
L 337.821375 83.196928 
L 337.969551 79.415518 
L 338.117728 80.864829 
L 338.265904 78.824029 
L 338.414081 78.718699 
L 338.562257 79.166111 
L 338.710434 81.425109 
L 338.85861 80.661409 
L 339.006786 81.295498 
L 339.154963 83.547289 
L 339.303139 87.701743 
L 339.451316 86.386817 
L 339.599492 86.074051 
L 339.747669 86.787123 
L 339.895845 86.215928 
L 340.044021 83.45177 
L 340.192198 84.178118 
L 340.340374 87.26105 
L 340.488551 87.296584 
L 340.636727 85.907362 
L 340.784904 87.149828 
L 340.93308 87.258662 
L 341.081256 86.091534 
L 341.229433 87.020481 
L 341.525786 90.554736 
L 341.883879 89.229679 
L 342.180232 84.851139 
L 342.476584 85.084494 
L 342.624761 86.178643 
L 342.772937 85.369195 
L 343.06929 86.269936 
L 343.217466 87.373328 
L 343.365643 87.056558 
L 343.513819 85.896622 
L 343.661996 86.142578 
L 343.958349 86.206467 
L 344.254701 86.739159 
L 344.402878 86.956031 
L 344.551054 86.612795 
L 344.699231 87.040009 
L 344.847407 87.865917 
L 344.995584 87.606038 
L 345.14376 89.381167 
L 345.291936 95.614664 
L 345.440113 96.419235 
L 345.588289 98.703154 
L 345.736466 97.866779 
L 345.884642 97.903816 
L 346.032819 98.797027 
L 346.180995 97.605098 
L 346.539088 96.992731 
L 346.835441 98.154214 
L 346.983617 98.497145 
L 347.131794 99.539979 
L 347.27997 97.90569 
L 347.428147 98.011016 
L 347.576323 95.763271 
L 347.724499 95.818861 
L 347.872676 97.432142 
L 348.020852 97.340597 
L 348.169029 97.436786 
L 348.317205 97.105493 
L 348.613558 99.158489 
L 348.761734 98.798807 
L 348.909911 99.636489 
L 349.058087 99.537399 
L 349.206264 98.052981 
L 349.35444 97.917563 
L 349.502616 98.962515 
L 349.650793 102.687997 
L 349.798969 102.833409 
L 350.095322 92.011982 
L 350.243499 90.330353 
L 350.391675 91.949717 
L 350.539851 91.003667 
L 350.688028 92.231121 
L 350.836204 92.26555 
L 351.046121 91.569464 
L 351.194297 92.065619 
L 351.342474 91.086141 
L 351.49065 91.471157 
L 351.638827 91.370064 
L 351.787003 91.886248 
L 351.935179 94.524772 
L 352.083356 94.473891 
L 352.231532 93.078643 
L 352.379709 94.801047 
L 352.527885 94.461734 
L 352.676062 94.504999 
L 352.824238 95.094251 
L 352.972414 96.388892 
L 353.268767 95.869827 
L 353.56512 98.152896 
L 353.713297 99.288355 
L 354.009649 104.205318 
L 354.157826 103.495538 
L 354.306002 105.991667 
L 354.602355 104.760523 
L 354.750532 102.571647 
L 354.898708 103.042704 
L 355.046884 101.024687 
L 355.404977 103.311386 
L 355.553154 104.026216 
L 355.70133 104.039164 
L 355.849507 104.520841 
L 356.14586 102.466822 
L 356.442212 102.348518 
L 356.738565 104.335826 
L 356.886742 104.767233 
L 357.183094 104.395605 
L 357.331271 105.433665 
L 357.479447 105.234255 
L 357.7758 109.059259 
L 357.923977 104.34517 
L 358.072153 104.871485 
L 358.220329 104.757312 
L 358.368506 104.955096 
L 358.516682 102.709117 
L 358.664859 103.790057 
L 359.109388 104.613705 
L 359.553917 103.322768 
L 360.060187 106.450205 
L 360.208363 103.865406 
L 360.35654 103.406056 
L 360.504716 103.401468 
L 360.801069 98.420159 
L 360.949245 98.95193 
L 361.097422 100.248403 
L 361.245598 98.402113 
L 361.393775 99.222484 
L 361.541951 98.238727 
L 361.690127 98.543367 
L 361.838304 94.391069 
L 361.98648 94.51231 
L 362.134657 95.001448 
L 362.282833 93.803355 
L 362.43101 93.723965 
L 362.579186 95.105138 
L 362.727362 95.393595 
L 362.875539 94.871099 
L 363.023715 95.255485 
L 363.171892 96.910052 
L 363.320068 96.672141 
L 363.468244 97.147589 
L 363.764597 93.914372 
L 363.912774 91.382669 
L 364.06095 91.614181 
L 364.209127 90.561291 
L 364.357303 91.427059 
L 364.419043 91.194246 
L 364.715396 91.742135 
L 364.863572 92.369932 
L 365.159925 89.378625 
L 365.456278 88.667038 
L 365.604455 87.369814 
L 365.752631 88.7115 
L 366.048984 86.314422 
L 366.19716 86.874609 
L 366.345337 86.383969 
L 366.493513 88.54029 
L 366.64169 88.30634 
L 366.789866 89.589055 
L 366.938042 87.240981 
L 367.086219 89.891665 
L 367.234395 90.025056 
L 367.382572 89.60873 
L 367.530748 89.732593 
L 367.678925 88.357758 
L 367.975277 91.475679 
L 368.123454 94.43334 
L 368.27163 94.644217 
L 368.567983 95.74068 
L 368.926076 95.963186 
L 369.074253 94.147057 
L 369.370605 94.815991 
L 369.518782 92.94665 
L 369.666958 92.698751 
L 369.815135 93.91362 
L 369.963311 98.77205 
L 370.111487 99.95779 
L 370.40784 100.037241 
L 370.556017 123.979919 
L 370.704193 118.174366 
L 370.85237 121.653759 
L 371.000546 119.786479 
L 371.148722 123.529074 
L 371.296899 121.404117 
L 371.445075 121.277977 
L 371.593252 112.668873 
L 371.741428 112.605752 
L 371.889605 112.719825 
L 372.037781 115.763521 
L 372.334134 108.332945 
L 372.48231 108.745691 
L 372.630487 108.473586 
L 373.075016 114.958729 
L 373.223192 110.720282 
L 373.371369 110.64982 
L 373.581285 107.884939 
L 373.729462 108.343732 
L 373.877638 107.327468 
L 374.025815 107.903826 
L 374.173991 104.380724 
L 374.322168 105.060878 
L 374.470344 103.941077 
L 374.61852 104.166428 
L 374.766697 107.342774 
L 374.914873 107.390898 
L 375.06305 106.55637 
L 375.211226 107.496463 
L 375.359403 107.516111 
L 375.507579 109.046925 
L 375.655755 105.490606 
L 375.803932 105.640094 
L 375.952108 104.480789 
L 376.100285 104.967563 
L 376.248461 107.219329 
L 376.396637 107.231608 
L 376.841167 102.440206 
L 376.989343 102.31046 
L 377.285696 100.797107 
L 377.433872 100.721426 
L 377.582049 94.547246 
L 377.730225 95.38818 
L 378.088318 93.460842 
L 378.236495 93.985833 
L 378.384671 93.898011 
L 378.532848 93.377971 
L 378.681024 91.879577 
L 378.8292 88.217788 
L 378.977377 88.784415 
L 379.125553 90.103292 
L 379.27373 94.809048 
L 379.421906 95.726962 
L 379.570083 94.527113 
L 379.866435 89.357872 
L 380.014612 91.55024 
L 380.162788 91.281366 
L 380.310965 89.692302 
L 380.459141 89.395678 
L 380.607318 89.382649 
L 380.755494 90.485549 
L 380.90367 92.929629 
L 381.200023 92.211201 
L 381.3482 94.609744 
L 381.496376 93.931086 
L 381.644553 94.348542 
L 381.940905 90.470566 
L 382.089082 90.941244 
L 382.237258 89.534481 
L 382.385435 90.821632 
L 382.447175 87.112774 
L 382.595351 90.448666 
L 382.891704 89.004884 
L 383.039881 89.720065 
L 383.188057 89.783267 
L 383.336233 89.225033 
L 383.632586 89.030859 
L 383.780763 88.64109 
L 383.928939 91.58571 
L 384.077115 90.714034 
L 384.225292 90.744256 
L 384.373468 91.22766 
L 384.669821 90.404247 
L 384.966174 91.090356 
L 385.11435 91.772633 
L 385.262527 91.52738 
L 385.410703 91.686119 
L 385.55888 89.809745 
L 385.707056 89.911617 
L 385.855233 91.630884 
L 386.003409 91.901538 
L 386.299762 93.136365 
L 386.596115 92.314463 
L 386.744291 92.611627 
L 386.954208 92.104795 
L 387.250561 92.89821 
L 387.398737 92.642645 
L 387.546913 92.974009 
L 387.69509 91.289828 
L 387.843266 91.971261 
L 387.991443 91.00017 
L 388.139619 91.82841 
L 388.287796 91.823746 
L 388.435972 92.037734 
L 388.584148 91.836573 
L 388.732325 92.019561 
L 388.880501 92.021791 
L 389.176854 92.644112 
L 389.621383 92.342667 
L 389.76956 92.463899 
L 390.065913 90.472675 
L 390.214089 90.172236 
L 390.362265 90.410351 
L 390.658618 88.458305 
L 390.806795 83.099853 
L 390.954971 83.467017 
L 391.103148 82.588649 
L 391.251324 82.538826 
L 391.3995 81.563919 
L 391.461241 79.616916 
L 391.609417 82.806596 
L 392.202123 79.528582 
L 392.350299 80.31435 
L 392.498476 79.641193 
L 392.646652 79.985585 
L 392.794828 79.100271 
L 392.943005 81.169328 
L 393.239358 79.509473 
L 393.387534 79.576276 
L 393.683887 79.036595 
L 393.832063 77.493486 
L 394.128416 79.622656 
L 394.276593 79.099143 
L 394.424769 80.354244 
L 394.572946 79.958719 
L 394.721122 80.033659 
L 394.869298 79.551198 
L 395.017475 81.370189 
L 395.165651 80.819111 
L 395.313828 81.564237 
L 395.462004 80.576891 
L 395.61018 80.73617 
L 395.758357 79.82799 
L 395.906533 79.963174 
L 395.968274 78.701179 
L 396.11645 81.153527 
L 396.264626 86.71889 
L 396.412803 85.39585 
L 396.560979 87.10112 
L 396.857332 86.097794 
L 397.005508 87.294245 
L 397.450038 85.942222 
L 397.598214 85.7383 
L 397.746391 86.325848 
L 398.042743 84.016965 
L 398.19092 83.17472 
L 398.487273 83.317248 
L 398.487273 83.317248 
" style="fill:none;stroke:#ff0000;stroke-linecap:square;stroke-width:1.5;"/>
   </g>
   <g id="patch_3">
    <path d="M 57.6 307.584 
L 57.6 41.472 
" style="fill:none;stroke:#000000;stroke-linecap:square;stroke-linejoin:miter;stroke-width:0.8;"/>
   </g>
   <g id="patch_4">
    <path d="M 414.72 307.584 
L 414.72 41.472 
" style="fill:none;stroke:#000000;stroke-linecap:square;stroke-linejoin:miter;stroke-width:0.8;"/>
   </g>
   <g id="patch_5">
    <path d="M 57.6 307.584 
L 414.72 307.584 
" style="fill:none;stroke:#000000;stroke-linecap:square;stroke-linejoin:miter;stroke-width:0.8;"/>
   </g>
   <g id="patch_6">
    <path d="M 57.6 41.472 
L 414.72 41.472 
" style="fill:none;stroke:#000000;stroke-linecap:square;stroke-linejoin:miter;stroke-width:0.8;"/>
   </g>
   <g id="text_12">
    <!-- BTC Price in Dollars -->
    <defs>
     <path d="M 19.671875 34.8125 
L 19.671875 8.109375 
L 35.5 8.109375 
Q 43.453125 8.109375 47.28125 11.40625 
Q 51.125 14.703125 51.125 21.484375 
Q 51.125 28.328125 47.28125 31.5625 
Q 43.453125 34.8125 35.5 34.8125 
z
M 19.671875 64.796875 
L 19.671875 42.828125 
L 34.28125 42.828125 
Q 41.5 42.828125 45.03125 45.53125 
Q 48.578125 48.25 48.578125 53.8125 
Q 48.578125 59.328125 45.03125 62.0625 
Q 41.5 64.796875 34.28125 64.796875 
z
M 9.8125 72.90625 
L 35.015625 72.90625 
Q 46.296875 72.90625 52.390625 68.21875 
Q 58.5 63.53125 58.5 54.890625 
Q 58.5 48.1875 55.375 44.234375 
Q 52.25 40.28125 46.1875 39.3125 
Q 53.46875 37.75 57.5 32.78125 
Q 61.53125 27.828125 61.53125 20.40625 
Q 61.53125 10.640625 54.890625 5.3125 
Q 48.25 0 35.984375 0 
L 9.8125 0 
z
" id="DejaVuSans-66"/>
     <path d="M -0.296875 72.90625 
L 61.375 72.90625 
L 61.375 64.59375 
L 35.5 64.59375 
L 35.5 0 
L 25.59375 0 
L 25.59375 64.59375 
L -0.296875 64.59375 
z
" id="DejaVuSans-84"/>
     <path d="M 64.40625 67.28125 
L 64.40625 56.890625 
Q 59.421875 61.53125 53.78125 63.8125 
Q 48.140625 66.109375 41.796875 66.109375 
Q 29.296875 66.109375 22.65625 58.46875 
Q 16.015625 50.828125 16.015625 36.375 
Q 16.015625 21.96875 22.65625 14.328125 
Q 29.296875 6.6875 41.796875 6.6875 
Q 48.140625 6.6875 53.78125 8.984375 
Q 59.421875 11.28125 64.40625 15.921875 
L 64.40625 5.609375 
Q 59.234375 2.09375 53.4375 0.328125 
Q 47.65625 -1.421875 41.21875 -1.421875 
Q 24.65625 -1.421875 15.125 8.703125 
Q 5.609375 18.84375 5.609375 36.375 
Q 5.609375 53.953125 15.125 64.078125 
Q 24.65625 74.21875 41.21875 74.21875 
Q 47.75 74.21875 53.53125 72.484375 
Q 59.328125 70.75 64.40625 67.28125 
z
" id="DejaVuSans-67"/>
     <path id="DejaVuSans-32"/>
     <path d="M 19.671875 64.796875 
L 19.671875 37.40625 
L 32.078125 37.40625 
Q 38.96875 37.40625 42.71875 40.96875 
Q 46.484375 44.53125 46.484375 51.125 
Q 46.484375 57.671875 42.71875 61.234375 
Q 38.96875 64.796875 32.078125 64.796875 
z
M 9.8125 72.90625 
L 32.078125 72.90625 
Q 44.34375 72.90625 50.609375 67.359375 
Q 56.890625 61.8125 56.890625 51.125 
Q 56.890625 40.328125 50.609375 34.8125 
Q 44.34375 29.296875 32.078125 29.296875 
L 19.671875 29.296875 
L 19.671875 0 
L 9.8125 0 
z
" id="DejaVuSans-80"/>
     <path d="M 54.890625 33.015625 
L 54.890625 0 
L 45.90625 0 
L 45.90625 32.71875 
Q 45.90625 40.484375 42.875 44.328125 
Q 39.84375 48.1875 33.796875 48.1875 
Q 26.515625 48.1875 22.3125 43.546875 
Q 18.109375 38.921875 18.109375 30.90625 
L 18.109375 0 
L 9.078125 0 
L 9.078125 54.6875 
L 18.109375 54.6875 
L 18.109375 46.1875 
Q 21.34375 51.125 25.703125 53.5625 
Q 30.078125 56 35.796875 56 
Q 45.21875 56 50.046875 50.171875 
Q 54.890625 44.34375 54.890625 33.015625 
z
" id="DejaVuSans-110"/>
     <path d="M 19.671875 64.796875 
L 19.671875 8.109375 
L 31.59375 8.109375 
Q 46.6875 8.109375 53.6875 14.9375 
Q 60.6875 21.78125 60.6875 36.53125 
Q 60.6875 51.171875 53.6875 57.984375 
Q 46.6875 64.796875 31.59375 64.796875 
z
M 9.8125 72.90625 
L 30.078125 72.90625 
Q 51.265625 72.90625 61.171875 64.09375 
Q 71.09375 55.28125 71.09375 36.53125 
Q 71.09375 17.671875 61.125 8.828125 
Q 51.171875 0 30.078125 0 
L 9.8125 0 
z
" id="DejaVuSans-68"/>
     <path d="M 30.609375 48.390625 
Q 23.390625 48.390625 19.1875 42.75 
Q 14.984375 37.109375 14.984375 27.296875 
Q 14.984375 17.484375 19.15625 11.84375 
Q 23.34375 6.203125 30.609375 6.203125 
Q 37.796875 6.203125 41.984375 11.859375 
Q 46.1875 17.53125 46.1875 27.296875 
Q 46.1875 37.015625 41.984375 42.703125 
Q 37.796875 48.390625 30.609375 48.390625 
z
M 30.609375 56 
Q 42.328125 56 49.015625 48.375 
Q 55.71875 40.765625 55.71875 27.296875 
Q 55.71875 13.875 49.015625 6.21875 
Q 42.328125 -1.421875 30.609375 -1.421875 
Q 18.84375 -1.421875 12.171875 6.21875 
Q 5.515625 13.875 5.515625 27.296875 
Q 5.515625 40.765625 12.171875 48.375 
Q 18.84375 56 30.609375 56 
z
" id="DejaVuSans-111"/>
     <path d="M 9.421875 75.984375 
L 18.40625 75.984375 
L 18.40625 0 
L 9.421875 0 
z
" id="DejaVuSans-108"/>
     <path d="M 44.28125 53.078125 
L 44.28125 44.578125 
Q 40.484375 46.53125 36.375 47.5 
Q 32.28125 48.484375 27.875 48.484375 
Q 21.1875 48.484375 17.84375 46.4375 
Q 14.5 44.390625 14.5 40.28125 
Q 14.5 37.15625 16.890625 35.375 
Q 19.28125 33.59375 26.515625 31.984375 
L 29.59375 31.296875 
Q 39.15625 29.25 43.1875 25.515625 
Q 47.21875 21.78125 47.21875 15.09375 
Q 47.21875 7.46875 41.1875 3.015625 
Q 35.15625 -1.421875 24.609375 -1.421875 
Q 20.21875 -1.421875 15.453125 -0.5625 
Q 10.6875 0.296875 5.421875 2 
L 5.421875 11.28125 
Q 10.40625 8.6875 15.234375 7.390625 
Q 20.0625 6.109375 24.8125 6.109375 
Q 31.15625 6.109375 34.5625 8.28125 
Q 37.984375 10.453125 37.984375 14.40625 
Q 37.984375 18.0625 35.515625 20.015625 
Q 33.0625 21.96875 24.703125 23.78125 
L 21.578125 24.515625 
Q 13.234375 26.265625 9.515625 29.90625 
Q 5.8125 33.546875 5.8125 39.890625 
Q 5.8125 47.609375 11.28125 51.796875 
Q 16.75 56 26.8125 56 
Q 31.78125 56 36.171875 55.265625 
Q 40.578125 54.546875 44.28125 53.078125 
z
" id="DejaVuSans-115"/>
    </defs>
    <g transform="translate(177.820312 35.472)scale(0.12 -0.12)">
     <use xlink:href="#DejaVuSans-66"/>
     <use x="68.603516" xlink:href="#DejaVuSans-84"/>
     <use x="123.8125" xlink:href="#DejaVuSans-67"/>
     <use x="193.636719" xlink:href="#DejaVuSans-32"/>
     <use x="225.423828" xlink:href="#DejaVuSans-80"/>
     <use x="283.976562" xlink:href="#DejaVuSans-114"/>
     <use x="325.089844" xlink:href="#DejaVuSans-105"/>
     <use x="352.873047" xlink:href="#DejaVuSans-99"/>
     <use x="407.853516" xlink:href="#DejaVuSans-101"/>
     <use x="469.376953" xlink:href="#DejaVuSans-32"/>
     <use x="501.164062" xlink:href="#DejaVuSans-105"/>
     <use x="528.947266" xlink:href="#DejaVuSans-110"/>
     <use x="592.326172" xlink:href="#DejaVuSans-32"/>
     <use x="624.113281" xlink:href="#DejaVuSans-68"/>
     <use x="701.115234" xlink:href="#DejaVuSans-111"/>
     <use x="762.296875" xlink:href="#DejaVuSans-108"/>
     <use x="790.080078" xlink:href="#DejaVuSans-108"/>
     <use x="817.863281" xlink:href="#DejaVuSans-97"/>
     <use x="879.142578" xlink:href="#DejaVuSans-114"/>
     <use x="920.255859" xlink:href="#DejaVuSans-115"/>
    </g>
   </g>
   <g id="legend_1">
    <g id="patch_7">
     <path d="M 356.355938 64.150125 
L 407.72 64.150125 
Q 409.72 64.150125 409.72 62.150125 
L 409.72 48.472 
Q 409.72 46.472 407.72 46.472 
L 356.355938 46.472 
Q 354.355938 46.472 354.355938 48.472 
L 354.355938 62.150125 
Q 354.355938 64.150125 356.355938 64.150125 
z
" style="fill:#ffffff;opacity:0.8;stroke:#cccccc;stroke-linejoin:miter;"/>
    </g>
    <g id="line2d_28">
     <path d="M 358.355938 54.570438 
L 378.355938 54.570438 
" style="fill:none;stroke:#ff0000;stroke-linecap:square;stroke-width:1.5;"/>
    </g>
    <g id="line2d_29"/>
    <g id="text_13">
     <!-- BTC -->
     <g transform="translate(386.355938 58.070438)scale(0.1 -0.1)">
      <use xlink:href="#DejaVuSans-66"/>
      <use x="68.603516" xlink:href="#DejaVuSans-84"/>
      <use x="123.8125" xlink:href="#DejaVuSans-67"/>
     </g>
    </g>
   </g>
  </g>
 </g>
 <defs>
  <clipPath id="pb5fbcdd399">
   <rect height="266.112" width="357.12" x="57.6" y="41.472"/>
  </clipPath>
 </defs>
</svg>
